<svg height="481" viewBox="0 0 257 481" width="257" xmlns="http://www.w3.org/2000/svg"><g><path d="m239.552632 436.697368c-1.752632-1.752631-3.894737-3.115789-6.231579-4.186842-2.336842-1.071052-4.96579-1.557894-7.692106-1.557894-.194736 0-.389473 0-.58421 0-.097369 0-.097369 0-.194737 0s-.194737 0-.389474.097368c-.194737 0-.389473 0-.58421 0-.486842.097368-1.071053.097368-1.655263.292105-.194737 0-.292106.097369-.389474.194737-.097368 0-.194737 0-.292105.097369-.681579-1.85-1.557895-3.602632-2.726316-5.257895-1.363158-1.85-2.921053-3.407895-4.771053-4.771053s-3.894737-2.43421-6.13421-3.115789c-2.239474-.778948-4.576316-1.071053-7.010527-1.071053-3.018421 0-5.939473.584211-8.568421 1.655263-2.628947 1.071053-4.965789 2.628948-6.913158 4.478948-1.947368 1.85-3.602631 4.186842-4.673684 6.718421-.681579 1.460526-1.168421 3.115789-1.460526 4.771052-2.239474.389474-3.992105 2.434211-3.992105 4.771053 0 .778947.194737 1.557895.58421 2.239474-2.531579.58421-4.868421 1.947368-6.815789 3.894736-2.921053 2.921053-4.381579 6.426316-4.381579 10.418421 0 .584211.389473.973685.973684.973685s.973684-.389474.973684-.973685c0-3.602631 1.26579-6.523684 3.797369-9.055263 1.947368-1.947368 4.28421-3.115789 6.913158-3.602631.778947.58421 1.752631.973684 2.921052.973684 2.726316 0 4.868421-2.142105 4.868421-4.868421 0-2.336842-1.557895-4.186842-3.7-4.771053.292105-1.363158.681579-2.726316 1.26579-3.992105 1.071052-2.336842 2.531579-4.381579 4.28421-6.134211 1.752632-1.752631 3.894737-3.115789 6.328948-4.089473 2.43421-.973684 5.063157-1.557895 7.789473-1.557895 2.239474 0 4.381579.292105 6.426316.973684s3.894737 1.655263 5.55 2.823684c1.655263 1.26579 3.11579 2.726316 4.381579 4.381579 1.071053 1.460527 1.85 3.018421 2.434211 4.673685-6.036843 2.336842-10.126316 7.692105-11.294737 15.092105-.097369.389474-.097369.778947-.194737 1.071053v.194736c-2.239474.486842-3.894737 2.434211-3.894737 4.771053 0 2.726316 2.142105 4.868421 4.868421 4.868421s4.868421-2.142105 4.868421-4.868421c0-2.336842-1.655263-4.284211-3.894737-4.771053 0-.389473.097369-.681579.097369-.973684 1.265789-8.373684 6.426315-13.631579 14.215789-14.605263h.973684c2.434211 0 4.771053.486842 6.913158 1.363158 2.142106.876316 4.089474 2.239474 5.647369 3.797368 1.557894 1.557895 2.921052 3.407895 3.797368 5.55.973684 2.142106 1.363158 4.381579 1.363158 6.81579 0 2.336842-.486842 4.673684-1.363158 6.815789-.973684 2.142106-2.239474 3.992106-3.797368 5.647369-1.557895 1.557894-3.505263 2.823684-5.647369 3.7-2.142105.876315-4.478947 1.363158-6.913158 1.363158 0 0-73.902631 0-74 .097368-.778947-2.823684-3.407894-4.965789-6.523684-4.965789-3.797368 0-6.815789 3.018421-6.815789 6.815789s3.018421 6.815789 6.815789 6.815789c3.797369 0 6.81579-3.018421 6.81579-6.815789h73.707894c2.726316 0 5.355264-.486842 7.692106-1.460526 2.336842-.973685 4.478947-2.434211 6.231579-4.186842 1.752631-1.752632 3.213157-3.797369 4.186842-6.231579 1.071052-2.336842 1.557894-4.96579 1.557894-7.594737 0-2.726316-.486842-5.257895-1.557894-7.594737-.973685-2.336842-2.336842-4.381579-4.186842-6.134211m-56.473685 3.018421c0 1.655264-1.265789 2.921053-2.921052 2.921053s-2.921053-1.265789-2.921053-2.921053c0-1.655263 1.26579-2.921052 2.921053-2.921052s2.921052 1.265789 2.921052 2.921052m29.210527 13.631579c0 1.655264-1.26579 2.921053-2.921053 2.921053s-2.921053-1.265789-2.921053-2.921053c0-1.655263 1.26579-2.921052 2.921053-2.921052s2.921053 1.265789 2.921053 2.921052m-67.184211 21.421053c-2.726316 0-4.868421-2.142105-4.868421-4.868421s2.142105-4.868421 4.868421-4.868421 4.868421 2.142105 4.868421 4.868421-2.142105 4.868421-4.868421 4.868421"/><path d="m179.184211 403.689474c2.726315 0 4.868421-2.142106 4.868421-4.868421 0-2.726316-2.142106-4.868421-4.868421-4.868421-2.336843 0-4.284211 1.655263-4.771053 3.894736h-63.484211c-.486842-2.239473-2.43421-3.894736-4.771052-3.894736-2.726316 0-4.868421 2.142105-4.868421 4.868421 0 .876315.194737 1.655263.58421 2.336842l-10.7105261 12.268421h-39.7263158c-.4868421-3.310527-3.3105263-5.842105-6.718421-5.842105-3.7973685 0-6.8157895 3.018421-6.8157895 6.815789s3.018421 6.815789 6.8157895 6.815789c3.4078947 0 6.2315789-2.531578 6.718421-5.842105h76.0447369.097368c.486842 2.239474 2.434211 3.894737 4.771053 3.894737 2.726316 0 4.868421-2.142105 4.868421-4.868421s-2.142105-4.868421-4.868421-4.868421c-2.336842 0-4.284211 1.655263-4.771053 3.894737h-.097368-33.7868422l9.4447372-10.807895c.778947.681579 1.85 1.071053 3.018421 1.071053 2.336842 0 4.28421-1.655263 4.771052-3.894737h63.484211c.486842 2.239474 2.43421 3.894737 4.771053 3.894737m0-7.789474c1.655263 0 2.921052 1.265789 2.921052 2.921053 0 1.655263-1.265789 2.921052-2.921052 2.921052-1.655264 0-2.921053-1.265789-2.921053-2.921052 0-1.655264 1.265789-2.921053 2.921053-2.921053m-134.3684215 23.368421c-2.7263158 0-4.8684211-2.142105-4.8684211-4.868421s2.1421053-4.868421 4.8684211-4.868421 4.868421 2.142105 4.868421 4.868421-2.1421052 4.868421-4.868421 4.868421m87.6315785-7.789474c1.655264 0 2.921053 1.26579 2.921053 2.921053s-1.265789 2.921053-2.921053 2.921053c-1.655263 0-2.921052-1.26579-2.921052-2.921053s1.265789-2.921053 2.921052-2.921053m-26.289473-9.736842c-1.655263 0-2.921053-1.265789-2.921053-2.921052 0-1.655264 1.26579-2.921053 2.921053-2.921053s2.921052 1.265789 2.921052 2.921053c0 1.655263-1.265789 2.921052-2.921052 2.921052"/><path d="m189.894737 346.728947c0-3.505263-2.823684-6.328947-6.231579-6.328947h-7.4-.097369c-.389473-1.947368-1.85-3.407895-3.797368-3.797368v-3.213158c0-2.628948-1.947368-4.673685-4.381579-4.673685h-20.35c-2.43421 0-4.381579 2.142106-4.381579 4.673685v7.010526h-11.197368c-3.505263 0-6.328948 2.823684-6.328948 6.328947v33.981579c0 3.505263 2.823685 6.328948 6.328948 6.328948h39.43421c.584211 0 .973684-.389474.973684-.973685 0-.58421-.389473-.973684-.973684-.973684h-39.43421c-2.434211 0-4.381579-1.947368-4.381579-4.381579v-20.35c.097368 0 .194737.097369.292105.097369h25.31579.097368c.486842 2.239473 2.43421 3.894737 4.771053 3.894737 2.336842 0 4.28421-1.655264 4.771052-3.894737h25.121053v18.792105.097368c-2.239474.486843-3.894737 2.434211-3.894737 4.771053 0 2.531579 1.947368 4.576316 4.381579 4.771053l15.092105 17.039473c.097369.194737.389474.292106.584211.292106l.876316.194736h.194736 12.073685c.486842 3.310527 3.310526 5.842106 6.718421 5.842106 3.797368 0 6.815789-3.018421 6.815789-6.81579 0-3.797368-3.018421-6.815789-6.815789-6.815789-3.407895 0-6.231579 2.531579-6.718421 5.842105h-11.976316l-.486842-.097368-14.021053-15.871053c1.752632-.681579 3.018421-2.434211 3.018421-4.478947 0-2.336842-1.655263-4.284211-3.894737-4.771053v-.097368-32.423685zm-18.5-8.276315c1.655263 0 2.921052 1.265789 2.921052 2.921052s-1.265789 2.921053-2.921052 2.921053-2.921053-1.26579-2.921053-2.921053 1.26579-2.921052 2.921053-2.921052zm-26.289474-5.063158c0-1.557895 1.071053-2.726316 2.434211-2.726316h20.35c1.363158 0 2.43421 1.265789 2.43421 2.726316v3.213158c-1.947368.389473-3.407895 1.85-3.797368 3.797368h-21.421053zm15.871053 26.192105c0 1.557895-1.26579 2.921053-2.921053 2.921053s-2.921052-1.26579-2.921052-2.921053 1.265789-2.921053 2.921052-2.921053 2.921053 1.26579 2.921053 2.921053zm26.971052-.973684h-25.121052c-.486842-2.239474-2.434211-3.894737-4.771053-3.894737s-4.28421 1.655263-4.771052 3.894737h-.097369-25.315789c-.097369 0-.194737 0-.292106.097368v-11.878947c0-2.434211 1.947369-4.381579 4.381579-4.381579h34.663158c.486842 2.239474 2.434211 3.894737 4.771053 3.894737s4.28421-1.655263 4.771052-3.894737h.097369 7.4c2.336842 0 4.28421 1.947368 4.28421 4.381579zm36.026316 42.160526c2.726316 0 4.868421 2.142105 4.868421 4.868421s-2.142105 4.868421-4.868421 4.868421-4.868421-2.142105-4.868421-4.868421 2.142105-4.868421 4.868421-4.868421zm-32.131579-16.552632c0 1.655264-1.265789 2.921053-2.921052 2.921053-1.655264 0-2.921053-1.265789-2.921053-2.921053 0-1.655263 1.265789-2.921052 2.921053-2.921052 1.655263 0 2.921052 1.265789 2.921052 2.921052z"/><path d="m324.068421 402.715789-13.047368-40.213157c-.292106-1.071053-1.26579-1.655264-2.336842-1.655264-1.071053 0-2.044737.681579-2.336843 1.655264l-7.497368 17.136842c-.194737.486842 0 1.071052.486842 1.265789s1.071053 0 1.26579-.486842l7.497368-17.136842c.097368-.292105.389474-.389474.486842-.389474.097369 0 .389474 0 .486842.389474l13.047369 40.213158c.292105.778947 0 1.752631-.778948 2.239474l-37.292105 27.068421-37-26.873685c-.681579-.486842-.973684-1.460526-.681579-2.239473l.486842-1.655263c0-.097369 0-.194737 0-.292106.389474.097369.876316.097369 1.26579.097369 3.797368 0 6.815789-3.018421 6.815789-6.81579 0-2.823684-1.752631-5.257895-4.186842-6.231579l8.178947-25.315789c.097369-.292105.389474-.389474.486842-.389474.097369 0 .389474 0 .486843.389474l8.763157 27.068421c.097369.389474.486843.681579.973685.681579h33.397368c.778947 1.752631 2.434211 2.921052 4.478947 2.921052 2.726316 0 4.868422-2.142105 4.868422-4.868421 0-2.726315-2.142106-4.868421-4.868422-4.868421-2.726315 0-4.868421 2.142106-4.868421 4.868421h-32.228947l-8.568421-26.386842c-.292105-1.071052-1.265789-1.655263-2.336842-1.655263s-2.044737.681579-2.336842 1.655263l-8.276316 25.413158c-.292105 0-.486842 0-.778947 0-3.797369 0-6.81579 3.018421-6.81579 6.81579 0 2.628947 1.557895 4.965789 3.797369 6.13421-.097369.097369-.097369.194737-.097369.292105l-.486842 1.655264c-.486842 1.655263 0 3.407894 1.460526 4.381579l37.584211 27.360526c.194737.097368.389474.194737.58421.194737.194737 0 .389474-.097369.584211-.194737l37.876316-27.555263c1.363158-1.26579 1.947368-3.018421 1.460526-4.673685m-16.357895-16.552631c1.655263 0 2.921053 1.265789 2.921053 2.921053 0 1.655263-1.26579 2.921052-2.921053 2.921052s-2.921052-1.265789-2.921052-2.921052c0-1.655264 1.265789-2.921053 2.921052-2.921053m-64.263158 8.763158c0-2.726316 2.142106-4.868421 4.868421-4.868421 2.726316 0 4.868422 2.142105 4.868422 4.868421s-2.142106 4.868421-4.868422 4.868421c-2.726315 0-4.868421-2.142105-4.868421-4.868421"/><path d="m99.2447368 455.294737h20.6421052c.486842 2.239474 2.434211 3.894737 4.771053 3.894737 2.726316 0 4.868421-2.142106 4.868421-4.868421 0-2.726316-2.142105-4.868421-4.868421-4.868421-2.336842 0-4.284211 1.655263-4.771053 3.894736h-20.6421052c-5.6473684 0-11.5868421 1.85-11.5868421 5.355264v12.95c0 .58421.3894737.973684.9736842.973684.5842106 0 .9736843-.389474.9736843-.973684v-3.505264c2.2394736 1.557895 6.0368421 2.336843 9.6394736 2.336843 3.6026312 0 7.4000002-.778948 9.6394742-2.336843v3.213158c0 1.460527-3.7 3.407895-9.6394742 3.407895h-20.4473684c-.4868421-2.239474-2.4342105-3.894737-4.7710526-3.894737-2.7263158 0-4.8684211 2.142105-4.8684211 4.868421s2.1421053 4.868421 4.8684211 4.868421c2.3368421 0 4.2842105-1.655263 4.7710526-3.894737h20.4473684c5.6473682 0 11.5868422-1.85 11.5868422-5.355263v-12.560526c0-.584211-.389474-.973684-.973684-.973684-.584211 0-.973684.389473-.973684.973684 0 1.460526-3.7 3.407895-9.6394742 3.407895-5.9394736 0-9.6394736-2.044737-9.6394736-3.407895s3.7-3.505263 9.6394736-3.505263m25.4131582-3.894737c1.655263 0 2.921052 1.265789 2.921052 2.921053 0 1.655263-1.265789 2.921052-2.921052 2.921052s-2.921053-1.265789-2.921053-2.921052c0-1.655264 1.26579-2.921053 2.921053-2.921053m-50.6315792 27.263158c-1.6552632 0-2.9210526-1.26579-2.9210526-2.921053s1.2657894-2.921052 2.9210526-2.921052c1.6552631 0 2.9210526 1.265789 2.9210526 2.921052s-1.2657895 2.921053-2.9210526 2.921053m25.218421-14.507895c3.6026312 0 7.4000002-.778947 9.6394742-2.336842v3.213158c0 1.460526-3.7 3.407895-9.6394742 3.407895-5.9394736 0-9.6394736-2.044737-9.6394736-3.407895v-3.213158c2.2394736 1.557895 6.0368421 2.336842 9.6394736 2.336842"/><path d="m71.4947368 354.031579c-.7789473 0-1.3631579.486842-1.6552631 1.168421l-3.7 11.489474c-2.6289474 0-4.7710526 2.239473-4.7710526 4.868421 0 1.655263.8763157 3.213158 2.2394736 4.089473l-.0973684.292106c-.2921052 1.071052 0 2.142105.8763158 2.823684 0 0 3.8947368 2.921053 3.9921053 3.018421l14.8 11.1c.1947368.097368.3894737.194737.5842105.194737s.3894737-.097369.5842105-.194737l18.8894736-14.118421c.876316-.681579 1.168421-1.752632.876316-2.823684l-6.5236843-20.642106c-.1947369-.681579-.8763158-1.168421-1.6552632-1.168421-.7789473 0-1.3631579.486842-1.6552631 1.071053l-3.7 8.763158c-.1947369.486842 0 1.071053.4868421 1.265789.4868421.194737 1.0710526 0 1.2657894-.486842l3.5052632-8.276316 6.3289469 20.057895c.097369.194737 0 .486842-.194736.681579l-18.3052635 13.728948-12.6578948-9.444737s-5.55-4.186842-5.55-4.186842c-.1947368-.097369-.2921052-.389474-.1947368-.681579l.0973684-.194737c.2921053.097368.5842105.097368.8763158.097368 2.7263158 0 4.8684211-2.142105 4.8684211-4.868421 0-2.044737-1.2657895-3.797368-3.0184211-4.478947l3.4078947-10.51579 4.0894737 13.047369c.0973684.389473.4868421.681579.9736842.681579h18.5973685c.5842105 0 .9736842-.389474.9736842-.973685 0-.58421-.3894737-.973684-.9736842-.973684h-17.9157895l-4.0894737-13.047368c-.1947368-.876316-.8763158-1.363158-1.6552632-1.363158m-2.3368421 17.526316c0 1.655263-1.2657894 2.921052-2.9210526 2.921052s-2.9210526-1.265789-2.9210526-2.921052 1.2657894-2.921053 2.9210526-2.921053 2.9210526 1.26579 2.9210526 2.921053"/><path d="m109.760526 339.718421c-.389473-.389474-.973684-.389474-1.363158 0l-3.213157 3.213158-3.213158-3.213158c-.389474-.389474-.973685-.389474-1.363158 0-.389474.389474-.389474.973684 0 1.363158l3.213158 3.213158-3.213158 3.213158c-.389474.389473-.389474.973684 0 1.363158.194737.194736.486842.292105.681579.292105s.486842-.097369.681579-.292105l3.213158-3.213158 3.213157 3.213158c.194737.194736.486843.292105.681579.292105.194737 0 .486842-.097369.681579-.292105.389474-.389474.389474-.973685 0-1.363158l-3.213158-3.213158 3.213158-3.213158c.389474-.389474.389474-.973684 0-1.363158"/><path d="m114.921053 329.689474c0-2.726316-2.142106-4.868421-4.868421-4.868421-2.336843 0-4.284211 1.655263-4.771053 3.894736h-21.6157895c-.4868421-2.239473-2.4342106-3.894736-4.7710527-3.894736-2.7263157 0-4.868421 2.142105-4.868421 4.868421 0 2.726315 2.1421053 4.868421 4.868421 4.868421 2.3368421 0 4.2842106-1.655263 4.7710527-3.894737h.6815789.0973684c2.531579 0 4.6736843 2.044737 4.6736843 4.673684v3.213158.097368.292106c.1947368 3.407894 3.018421 6.231579 6.5236842 6.231579.5842105 0 .9736842-.389474.9736842-.973685 0-.58421-.3894737-.973684-.9736842-.973684-2.531579 0-4.4789474-1.947368-4.5763158-4.478947v-3.407895c0-1.85-.7789474-3.505263-1.9473684-4.673684h16.2605259c.486842 2.239474 2.434211 3.894737 4.771053 3.894737 2.628947 0 4.771053-2.142106 4.771053-4.868421m-36.0263162 2.921052c-1.6552631 0-2.9210526-1.265789-2.9210526-2.921052s1.2657895-2.921053 2.9210526-2.921053c1.6552632 0 2.9210527 1.26579 2.9210527 2.921053s-1.2657895 2.921052-2.9210527 2.921052m28.2368422-2.921052c0-1.655263 1.265789-2.921053 2.921053-2.921053 1.655263 0 2.921052 1.26579 2.921052 2.921053s-1.265789 2.921052-2.921052 2.921052c-1.655264 0-2.921053-1.265789-2.921053-2.921052"/><path d="m148.026316 434.847368c.58421 0 .973684-.389473.973684-.973684v-2.921052h2.921053c.58421 0 .973684-.389474.973684-.973685 0-.58421-.389474-.973684-.973684-.973684h-2.921053v-2.921052c0-.584211-.389474-.973685-.973684-.973685-.584211 0-.973684.389474-.973684.973685v2.921052h-2.921053c-.584211 0-.973684.389474-.973684.973684 0 .584211.389473.973685.973684.973685h2.921053v2.921052c0 .584211.389473.973684.973684.973684"/><path d="m156.789474 436.794737c.58421 0 .973684-.389474.973684-.973684v-13.631579c0-.389474-.194737-.778948-.584211-.876316-.389473-.194737-.778947-.097369-1.071052.194737l-2.921053 2.823684c-.389474.389474-.389474.973684 0 1.363158s.973684.389474 1.363158 0l1.265789-1.26579v11.294737c0 .681579.389474 1.071053.973685 1.071053"/><path d="m73.9289474 425.110526h-8.9578948c-3.1157894 0-5.55 2.531579-5.55 5.55v6.328948c0 3.115789 2.531579 5.55 5.55 5.55h49.1710524c3.11579 0 5.55-2.531579 5.55-5.55v-6.328948c0-3.115789-2.531579-5.55-5.55-5.55h-26.6789471c-.4868421-2.239473-2.4342105-3.894737-4.7710526-3.894737-2.7263158 0-4.8684211 2.142106-4.8684211 4.868422 0 2.726315 2.1421053 4.868421 4.8684211 4.868421 2.3368421 0 4.2842105-1.655264 4.7710526-3.894737h26.6789471c2.044737 0 3.602632 1.655263 3.602632 3.602631v6.328948c0 2.044737-1.655263 3.602631-3.602632 3.602631h-49.1710524c-2.0447368 0-3.6026315-1.655263-3.6026315-3.602631v-6.328948c0-2.044737 1.6552631-3.602631 3.6026315-3.602631h8.9578948c.5842105 0 .9736842-.389474.9736842-.973684 0-.584211-.3894737-.973685-.9736842-.973685m8.8605263 3.894737c-1.6552632 0-2.9210526-1.265789-2.9210526-2.921052 0-1.655264 1.2657894-2.921053 2.9210526-2.921053 1.6552631 0 2.9210526 1.265789 2.9210526 2.921053 0 1.655263-1.2657895 2.921052-2.9210526 2.921052"/><path d="m67.2105263 433.873684c0 .584211.3894737.973684.9736842.973684h34.1763155c.486842 2.239474 2.434211 3.894737 4.771053 3.894737 2.726316 0 4.868421-2.142105 4.868421-4.868421s-2.142105-4.868421-4.868421-4.868421c-2.336842 0-4.284211 1.655263-4.771053 3.894737h-34.1763155c-.5842105 0-.9736842.389474-.9736842.973684m39.9210527-2.921052c1.655263 0 2.921053 1.265789 2.921053 2.921052s-1.26579 2.921053-2.921053 2.921053-2.921053-1.26579-2.921053-2.921053 1.26579-2.921052 2.921053-2.921052"/><path d="m30.2105263 424.136842c0-8.081579-6.5236842-14.605263-14.6052631-14.605263-8.08157899 0-14.6052632 6.523684-14.6052632 14.605263s6.52368421 14.605263 14.6052632 14.605263c8.0815789 0 14.6052631-6.523684 14.6052631-14.605263m-27.26315788 0c0-7.010526 5.64736842-12.657895 12.65789478-12.657895 7.0105263 0 12.6578947 5.647369 12.6578947 12.657895s-5.6473684 12.657895-12.6578947 12.657895c-7.01052636 0-12.65789478-5.647369-12.65789478-12.657895"/><path d="m14.4368421 427.155263h-3.2131579c.0973684-1.168421 3.7973684-1.752631 3.7973684-4.576316 0-1.947368-1.6552631-2.726315-3.1157894-2.726315-1.4605264 0-2.33684215.778947-2.82368425 1.363157-.29210527.389474-.19473684.681579.19473684.973685l.4868421.389473c.38947371.292106.68157891.194737.97368421-.194736.1947368-.194737.5842105-.486843.9736842-.486843.4868421 0 .9736842.292106.9736842.876316 0 1.26579-3.89473682 1.85-3.89473682 5.257895v.292105c0 .486842.29210527.681579.77894737.681579h4.96578945c.4868421 0 .681579-.194737.681579-.681579v-.486842c-.0973684-.486842-.2921053-.681579-.7789474-.681579"/><path d="m17.3578947 429.005263h4.9657895c.4868421 0 .681579-.194737.681579-.681579v-.486842c0-.486842-.1947369-.681579-.681579-.681579h-3.2131579c.0973684-1.168421 3.7973684-1.752631 3.7973684-4.576316 0-1.947368-1.6552631-2.726315-3.1157894-2.726315-1.4605264 0-2.3368421.778947-2.8236842 1.363157-.2921053.389474-.1947369.681579.1947368.973685l.4868421.389473c.3894737.292106.6815789.194737.9736842-.194736.1947369-.194737.5842105-.486843.9736842-.486843.4868421 0 .9736842.292106.9736842.876316 0 1.26579-3.8947368 1.85-3.8947368 5.257895v.292105c0 .486842.2921053.681579.6815789.681579"/><path d="m235.171053 362.307895c-.292106-.486842-.778948-.778948-1.363158-.778948l-8.568421-.486842c-.584211 0-.973685.389474-1.071053.876316 0 .584211.389474.973684.876316 1.071053l8.471052.486842 4.96579 8.471052-1.168421 1.168421-6.134211-1.85c-.389473-.097368-.681579 0-.973684.194737l-6.328947 6.328948c-.292105.292105-.389474.58421-.194737.973684l1.85 6.13421-1.168421 1.168421-8.471053-4.965789-.486842-8.471053c0-.292105-.097368-.486842-.389474-.681579-1.752631-1.460526-3.115789-2.726315-4.381578-3.894736-2.044737-2.044737-3.602632-3.992106-4.673685-6.134211l2.531579-2.142105c.389474-.389474.486842-.973684.097369-1.363158-.389474-.389474-.973685-.486842-1.363158-.097369l-2.142105 1.752632c-1.071053-2.628947-1.557895-5.55-1.655264-9.055263 5.257895 0 8.66579.876316 12.073685 3.018421-.194737.58421-.389474 1.168421-.389474 1.85 0 2.726316 2.142105 4.868421 4.868421 4.868421s4.868421-2.142105 4.868421-4.868421-2.142105-4.868421-4.868421-4.868421c-1.363158 0-2.531579.58421-3.407895 1.460526-3.7-2.43421-7.497368-3.407895-13.339473-3.407895-.973685 0-1.752632.778948-1.752632 1.655264 0 7.789473 2.142105 13.047368 7.789474 18.597368 1.168421 1.168421 2.531579 2.434211 4.186842 3.797368l.389473 8.178948c.097369.486842.389474.973684.876316 1.363158l8.66579 5.063158c.292105.194736.58421.194736.876315.194736.389474 0 .778948-.194736 1.168422-.486842l1.460526-1.460526c.389474-.486842.58421-1.071053.389474-1.655263l-1.752632-5.744737 5.55-5.55 5.647368 1.752632c.194737.097368.389474.097368.486842.097368.486843 0 .876316-.194737 1.168422-.486842l1.460526-1.460526c.486842-.584211.58421-1.363158.194737-2.044737zm-17.526316-7.886842c.097368-.097369.097368-.097369.097368-.097369.486842-.778947 1.363158-1.265789 2.434211-1.265789 1.655263 0 2.921052 1.265789 2.921052 2.921052 0 1.655264-1.265789 2.921053-2.921052 2.921053s-2.921053-1.265789-2.921053-2.921053c-.097368-.58421.097369-1.071052.389474-1.557894"/><path d="m267.886842 339.426316c.486842 2.239473 2.434211 3.894737 4.771053 3.894737 2.726316 0 4.868421-2.142106 4.868421-4.868421 0-2.726316-2.142105-4.868421-4.868421-4.868421-2.336842 0-4.284211 1.655263-4.771053 3.894736h-.097368-32.228948c-.486842-2.239473-2.43421-3.894736-4.771052-3.894736-1.947369 0-3.602632 1.168421-4.381579 2.726315l-4.576316-5.647368h16.747368.097369c.486842 2.239474 2.43421 3.894737 4.771052 3.894737 2.726316 0 4.868421-2.142106 4.868421-4.868421 0-2.726316-2.142105-4.868421-4.868421-4.868421-2.336842 0-4.28421 1.655263-4.771052 3.894736h-.097369-37-.097368c-.486842-2.239473-2.434211-3.894736-4.771053-3.894736-2.726315 0-4.868421 2.142105-4.868421 4.868421 0 2.726315 2.142106 4.868421 4.868421 4.868421 2.336842 0 4.284211-1.655263 4.771053-3.894737h.097368 17.721053l6.621053 8.178947c.194736 2.531579 2.239473 4.478948 4.868421 4.478948 2.336842 0 4.28421-1.655264 4.771052-3.894737h32.326316c-.097368 0 0 0 0 0m4.771053-3.894737c1.655263 0 2.921052 1.265789 2.921052 2.921053 0 1.655263-1.265789 2.921052-2.921052 2.921052s-2.921053-1.265789-2.921053-2.921052c0-1.655264 1.26579-2.921053 2.921053-2.921053m-29.210527-8.763158c1.655264 0 2.921053 1.26579 2.921053 2.921053s-1.265789 2.921052-2.921053 2.921052c-1.655263 0-2.921052-1.265789-2.921052-2.921052s1.265789-2.921053 2.921052-2.921053m-46.736842 5.842105c-1.655263 0-2.921052-1.265789-2.921052-2.921052s1.265789-2.921053 2.921052-2.921053 2.921053 1.26579 2.921053 2.921053-1.26579 2.921052-2.921053 2.921052m34.078948 8.763158c-1.655263 0-2.921053-1.265789-2.921053-2.921052 0-1.655264 1.26579-2.921053 2.921053-2.921053s2.921052 1.265789 2.921052 2.921053c0 1.655263-1.265789 2.921052-2.921052 2.921052"/><path d="m256.105263 472.821053c0 2.726315 2.142105 4.868421 4.868421 4.868421s4.868421-2.142106 4.868421-4.868421c0-2.336842-1.655263-4.284211-3.894737-4.771053v-.681579-.097368c0-2.531579 2.044737-4.673685 4.673685-4.673685h3.602631.194737c3.310526-.292105 5.939474-3.115789 5.939474-6.523684 0-.58421-.389474-.973684-.973684-.973684-.584211 0-.973685.389474-.973685.973684 0 2.531579-2.044737 4.673684-4.673684 4.673684h-3.115789c-1.85 0-3.505264.778948-4.673685 1.947369v-16.260526c2.239474-.486843 3.894737-2.434211 3.894737-4.771053 0-2.726316-2.142105-4.868421-4.868421-4.868421s-4.868421 2.142105-4.868421 4.868421c0 2.336842 1.655263 4.28421 3.894737 4.771053v21.615789c-2.239474.486842-3.894737 2.434211-3.894737 4.771053m1.947369-31.157895c0-1.655263 1.265789-2.921053 2.921052-2.921053s2.921053 1.26579 2.921053 2.921053-1.26579 2.921053-2.921053 2.921053-2.921052-1.26579-2.921052-2.921053m2.921052 28.236842c1.655263 0 2.921053 1.265789 2.921053 2.921053 0 1.655263-1.26579 2.921052-2.921053 2.921052s-2.921052-1.265789-2.921052-2.921052c0-1.655264 1.265789-2.921053 2.921052-2.921053"/><path d="m106.060526 172.634211c.876316 1.265789 2.336842 2.044736 3.992106 2.044736 2.726315 0 4.868421-2.142105 4.868421-4.868421 0-2.726315-2.142106-4.868421-4.868421-4.868421-2.336843 0-4.284211 1.655263-4.771053 3.894737h-41.0894737c-.4868421-2.239474-2.4342106-3.894737-4.7710527-3.894737-2.7263158 0-4.868421 2.142106-4.868421 4.868421 0 2.726316 2.1421052 4.868421 4.868421 4.868421 2.3368421 0 4.2842106-1.655263 4.7710527-3.894736h41.0894737v.097368c-.097368 0-.097368 0-.194737.097368-11.6842104 7.692106-15.8710525 23.076316-9.736842 35.734211 4.3815789 9.055263 13.144737 14.605263 22.492105 15.578947v9.931579h-5.939473c-.486843-2.239473-2.434211-3.894737-4.771053-3.894737-2.726316 0-4.868421 2.142106-4.868421 4.868421 0 2.726316 2.142105 4.868421 4.868421 4.868421 2.336842 0 4.28421-1.655263 4.771053-3.894736h6.913157c.584211 0 .973685-.389474.973685-.973685v-10.710526h.876315c4.089474 0 8.276316-.876316 12.268422-2.823684.486842-.194737.681578-.778947.486842-1.26579-.194737-.486842-.778948-.681579-1.26579-.486842-12.95 6.328948-28.626316.973685-34.8578946-11.976315-5.9394737-11.878948-2.0447368-26.094737 8.7631576-33.3m3.992106-5.744737c1.655263 0 2.921052 1.265789 2.921052 2.921052s-1.265789 2.921053-2.921052 2.921053c-1.655264 0-2.921053-1.26579-2.921053-2.921053s1.265789-2.921052 2.921053-2.921052m-50.6315794 5.842105c-1.6552631 0-2.9210526-1.26579-2.9210526-2.921053s1.2657895-2.921052 2.9210526-2.921052c1.6552632 0 2.9210527 1.265789 2.9210527 2.921052s-1.2657895 2.921053-2.9210527 2.921053m47.7105264 63.289474c-1.655263 0-2.921053-1.26579-2.921053-2.921053s1.26579-2.921053 2.921053-2.921053 2.921053 1.26579 2.921053 2.921053-1.26579 2.921053-2.921053 2.921053"/><path d="m120.763158 177.6c-9.639474 0-17.526316 7.886842-17.526316 17.526316 0 9.639473 7.886842 17.526316 17.526316 17.526316s17.526316-7.886843 17.526316-17.526316c0-9.639474-7.886842-17.526316-17.526316-17.526316m0 33.105263c-8.568421 0-15.578947-7.010526-15.578947-15.578947s7.010526-15.578948 15.578947-15.578948 15.578947 7.010527 15.578947 15.578948-7.010526 15.578947-15.578947 15.578947"/><path d="m148.026316 188.310526c0 2.726316 2.142105 4.868421 4.868421 4.868421s4.868421-2.142105 4.868421-4.868421c0-2.336842-1.655263-4.28421-3.894737-4.771052v-.097369-4.868421c0-2.726316 2.142105-4.868421 4.868421-4.868421h11.781579c-1.265789 1.26579-2.044737 3.018421-2.044737 4.868421v4.868421.097369c-2.239473.486842-3.894737 2.43421-3.894737 4.771052 0 2.726316 2.142106 4.868421 4.868421 4.868421 2.726316 0 4.868421-2.142105 4.868421-4.868421 0-2.336842-1.655263-4.28421-3.894736-4.771052v-.097369-4.868421c0-2.726316 2.142105-4.868421 4.868421-4.868421h5.939473c.486842 2.239474 2.434211 3.894737 4.771053 3.894737 2.726316 0 4.868421-2.142105 4.868421-4.868421s-2.142105-4.868421-4.868421-4.868421c-2.336842 0-4.284211 1.655263-4.771053 3.894737h-22.492105c-3.797368 0-6.815789 3.115789-6.815789 6.815789v4.868421.097369c-2.239474.486842-3.894737 2.43421-3.894737 4.771052m24.342105 0c0 1.655263-1.265789 2.921053-2.921053 2.921053-1.655263 0-2.921052-1.26579-2.921052-2.921053s1.265789-2.921052 2.921052-2.921052c1.655264 0 2.921053 1.265789 2.921053 2.921052m13.631579-18.5c1.655263 0 2.921053 1.26579 2.921053 2.921053s-1.26579 2.921053-2.921053 2.921053-2.921053-1.26579-2.921053-2.921053 1.26579-2.921053 2.921053-2.921053m-33.105263 15.578948c1.655263 0 2.921052 1.265789 2.921052 2.921052s-1.265789 2.921053-2.921052 2.921053-2.921053-1.26579-2.921053-2.921053 1.26579-2.921052 2.921053-2.921052"/><path d="m29.3342105 200.871053c-.2921052-1.071053-1.2657894-1.655264-2.3368421-1.655264-1.0710526 0-2.0447368.681579-2.3368421 1.655264l-8.2763158 25.413158c-.2921052 0-.4868421 0-.7789473 0-3.7973685 0-6.81578952 3.018421-6.81578952 6.815789 0 2.628947 1.55789472 4.965789 3.79736842 6.134211-.0973684.097368-.0973684.194736-.0973684.292105l-.4868421 1.655263c-.4868421 1.655263 0 3.407895 1.4605263 4.381579l37.5842105 27.360526c.1947369.097369.3894737.194737.5842105.194737.1947369 0 .3894737-.097368.5842106-.194737l37.8763158-27.555263c1.3631579-.973684 1.9473684-2.823684 1.4605263-4.381579l-13.0473684-40.213158c-.2921053-1.071052-1.2657895-1.655263-2.3368421-1.655263-1.0710527 0-2.0447369.681579-2.3368422 1.655263l-7.4973684 17.136842c-.1947368.486842 0 1.071053.4868421 1.26579s1.0710527 0 1.2657895-.486842l7.4973684-17.136842c.0973684-.292106.3894737-.389474.4868421-.389474.0973685 0 .3894737 0 .4868421.389474l13.0473685 40.213157c.2921052.778948 0 1.752632-.7789474 2.239474l-37.2921053 27.068421-37-26.873684c-.6815789-.486842-.9736842-1.460526-.6815789-2.239474l.4868421-1.655263c0-.097368 0-.194737 0-.292105.3894737.097368.8763158.097368 1.2657895.097368 3.7973684 0 6.8157894-3.018421 6.8157894-6.815789 0-2.823684-1.7526315-5.257895-4.1868421-6.231579l8.1789474-25.31579c.0973684-.292105.3894737-.389473.4868421-.389473s.3894737 0 .4868421.389473l8.7631579 27.068421c.0973684.389474.4868421.681579.9736842.681579h33.3973684c.7789474 1.752632 2.4342106 2.921053 4.4789474 2.921053 2.7263158 0 4.8684211-2.142105 4.8684211-4.868421s-2.1421053-4.868421-4.8684211-4.868421-4.8684211 2.142105-4.8684211 4.868421h-32.2289473zm-8.8605263 32.228947c0 2.726316-2.1421053 4.868421-4.868421 4.868421-2.7263158 0-4.8684211-2.142105-4.8684211-4.868421s2.1421053-4.868421 4.8684211-4.868421c2.7263157 0 4.868421 2.142105 4.868421 4.868421m54.5263158-8.763158c1.6552632 0 2.9210526 1.26579 2.9210526 2.921053s-1.2657894 2.921052-2.9210526 2.921052-2.9210526-1.265789-2.9210526-2.921052 1.2657894-2.921053 2.9210526-2.921053"/><path d="m138.289474 236.021053c-.584211 0-.973685.389473-.973685.973684v20.155263l-5.647368-5.647368c-.389474-.389474-.973684-.389474-1.363158 0-.389474.389473-.389474.973684 0 1.363157l7.205263 7.205264c.194737.194736.486842.292105.681579.292105.292106 0 .486842-.097369.681579-.292105l6.523684-6.426316c.778948 2.43421 2.921053 4.28421 5.55 4.673684v6.913158h-30.18421v-4.96579c2.239474-.486842 3.894737-2.43421 3.894737-4.771052 0-2.726316-2.142106-4.868421-4.868421-4.868421-2.726316 0-4.868421 2.142105-4.868421 4.868421 0 2.336842 1.655263 4.28421 3.894736 4.771052v5.939474c0 .584211.389474.973684.973685.973684h32.131579c.58421 0 .973684-.389473.973684-.973684v-7.886842c3.310526-.486842 5.842105-3.310526 5.842105-6.718421 0-3.797368-3.018421-6.815789-6.815789-6.815789-3.602632 0-6.621053 2.921052-6.81579 6.426315l-5.842105 5.744737v-19.960526c0-.584211-.389474-.973684-.973684-.973684m-21.421053 19.473684c0-1.655263 1.26579-2.921053 2.921053-2.921053s2.921052 1.26579 2.921052 2.921053-1.265789 2.921052-2.921052 2.921052-2.921053-1.265789-2.921053-2.921052m35.052632-8.763158c2.726315 0 4.868421 2.142105 4.868421 4.868421s-2.142106 4.868421-4.868421 4.868421c-2.726316 0-4.868421-2.142105-4.868421-4.868421s2.142105-4.868421 4.868421-4.868421"/><path d="m231.763158 209.731579c0 2.726316 2.142105 4.868421 4.868421 4.868421 2.336842 0 4.28421-1.655263 4.771053-3.894737h34.857894c1.363158 0 2.726316-.292105 3.894737-.778947s2.239474-1.26579 3.213158-2.142105c.876316-.876316 1.655263-2.044737 2.142105-3.213158.486842-1.26579.778948-2.628948.778948-3.992106 0-1.460526-.292106-2.726315-.778948-3.992105-.486842-1.265789-1.265789-2.336842-2.142105-3.213158s-1.947368-1.655263-3.213158-2.239473c-1.265789-.584211-2.531579-.778948-3.894737-.778948-.194737 0-.389473 0-.486842 0-.097368 0-.097368 0-.194737 0-.097368 0-.097368 0-.194736 0-.389474-.973684-.778948-1.947368-1.363158-2.726316-.681579-.973684-1.557895-1.947368-2.434211-2.726315-.973684-.778948-2.044737-1.363158-3.115789-1.752632-2.531579-.973684-5.647369-.778947-8.081579.292105-1.363158.584211-2.531579 1.460527-3.602632 2.531579-.876316.973684-1.655263 2.142105-2.239474 3.310527-.097368 0-.194736 0-.292105 0-2.726316 0-4.868421 2.142105-4.868421 4.868421 0 .778947.194737 1.460526.486842 2.044736-.778947.389474-1.460526.876316-2.142105 1.460527-1.557895 1.460526-2.239474 3.213158-2.239474 5.257894 0 .584211.389474.973685.973684.973685.584211 0 .973685-.389474.973685-.973685 0-1.557894.58421-2.726315 1.655263-3.797368.486842-.486842 1.071052-.876316 1.655263-1.071053.097368 0 .194737-.097368.292105-.194736.876316.778947 1.947369 1.265789 3.213158 1.265789 2.726316 0 4.868421-2.142105 4.868421-4.868421 0-1.85-1.071052-3.505263-2.628947-4.284211.486842-.973684 1.071052-1.752631 1.752631-2.531578.876316-.876316 1.85-1.557895 3.018421-2.142106 2.044737-.973684 4.478948-1.071052 6.621053-.292105.973684.389474 1.85.876316 2.628947 1.460526.778948.584211 1.460527 1.363158 2.044737 2.239474.389474.584211.778948 1.363158.973685 2.044737-3.11579.876316-5.257895 3.213158-6.134211 6.426316-2.434211.292105-4.284211 2.336842-4.284211 4.771052 0 2.726316 2.142106 4.868421 4.868422 4.868421 2.726315 0 4.868421-2.142105 4.868421-4.868421 0-2.239473-1.460527-4.089473-3.505264-4.673684.876316-2.726316 2.823685-4.478947 5.647369-4.965789h.097368c.194737 0 .389474-.097369.681579-.097369h.681579c1.168421 0 2.142105.194737 3.11579.681579.973684.389474 1.85 1.071053 2.531579 1.752632.778947.778947 1.363157 1.655263 1.752631 2.628947s.681579 2.044737.681579 3.213158-.194737 2.239474-.681579 3.213158c-.389474.973684-.973684 1.947368-1.752631 2.628947-.681579.778948-1.557895 1.363158-2.531579 1.752632-.973685.389473-2.044737.681579-3.11579.681579h-34.857895c-.486842-2.239474-2.43421-3.894737-4.771052-3.894737-2.921053 0-5.063158 2.142105-5.063158 4.868421m25.315789-15.578947c0 1.655263-1.265789 2.921052-2.921052 2.921052s-2.921053-1.265789-2.921053-2.921052c0-1.655264 1.26579-2.921053 2.921053-2.921053s2.921052 1.265789 2.921052 2.921053m13.631579 7.789473c0 1.655263-1.265789 2.921053-2.921052 2.921053s-2.921053-1.26579-2.921053-2.921053 1.26579-2.921052 2.921053-2.921052 2.921052 1.265789 2.921052 2.921052m-31.157894 7.789474c0 1.655263-1.26579 2.921053-2.921053 2.921053s-2.921053-1.26579-2.921053-2.921053 1.26579-2.921053 2.921053-2.921053 2.921053 1.26579 2.921053 2.921053"/><path d="m272.073684 269.418421c-5.647368 5.744737-12.073684 12.073684-13.923684 13.534211-.681579-.973685-1.752632-1.752632-3.018421-2.044737v-28.334211c0-.58421-.389474-.973684-.973684-.973684-.584211 0-.973684.389474-.973684.973684v28.334211c-2.239474.486842-3.894737 2.43421-3.894737 4.771052s1.655263 4.284211 3.894737 4.771053v22.492105c0 .584211.389473.973684.973684.973684h76.044737c.486842 2.239474 2.43421 3.894737 4.771052 3.894737 2.726316 0 4.868421-2.142105 4.868421-4.868421s-2.142105-4.868421-4.868421-4.868421c-2.336842 0-4.28421 1.655263-4.771052 3.894737h-75.071053v-21.518421c2.239474-.486842 3.894737-2.434211 3.894737-4.771053 0-.292105 0-.681579-.097369-.973684 1.26579-.876316 4.478948-3.7 13.923685-13.242105l17.331579 14.994737c.194736.194737.389473.194737.681578.194737.292106 0 .486843-.097369.681579-.292106l7.886843-8.665789c.486842.194737.973684.292105 1.557894.292105 2.726316 0 4.868421-2.142105 4.868421-4.868421s-2.142105-4.868421-4.868421-4.868421-4.868421 2.142105-4.868421 4.868421c0 1.460526.681579 2.726316 1.655263 3.602632l-7.010526 7.692105-17.23421-14.994737c-.486843-.389474-1.071053-.389474-1.460527 0m62.9 40.602632c1.655263 0 2.921053 1.265789 2.921053 2.921052s-1.26579 2.921053-2.921053 2.921053-2.921052-1.26579-2.921052-2.921053 1.265789-2.921052 2.921052-2.921052m-80.815789-21.421053c-1.655263 0-2.921053-1.265789-2.921053-2.921053 0-1.655263 1.26579-2.921052 2.921053-2.921052s2.921052 1.265789 2.921052 2.921052c0 1.655264-1.265789 2.921053-2.921052 2.921053m46.736842-18.5c1.655263 0 2.921052 1.265789 2.921052 2.921053 0 1.655263-1.265789 2.921052-2.921052 2.921052s-2.921053-1.265789-2.921053-2.921052c0-1.655264 1.26579-2.921053 2.921053-2.921053"/><path d="m220.078947 304.178947c2.726316 0 4.868421-2.142105 4.868421-4.868421 0-2.726315-2.142105-4.868421-4.868421-4.868421-2.336842 0-4.28421 1.655263-4.771052 3.894737h-80.036842c-.486842-3.310526-3.310527-5.842105-6.718421-5.842105-1.26579 0-2.336843.292105-3.407895.876316l-22.589474-26.386842c-1.752631-1.752632-4.0894735-2.823685-6.5236841-2.823685-2.4342105 0-4.7710526.973685-6.6210526 2.823685l-33.6894737 38.363157s0 .097369-.0973684.097369c0 .097368-.0973684.097368-.0973684.194737v.194737.097368.194737.194737c0 .097368.0973684.097368.0973684.097368 0 .097368.0973684.097368.0973684.194737 0 0 .0973685.097368.1947369.097368 0 0 .0973684.097369.0973684.097369.0973684 0 .1947368.097368.3894737.097368h37 .0973684c.4868421 2.239474 2.4342105 3.894737 4.7710526 3.894737 2.7263154 0 4.8684214-2.142105 4.8684214-4.868421s-2.142106-4.868421-4.8684214-4.868421c-2.3368421 0-4.2842105 1.655263-4.7710526 3.894737h-.0973684-34.8578948l22.1026316-25.121053 3.3105263 2.531579c.3894737.292105.9736842.292105 1.2657895 0l3.2131579-2.43421 3.8947368 2.531578c.3894737.292106.8763158.194737 1.2657895-.097368l2.9210527-2.336842 3.2131578 2.43421c.1947369.097369.3894741.194737.5842101.194737.292106 0 .486843-.097368.681579-.292105l3.797369-2.921053c.389474-.292105.486842-.973684.194737-1.363157-.292106-.389474-.973685-.486843-1.363158-.194737l-3.213158 2.43421-3.213158-2.43421c-.3894737-.292106-.8763158-.292106-1.1684211 0l-3.018421 2.43421-3.8947368-2.531579c-.3894737-.194737-.7789474-.194737-1.1684211 0l-3.2131579 2.434211-2.6289474-2.044737 8.8605264-10.126316c1.3631578-1.460526 3.2131578-2.239474 5.1605263-2.239474 1.9473684 0 3.7973684.778948 5.1605266 2.142106l22.492105 26.289473c-1.168421 1.26579-1.947368 2.921053-1.947368 4.673685 0 3.797368 3.018421 6.815789 6.815789 6.815789 3.407895 0 6.231579-2.531579 6.718421-5.842105h.097368c2.726316 0 4.868422 2.239474 4.868422 4.965789v2.239474.097368c.194736 3.505264 3.018421 6.328948 6.523684 6.328948h29.502631.097369c.486842 2.239473 2.43421 3.894737 4.771052 3.894737 2.726316 0 4.868421-2.142106 4.868421-4.868421 0-2.726316-2.142105-4.868421-4.868421-4.868421-2.336842 0-4.28421 1.655263-4.771052 3.894736h-.097369-29.502631c-2.531579 0-4.576316-2.142105-4.576316-4.868421v-1.85c0-1.947368-.778947-3.7-2.044737-4.965789h75.168421c.389474 2.628947 2.336842 4.28421 4.673684 4.28421m0-7.789473c1.655264 0 2.921053 1.265789 2.921053 2.921052s-1.265789 2.921053-2.921053 2.921053c-1.655263 0-2.921052-1.26579-2.921052-2.921053s1.265789-2.921052 2.921052-2.921052m-121.7105259 6.815789c1.6552629 0 2.9210529 1.26579 2.9210529 2.921053s-1.26579 2.921052-2.9210529 2.921052c-1.6552632 0-2.9210527-1.265789-2.9210527-2.921052s1.2657895-2.921053 2.9210527-2.921053m30.1842109.973684c-2.726316 0-4.868421-2.142105-4.868421-4.868421 0-2.726315 2.142105-4.868421 4.868421-4.868421 2.726315 0 4.868421 2.142106 4.868421 4.868421 0 2.726316-2.142106 4.868421-4.868421 4.868421m52.578947 5.842106c1.655263 0 2.921053 1.265789 2.921053 2.921052s-1.26579 2.921053-2.921053 2.921053-2.921053-1.26579-2.921053-2.921053 1.26579-2.921052 2.921053-2.921052"/><path d="m206.447368 164.942105v34.955263l-8.276315-3.7c-.292106-.097368-.584211-.097368-.876316 0l-8.860526 4.868421c-.486843.292106-.681579.876316-.389474 1.363158.194737.292106.486842.486842.876316.486842.194736 0 .292105 0 .486842-.097368l8.373684-4.673684 8.276316 3.7c.097368.097368.292105.097368.389473.097368v13.631579.097369c-3.018421.389473-5.355263 2.823684-5.744736 5.744736h-.097369-6.815789v-5.842105-.097368c2.239473-.486842 3.894737-2.434211 3.894737-4.771053 0-2.726316-2.142106-4.868421-4.868422-4.868421-2.239473 0-4.186842 1.557895-4.673684 3.602632l-38.071052-3.602632c-.292106 0-.584211.097369-.778948.292105-.194737.194737-.292105.486842-.292105.681579v15.578948c0 .58421.389474.973684.973684.973684h50.631579.097369c.389473 3.018421 2.823684 5.355263 5.744736 5.744737v.097368 6.81579h-5.842105-.097368c-.486842-2.239474-2.434211-3.894737-4.771053-3.894737-2.726316 0-4.868421 2.142105-4.868421 4.868421 0 2.239474 1.557895 4.186842 3.602632 4.673684l-3.602632 38.071053c0 .292105.097368.58421.292105.778947s.486842.292105.681579.292105h15.578948c.58421 0 .973684-.389473.973684-.973684v-50.631579-.097368c3.018421-.389474 5.355263-2.823684 5.744737-5.744737h.097368 6.81579v5.842105.097369c-2.239474.486842-3.894737 2.43421-3.894737 4.771052 0 2.531579 1.947368 4.576316 4.381579 4.771053v.292105l11.002631 39.434211-27.944737 9.931579-32.910526-9.25c.389474-.681579.681579-1.557895.681579-2.434211 0-1.947368-1.168421-3.602632-2.726316-4.381579l11.489474-42.160526c.097368-.486842-.194737-1.071053-.681579-1.168421-.486842-.097369-1.071053.194737-1.168421.681579l-11.489474 42.160526c-.097368 0-.194737 0-.194737 0-2.726315 0-4.868421 2.142105-4.868421 4.868421s2.142106 4.868421 4.868421 4.868421c.973685 0 1.947369-.292105 2.726316-.876316l34.078948 9.542106h.292105c.097368 0 .194737 0 .292105-.097369l29.113158-10.321052c.486842-.194737.778947-.681579.584211-1.168422l-11.197369-40.213157c1.655263-.486843 2.921053-1.752632 3.310526-3.407895l38.071053 3.602631h.097368c.194737 0 .486843-.097368.681579-.292105.194737-.194737.292106-.486842.292106-.681579v-15.578947c0-.584211-.389474-.973684-.973685-.973684h-50.631578-.097369c-.389474-3.018421-2.823684-5.355264-5.744737-5.744737 0 0 0 0 0-.097369v-6.815789h5.842106.097368c.486842 2.239474 2.43421 3.894737 4.771053 3.894737 2.726315 0 4.868421-2.142106 4.868421-4.868421 0-2.239474-1.557895-4.186842-3.602632-4.673685l3.602632-38.071052c0-.292105-.097369-.584211-.292106-.778948-.194736-.194736-.486842-.292105-.681579-.292105h-15.578947c-.681579.194737-1.071053.584211-1.071053 1.168421m-14.605263 50.631579v5.842105h-9.736842v-4.868421c0-.58421-.389474-.973684-.973684-.973684-.584211 0-.973684.389474-.973684.973684v4.868421h-7.789474v-4.868421c0-.58421-.389474-.973684-.973684-.973684-.584211 0-.973684.389474-.973684.973684v4.868421h-7.789474v-4.868421c0-.58421-.389474-.973684-.973684-.973684-.584211 0-.973684.389474-.973684.973684v4.868421h-9.736843v-13.53421l37.097369 3.505263c.292105 2.044737 1.85 3.7 3.797368 4.186842m-1.947368-4.868421c0-1.655263 1.265789-2.921052 2.921052-2.921052 1.655264 0 2.921053 1.265789 2.921053 2.921052s-1.265789 2.921053-2.921053 2.921053c-1.655263 0-2.921052-1.26579-2.921052-2.921053m2.921052 26.289474c0-1.655263 1.26579-2.921053 2.921053-2.921053s2.921053 1.26579 2.921053 2.921053-1.26579 2.921052-2.921053 2.921052-2.921053-1.265789-2.921053-2.921052m13.631579 10.710526h-4.868421c-.58421 0-.973684.389474-.973684.973684 0 .584211.389474.973685.973684.973685h4.868421v7.789473h-4.868421c-.58421 0-.973684.389474-.973684.973684 0 .584211.389474.973685.973684.973685h4.868421v7.789473h-4.868421c-.58421 0-.973684.389474-.973684.973685 0 .58421.389474.973684.973684.973684h4.868421v9.736842h-13.53421l3.505263-37.097369c2.044737-.292105 3.602632-1.85 4.089474-3.797368h.097368 5.842105zm-38.947368 32.131579c-1.655263 0-2.921053-1.265789-2.921053-2.921053 0-1.655263 1.26579-2.921052 2.921053-2.921052s2.921053 1.265789 2.921053 2.921052c0 1.655264-1.26579 2.921053-2.921053 2.921053m55.5-50.631579v-5.842105h9.736842v4.868421c0 .58421.389474.973684.973684.973684.584211 0 .973685-.389474.973685-.973684v-4.868421h7.789473v4.868421c0 .58421.389474.973684.973684.973684.584211 0 .973685-.389474.973685-.973684v-4.868421h7.789473v4.868421c0 .58421.389474.973684.973685.973684.58421 0 .973684-.389474.973684-.973684v-4.868421h9.736842v13.53421l-37.097369-3.505263c-.292105-2.044737-1.85-3.7-3.797368-4.186842m1.947368 4.868421c0 1.655263-1.265789 2.921053-2.921052 2.921053s-2.921053-1.26579-2.921053-2.921053 1.26579-2.921052 2.921053-2.921052 2.921052 1.265789 2.921052 2.921052m-2.921052-26.289473c0 1.655263-1.26579 2.921052-2.921053 2.921052s-2.921052-1.265789-2.921052-2.921052c0-1.655264 1.265789-2.921053 2.921052-2.921053s2.921053 1.265789 2.921053 2.921053m-13.631579-10.710527h4.868421c.58421 0 .973684-.389473.973684-.973684s-.389474-.973684-.973684-.973684h-4.868421v-7.789474h4.868421c.58421 0 .973684-.389474.973684-.973684 0-.584211-.389474-.973684-.973684-.973684h-4.868421v-7.789474h4.868421c.58421 0 .973684-.389474.973684-.973684 0-.584211-.389474-.973684-.973684-.973684h-4.868421v-9.736843h13.53421l-3.505263 37.097369c-2.044737.292105-3.602631 1.85-4.089473 3.797368h-.097369-5.842105zm3.894737 25.31579c0 2.726315-2.142106 4.868421-4.868421 4.868421-2.726316 0-4.868421-2.142106-4.868421-4.868421 0-2.726316 2.142105-4.868421 4.868421-4.868421 2.726315 0 4.868421 2.142105 4.868421 4.868421"/><path d="m234.586842 172.731579-2.239474-3.797368c-.194736-.292106-.486842-.486843-.876315-.486843h-.973685c-.486842 0-.681579.194737-.681579.681579v7.692106c0 .486842.194737.681579.681579.681579h.778948c.486842 0 .681579-.194737.681579-.681579v-3.505264c0-.58421-.097369-1.557894-.097369-1.557894s.389474.973684.778948 1.557894l2.239473 3.7c.194737.292106.486842.486843.778948.486843h.973684c.486842 0 .681579-.194737.681579-.681579v-7.692106c0-.486842-.194737-.681579-.681579-.681579h-.778947c-.486843 0-.681579.194737-.681579.681579v3.505264c0 .58421.097368 1.557894.097368 1.557894.097368.097369-.389474-.778947-.681579-1.460526"/><path d="m241.207895 168.544737h-.778948c-.486842 0-.681579.194737-.681579.681579v7.692105c0 .486842.194737.681579.681579.681579h4.478948c.486842 0 .681579-.194737.681579-.681579v-.486842c0-.486842-.194737-.681579-.681579-.681579h-3.018421v-6.426316c0-.58421-.194737-.778947-.681579-.778947"/><path d="m250.263158 177.6c2.823684 0 4.673684-1.655263 4.673684-4.576316 0-2.921052-1.85-4.478947-4.673684-4.478947h-2.531579c-.486842 0-.681579.194737-.681579.681579v7.692105c0 .486842.194737.681579.681579.681579zm-.973684-7.107895h.876315c1.460527 0 2.434211.876316 2.434211 2.628948 0 1.752631-.973684 2.628947-2.434211 2.628947h-.876315z"/><path d="m42.8684211 276.915789c-.5842106 0-.9736843.389474-.9736843.973685v3.894737h-3.8947368c-.5842105 0-.9736842.389473-.9736842.973684 0 .58421.3894737.973684.9736842.973684h3.8947368v3.894737c0 .58421.3894737.973684.9736843.973684.5842105 0 .9736842-.389474.9736842-.973684v-3.894737h3.8947368c.5842105 0 .9736842-.389474.9736842-.973684 0-.584211-.3894737-.973684-.9736842-.973684h-3.8947368v-3.894737c0-.584211-.3894737-.973685-.9736842-.973685"/><path d="m23.3947368 310.994737c0 2.726316 2.1421053 4.868421 4.8684211 4.868421s4.868421-2.142105 4.868421-4.868421c0-2.336842-1.6552631-4.284211-3.8947368-4.771053v-.681579-.097368c0-2.531579 2.0447368-4.673684 4.6736842-4.673684h3.6026316.1947368c3.3105264-.292106 5.9394737-3.11579 5.9394737-6.523685 0-.58421-.3894737-.973684-.9736842-.973684s-.9736842.389474-.9736842.973684c0 2.531579-2.0447368 4.673685-4.6736842 4.673685h-3.1157895c-1.85 0-3.5052631.778947-4.6736842 1.947368v-16.260526c2.2394737-.486842 3.8947368-2.434211 3.8947368-4.771053 0-2.726316-2.1421052-4.868421-4.868421-4.868421s-4.8684211 2.142105-4.8684211 4.868421c0 2.336842 1.6552632 4.284211 3.8947369 4.771053v21.615789c-2.2394737.486842-3.8947369 2.434211-3.8947369 4.771053m1.9473685-31.157895c0-1.655263 1.2657894-2.921053 2.9210526-2.921053s2.9210526 1.26579 2.9210526 2.921053-1.2657894 2.921053-2.9210526 2.921053-2.9210526-1.26579-2.9210526-2.921053m2.9210526 28.236842c1.6552632 0 2.9210526 1.26579 2.9210526 2.921053s-1.2657894 2.921052-2.9210526 2.921052-2.9210526-1.265789-2.9210526-2.921052 1.2657894-2.921053 2.9210526-2.921053"/><path d="m45.7894737 197.073684h-2.9210526c-.5842106 0-.9736843.389474-.9736843.973684 0 .584211.3894737.973685.9736843.973685h2.9210526v2.921052c0 .584211.3894737.973684.9736842.973684s.9736842-.389473.9736842-.973684v-2.921052h2.9210526c.5842106 0 .9736842-.389474.9736842-.973685 0-.58421-.3894736-.973684-.9736842-.973684h-2.9210526v-2.921052c0-.584211-.3894737-.973685-.9736842-.973685s-.9736842.389474-.9736842.973685z"/><path d="m51.9236842 193.763158c.3894737.389474.9736842.389474 1.3631579 0l1.2657895-1.26579v11.294737c0 .584211.3894737.973684.9736842.973684s.9736842-.389473.9736842-.973684v-13.631579c0-.389473-.1947368-.778947-.5842105-.876315-.3894737-.194737-.7789474-.097369-1.0710527.194736l-2.9210526 2.823685c-.3894737.486842-.3894737 1.071052 0 1.460526"/><path d="m298.655263 81.2052632h-69.423684c-3.894737 0-7.107895 3.2131579-7.107895 7.1078947v46.2500001c0 3.894737 3.213158 7.107895 7.107895 7.107895h33.786842v12.657894h-9.736842c-.584211 0-.973684.389474-.973684.973685 0 .58421.389473.973684.973684.973684h21.421053c.58421 0 .973684-.389474.973684-.973684 0-.584211-.389474-.973685-.973684-.973685h-9.736843v-12.657894h16.65c.486843 3.310526 3.310527 5.842105 6.718422 5.842105 3.407894 0 6.231578-2.531579 6.718421-5.842105h3.602631c3.894737 0 7.107895-3.213158 7.107895-7.107895v-46.2500001c0-3.8947368-3.213158-7.1078947-7.107895-7.1078947zm-10.418421 64.2631578c-2.726316 0-4.868421-2.142105-4.868421-4.868421s2.142105-4.868421 4.868421-4.868421 4.868421 2.142105 4.868421 4.868421-2.142105 4.868421-4.868421 4.868421zm15.578947-11.002632c0 2.823685-2.336842 5.160527-5.160526 5.160527h-3.602631c-.486843-3.310527-3.310527-5.842105-6.718421-5.842105-3.407895 0-6.231579 2.531578-6.718422 5.842105h-52.286842c-2.823684 0-5.160526-2.336842-5.160526-5.160527v-37.6815785h45.763158.097368c.486842 2.2394737 2.434211 3.8947365 4.771053 3.8947365 2.726316 0 4.868421-2.1421049 4.868421-4.8684207s-2.142105-4.868421-4.868421-4.868421c-2.336842 0-4.284211 1.6552631-4.771053 3.8947368h-.097368-45.763158v-6.5236842c0-2.8236842 2.336842-5.1605263 5.160526-5.1605263h69.423685c2.823684 0 5.160526 2.3368421 5.160526 5.1605263v46.1526311zm-32.131578-38.6552627c0-1.6552631 1.265789-2.9210526 2.921052-2.9210526s2.921053 1.2657895 2.921053 2.9210526c0 1.6552632-1.26579 2.9210526-2.921053 2.9210526s-2.921052-1.2657894-2.921052-2.9210526z"/><path d="m266.328947 64.1657895c-.681579.7789473-1.557894 1.3631579-2.531579 1.7526316-.973684.3894736-2.044736.6815789-3.115789.6815789h-34.857895c-.486842-2.2394737-2.43421-3.8947368-4.771052-3.8947368-2.726316 0-4.868421 2.1421052-4.868421 4.868421s2.142105 4.8684211 4.868421 4.8684211c2.336842 0 4.28421-1.6552632 4.771052-3.8947369h34.857895c1.363158 0 2.726316-.2921052 3.894737-.7789473 1.168421-.4868422 2.239473-1.2657895 3.213158-2.1421053.876315-.8763158 1.655263-2.0447369 2.142105-3.2131579.486842-1.2657895.778947-2.6289474.778947-3.9921053 0-1.4605263-.292105-2.7263158-.778947-3.9921052-.486842-1.2657895-1.26579-2.3368421-2.142105-3.2131579-.876316-.8763158-1.947369-1.6552632-3.213158-2.2394737-1.26579-.5842105-2.531579-.7789474-3.894737-.7789474-.194737 0-.389474 0-.486842 0-.097369 0-.097369 0-.194737 0s-.097368 0-.194737 0c-.389474-.9736842-.778947-1.9473684-1.363158-2.7263158-.681579-.9736842-1.557894-1.9473684-2.43421-2.7263158-.973684-.7789473-2.044737-1.3631579-3.11579-1.7526315-2.531579-.9736842-5.647368-.7789474-8.081579.2921052-1.363158.5842106-2.531579 1.4605263-3.602631 2.531579-.876316.9736842-1.655263 2.1421052-2.239474 3.3105263-.097368 0-.194737 0-.292105 0-2.726316 0-4.868421 2.1421053-4.868421 4.868421 0 .7789474.194737 1.4605264.486842 2.0447369-.778948.3894737-1.460526.8763158-2.142105 1.4605263-1.557895 1.4605263-2.239474 3.2131579-2.239474 5.2578947 0 .5842106.389474.9736842.973684.9736842.584211 0 .973684-.3894736.973684-.9736842 0-1.5578947.584211-2.7263158 1.655263-3.7973684.486843-.4868421 1.071053-.8763158 1.655264-1.0710526.097368 0 .194736-.0973684.292105-.1947369.876316.7789474 1.947368 1.2657895 3.213158 1.2657895 2.726316 0 4.868421-2.1421052 4.868421-4.868421 0-1.85-1.071053-3.5052632-2.628948-4.2842106.486843-.9736842 1.071053-1.7526315 1.752632-2.5315789.876316-.8763158 1.85-1.5578947 3.018421-2.1421053 2.044737-.9736842 4.478947-1.0710526 6.621053-.2921052.973684.3894736 1.85.8763158 2.628947 1.4605263s1.460526 1.3631579 2.044737 2.2394737c.389474.5842105.778947 1.3631579.973684 2.0447368-3.115789.8763158-5.257895 3.2131579-6.13421 6.4263158-2.434211.2921053-4.284211 2.3368421-4.284211 4.7710526 0 2.7263158 2.142105 4.8684211 4.868421 4.8684211s4.868421-2.1421053 4.868421-4.8684211c0-2.2394737-1.460526-4.0894737-3.505263-4.6736842.876316-2.7263158 2.823684-4.4789474 5.647368-4.9657895h.097369c.194737 0 .389474-.0973684.681579-.0973684h.681579c1.168421 0 2.142105.1947369 3.115789.681579.973684.3894737 1.85 1.0710526 2.531579 1.7526315.778948.7789474 1.363158 1.6552632 1.752632 2.6289474.389473.9736842.681579 2.0447369.681579 3.2131579 0 1.1684211-.194737 2.2394737-.681579 3.2131579-.584211.9736842-1.168421 1.9473684-1.947369 2.6289474m-45.276315 6.3289473c-1.655264 0-2.921053-1.2657894-2.921053-2.9210526 0-1.6552631 1.265789-2.9210526 2.921053-2.9210526 1.655263 0 2.921052 1.2657895 2.921052 2.9210526 0 1.6552632-1.265789 2.9210526-2.921052 2.9210526m20.447368-18.5c0 1.6552632-1.265789 2.9210527-2.921053 2.9210527-1.655263 0-2.921052-1.2657895-2.921052-2.9210527 0-1.6552631 1.265789-2.9210526 2.921052-2.9210526 1.655264 0 2.921053 1.2657895 2.921053 2.9210526m13.631579 7.7894737c0 1.6552632-1.26579 2.9210527-2.921053 2.9210527s-2.921052-1.2657895-2.921052-2.9210527c0-1.6552631 1.265789-2.9210526 2.921052-2.9210526s2.921053 1.2657895 2.921053 2.9210526"/><path d="m182.105263 95.8105263c0 2.1421053 1.752632 3.8947369 3.894737 3.8947369h6.815789v7.7894738h-11.68421c-.584211 0-.973684.389474-.973684.973684v8.860526c-2.239474.486842-3.894737 2.434211-3.894737 4.771053 0 2.726316 2.142105 4.868421 4.868421 4.868421s4.868421-2.142105 4.868421-4.868421c0-2.336842-1.655263-4.284211-3.894737-4.771053v-7.886842h10.710526v7.886842c-2.239473.486842-3.894736 2.434211-3.894736 4.771053 0 2.726316 2.142105 4.868421 4.868421 4.868421 2.726315 0 4.868421-2.142105 4.868421-4.868421 0-2.336842-1.655263-4.284211-3.894737-4.771053v-7.886842h10.710526v7.886842c-2.239473.486842-3.894737 2.434211-3.894737 4.771053 0 2.726316 2.142106 4.868421 4.868421 4.868421 2.726316 0 4.868421-2.142105 4.868421-4.868421 0-2.336842-1.655263-4.284211-3.894736-4.771053v-8.860526c0-.58421-.389474-.973684-.973685-.973684h-11.68421v-7.7894738h6.815789c2.142106 0 3.894737-1.7526316 3.894737-3.8947369 0-2.1421052-1.752631-3.8947368-3.894737-3.8947368h-15.578947c-2.142105 0-3.894737 1.7526316-3.894737 3.8947368m1.947369 26.2894737c0 1.655263-1.26579 2.921053-2.921053 2.921053s-2.921053-1.26579-2.921053-2.921053 1.26579-2.921053 2.921053-2.921053 2.921053 1.26579 2.921053 2.921053m25.315789 0c0 1.655263-1.265789 2.921053-2.921053 2.921053-1.655263 0-2.921052-1.26579-2.921052-2.921053s1.265789-2.921053 2.921052-2.921053c1.655264 0 2.921053 1.26579 2.921053 2.921053m-12.657895 0c0 1.655263-1.265789 2.921053-2.921052 2.921053s-2.921053-1.26579-2.921053-2.921053 1.26579-2.921053 2.921053-2.921053 2.921052 1.26579 2.921052 2.921053m6.81579-26.2894737c0 1.0710526-.876316 1.9473684-1.947369 1.9473684h-15.578947c-1.071053 0-1.947368-.8763158-1.947368-1.9473684s.876315-1.9473684 1.947368-1.9473684h15.578947c1.071053 0 1.947369.8763158 1.947369 1.9473684"/><path d="m220.468421 31.2552632h49.171053c3.115789 0 5.55-2.531579 5.55-5.55v-6.3289474c0-3.1157895-2.531579-5.55-5.55-5.55h-26.678948c-.486842-2.2394737-2.43421-3.89473685-4.771052-3.89473685-2.726316 0-4.868421 2.14210525-4.868421 4.86842105s2.142105 4.8684211 4.868421 4.8684211c2.336842 0 4.28421-1.6552632 4.771052-3.8947369h26.678948c2.044737 0 3.602631 1.6552632 3.602631 3.6026316v6.3289474c0 2.0447368-1.655263 3.6026315-3.602631 3.6026315h-49.171053c-2.044737 0-3.602632-1.6552631-3.602632-3.6026315v-6.3289474c0-2.0447369 1.655264-3.6026316 3.602632-3.6026316h8.957895c.58421 0 .973684-.3894737.973684-.9736842s-.389474-.9736842-.973684-.9736842h-8.957895c-3.115789 0-5.55 2.5315789-5.55 5.55v6.3289474c0 3.018421 2.434211 5.55 5.55 5.55m17.818421-13.631579c-1.655263 0-2.921053-1.2657895-2.921053-2.9210526 0-1.6552632 1.26579-2.9210527 2.921053-2.9210527s2.921053 1.2657895 2.921053 2.9210527c0 1.6552631-1.363158 2.9210526-2.921053 2.9210526"/><path d="m222.707895 22.4921053c0 .5842105.389473.9736842.973684.9736842h34.176316c.486842 2.2394737 2.43421 3.8947368 4.771052 3.8947368 2.726316 0 4.868421-2.1421052 4.868421-4.868421s-2.142105-4.8684211-4.868421-4.8684211c-2.336842 0-4.28421 1.6552632-4.771052 3.8947369h-34.176316c-.584211 0-.973684.3894736-.973684.9736842m39.921052-2.9210527c1.655264 0 2.921053 1.2657895 2.921053 2.9210527 0 1.6552631-1.265789 2.9210526-2.921053 2.9210526-1.655263 0-2.921052-1.2657895-2.921052-2.9210526 0-1.6552632 1.265789-2.9210527 2.921052-2.9210527"/><path d="m49.6842105 24.7315789c0 7.0105264 5.6473684 12.6578948 12.6578948 12.6578948 7.0105263 0 12.6578947-5.6473684 12.6578947-12.6578948 0-7.0105263-5.6473684-12.6578947-12.6578947-12.6578947-7.0105264 0-12.6578948 5.6473684-12.6578948 12.6578947m12.6578948-10.7105263c5.9394736 0 10.7105263 4.7710527 10.7105263 10.7105263 0 5.9394737-4.7710527 10.7105264-10.7105263 10.7105264-5.9394737 0-10.7105264-4.7710527-10.7105264-10.7105264 0-5.9394736 4.7710527-10.7105263 10.7105264-10.7105263"/><path d="m125.631579 118.205263v35.052632c0 1.655263 1.265789 2.921052 2.921053 2.921052h35.052631c1.655263 0 2.921053-1.265789 2.921053-2.921052v-35.052632c0-1.655263-1.26579-2.921052-2.921053-2.921052h-3.992105c-.486842-3.310527-3.310526-5.842106-6.718421-5.842106-3.797369 0-6.81579 3.018421-6.81579 6.81579 0 3.797368 3.018421 6.815789 6.81579 6.815789 3.407895 0 6.231579-2.531579 6.718421-5.842105h3.992105c.584211 0 .973684.389474.973684.973684v35.052632c0 .58421-.389473.973684-.973684.973684h-35.052631c-.584211 0-.973685-.389474-.973685-.973684v-35.052632c0-.58421.389474-.973684.973685-.973684h8.957894c.584211 0 .973685-.389474.973685-.973684 0-.584211-.389474-.973684-.973685-.973684h-8.957894c-1.655264 0-2.921053 1.265789-2.921053 2.921052m27.263158 2.921053c-2.726316 0-4.868421-2.142105-4.868421-4.868421s2.142105-4.868421 4.868421-4.868421 4.868421 2.142105 4.868421 4.868421-2.142105 4.868421-4.868421 4.868421"/><path d="m135.660526 145.176316c.194737.194737.389474.292105.681579.292105.292106 0 .486842-.097368.681579-.292105l8.178948-8.276316c.389473-.389474.389473-.973684 0-1.363158l-8.178948-8.276316c-.389473-.389473-.973684-.389473-1.363158 0-.389473.389474-.389473.973685 0 1.363158l7.497369 7.594737-7.497369 7.594737c-.389473.389474-.389473.973684 0 1.363158"/><path d="m156.789474 145.371053c.486842 0 .876315-.389474.876315-.876316s-.389473-.876316-.876315-.876316h-7.692106c-.486842 0-.876315.389474-.876315.876316s.389473.876316.876315.876316z"/><path d="m143.157895 83.1526316h2.921052v2.9210526c0 .5842105.389474.9736842.973685.9736842.58421 0 .973684-.3894737.973684-.9736842v-2.9210526h2.921052c.584211 0 .973685-.3894737.973685-.9736842 0-.5842106-.389474-.9736842-.973685-.9736842h-2.921052v-2.9210527c0-.5842105-.389474-.9736842-.973684-.9736842-.584211 0-.973685.3894737-.973685.9736842v2.9210527h-2.921052c-.584211 0-.973684.3894736-.973684.9736842 0 .5842105.389473.9736842.973684.9736842"/><path d="m153.576316 77.8947368 1.265789-1.2657894v11.2947368c0 .5842105.389474.9736842.973684.9736842.584211 0 .973685-.3894737.973685-.9736842v-13.6315789c0-.3894737-.194737-.7789474-.584211-.8763158-.389474-.1947369-.778947-.0973684-1.071052.1947368l-2.921053 2.8236842c-.389474.3894737-.389474.9736842 0 1.3631579.389474.4868421.973684.4868421 1.363158.0973684"/><path d="m121.736842 89.9684211h3.894737v3.8947368c0 .5842105.389474.9736842.973684.9736842.584211 0 .973684-.3894737.973684-.9736842v-3.8947368h3.894737c.584211 0 .973684-.3894737.973684-.9736843 0-.5842105-.389473-.9736842-.973684-.9736842h-3.894737v-3.8947368c0-.5842105-.389473-.9736842-.973684-.9736842-.58421 0-.973684.3894737-.973684.9736842v3.8947368h-3.894737c-.58421 0-.973684.3894737-.973684.9736842 0 .5842106.389474.9736843.973684.9736843"/><path d="m107.131579 117.231579c0 2.726316 2.142105 4.868421 4.868421 4.868421s4.868421-2.142105 4.868421-4.868421c0-2.336842-1.655263-4.284211-3.894737-4.771053v-.681579-.097368c0-2.531579 2.044737-4.673684 4.673684-4.673684h3.602632.194737c3.310526-.292106 5.939474-3.11579 5.939474-6.523684 0-.584211-.389474-.9736847-.973685-.9736847-.58421 0-.973684.3894737-.973684.9736847 0 2.531578-2.044737 4.673684-4.673684 4.673684h-3.11579c-1.85 0-3.505263.778947-4.673684 1.947368v-16.2605262c2.239474-.4868421 3.894737-2.4342105 3.894737-4.7710526 0-2.7263158-2.142105-4.868421-4.868421-4.868421s-4.868421 2.1421052-4.868421 4.868421c0 2.3368421 1.655263 4.2842105 3.894737 4.7710526v21.6157892c-2.239474.486842-3.894737 2.434211-3.894737 4.771053m1.947368-31.1578948c0-1.6552631 1.26579-2.9210526 2.921053-2.9210526s2.921053 1.2657895 2.921053 2.9210526c0 1.6552632-1.26579 2.9210526-2.921053 2.9210526s-2.921053-1.2657894-2.921053-2.9210526m2.921053 28.2368418c1.655263 0 2.921053 1.26579 2.921053 2.921053s-1.26579 2.921053-2.921053 2.921053-2.921053-1.26579-2.921053-2.921053 1.26579-2.921053 2.921053-2.921053"/><path d="m5.18684211 107.202632c.19473684.194736.4868421.292105.68157894.292105s.48684211-.097369.68157895-.292105l3.21315789-3.213158 3.21315791 3.213158c.1947368.194736.4868421.292105.6815789.292105.1947369 0 .4868421-.097369.681579-.292105.3894737-.389474.3894737-.973685 0-1.363158l-3.2131579-3.213158 3.2131579-3.2131581c.3894737-.3894737.3894737-.9736842 0-1.3631579s-.9736842-.3894737-1.3631579 0l-3.21315791 3.213158-3.21315789-3.213158c-.38947368-.3894737-.97368421-.3894737-1.36315789 0-.38947369.3894737-.38947369.9736842 0 1.3631579l3.21315789 3.2131581-3.21315789 3.213158c-.38947369.389473-.38947369.973684 0 1.363158"/><path d="m.02631579 117.231579c0 2.726316 2.14210526 4.868421 4.86842105 4.868421 2.33684211 0 4.28421053-1.655263 4.77105263-3.894737h21.61578943c.4868422 2.239474 2.4342106 3.894737 4.7710527 3.894737 2.7263158 0 4.868421-2.142105 4.868421-4.868421s-2.1421052-4.868421-4.868421-4.868421c-2.3368421 0-4.2842105 1.655263-4.7710527 3.894737h-.6815789-.0973684c-2.531579 0-4.6736842-2.044737-4.6736842-4.673684v-3.213158-.097369c0-.097368 0-.194737 0-.292105-.1947369-3.407895-3.0184211-6.231579-6.5236842-6.231579-.5842106 0-.9736843.389474-.9736843.973684 0 .584211.3894737.973684.9736843.973684 2.5315789 0 4.4789473 1.947369 4.5763157 4.478948v3.407895c0 1.85.7789474 3.505263 1.9473685 4.673684h-16.26052635c-.4868421-2.239474-2.43421052-3.894737-4.77105263-3.894737-2.62894737 0-4.77105263 2.142105-4.77105263 4.868421m36.02631581-2.921053c1.6552631 0 2.9210526 1.26579 2.9210526 2.921053s-1.2657895 2.921053-2.9210526 2.921053c-1.6552632 0-2.9210527-1.26579-2.9210527-2.921053s1.2657895-2.921053 2.9210527-2.921053m-28.23684213 2.921053c0 1.655263-1.26578947 2.921053-2.92105263 2.921053s-2.92105263-1.26579-2.92105263-2.921053 1.26578947-2.921053 2.92105263-2.921053 2.92105263 1.26579 2.92105263 2.921053"/><path d="m147.831579 1.94736842-7.4 17.13684208c-.194737.4868421 0 1.0710527.486842 1.2657895s1.071053 0 1.26579-.4868421l7.4-17.13684211c.097368-.29210526.389473-.38947368.486842-.38947368.097368 0 .389473 0 .486842.38947368l12.95 40.21315791c.292105.7789474 0 1.7526316-.778948 2.2394737l-36.902631 27.068421-36.5131581-26.8736842c-.681579-.4868421-.9736842-1.4605263-.681579-2.2394737l.4868422-1.6552631c0-.0973685 0-.1947369 0-.2921053.3894736.0973684.8763157.0973684 1.2657894.0973684 3.7 0 6.7184211-3.018421 6.7184211-6.8157894 0-2.8236843-1.6552632-5.2578948-4.0894737-6.231579l8.0815791-25.31578947c.097368-.29210526.389474-.38947368.486842-.38947368s.389474 0 .486842.38947368l8.66579 27.06842107c.097368.3894737.486842.6815789.876315.6815789h33.007895c.778947 1.7526316 2.434211 2.9210527 4.381579 2.9210527 2.628947 0 4.771053-2.1421053 4.771053-4.8684211s-2.142106-4.868421-4.771053-4.868421-4.771053 2.1421052-4.771053 4.868421h-31.839473l-8.471053-26.38684209c-.292105-1.07105264-1.265789-1.65526316-2.336842-1.65526316s-1.9473685.68157894-2.3368422 1.65526316l-8.1789473 25.41315789c-.2921053 0-.4868421 0-.7789474 0-3.7 0-6.718421 3.0184211-6.718421 6.8157895 0 2.6289473 1.5578947 4.9657894 3.7 6.1342105-.0973685.0973684-.0973685.1947368-.0973685.2921053l-.4868421 1.6552631c-.4868421 1.6552632 0 3.4078948 1.3631579 4.381579l37.0973686 27.3605263c.194737.0973684.389474.1947368.58421.1947368.194737 0 .389474-.0973684.584211-.1947368l37.389474-27.5552632c1.363157-.9736842 1.947368-2.8236842 1.460526-4.3815789l-12.95-40.21315792c-.292105-1.07105263-1.26579-1.65526315-2.336842-1.65526315-.778948-.19473685-1.752632.4868421-2.044737 1.36315789m1.363158 23.75789478c1.557895 0 2.921052 1.2657894 2.921052 2.9210526 0 1.6552631-1.265789 2.9210526-2.921052 2.9210526s-2.921053-1.2657895-2.921053-2.9210526c0-1.6552632 1.363158-2.9210526 2.921053-2.9210526m-63.4842107 8.7631579c0-2.7263158 2.1421053-4.8684211 4.7710526-4.8684211 2.6289474 0 4.7710527 2.1421053 4.7710527 4.8684211 0 2.7263157-2.1421053 4.868421-4.7710527 4.868421-2.6289473 0-4.7710526-2.1421053-4.7710526-4.868421"/><path d="m57.4736842 65.6263158c-2.7263158 0-4.868421 2.1421053-4.868421 4.868421 0 2.7263158 2.1421052 4.8684211 4.868421 4.8684211 2.3368421 0 4.2842105-1.6552632 4.7710526-3.8947368h5.9394737c2.7263158 0 4.8684211 2.2394736 4.8684211 4.868421v4.8684211.0973684c-2.2394737.4868421-3.8947369 2.4342105-3.8947369 4.7710526 0 2.7263158 2.1421053 4.8684211 4.8684211 4.8684211s4.868421-2.1421053 4.868421-4.8684211c0-2.3368421-1.6552631-4.2842105-3.8947368-4.7710526v-.0973684-4.8684211c0-1.9473684-.7789474-3.7-2.0447368-4.868421h11.7815789c2.7263158 0 4.8684211 2.2394736 4.8684211 4.868421v4.8684211.0973684c-2.2394737.4868421-3.8947369 2.4342105-3.8947369 4.7710526 0 2.7263158 2.1421053 4.8684211 4.8684211 4.8684211s4.868421-2.1421053 4.868421-4.8684211c0-2.3368421-1.6552631-4.2842105-3.8947368-4.7710526v-.0973684-4.8684211c0-3.7973684-3.0184211-6.8157895-6.8157895-6.8157895h-22.4921053c-.4868421-2.2394737-2.4342105-3.8947368-4.7710526-3.8947368m0 7.7894737c-1.6552631 0-2.9210526-1.2657895-2.9210526-2.9210527 0-1.6552631 1.2657895-2.9210526 2.9210526-2.9210526 1.6552632 0 2.9210526 1.2657895 2.9210526 2.9210526 0 1.6552632-1.2657894 2.9210527-2.9210526 2.9210527m19.4736842 12.6578947c0 1.6552632-1.2657895 2.9210526-2.9210526 2.9210526-1.6552632 0-2.9210526-1.2657894-2.9210526-2.9210526 0-1.6552631 1.2657894-2.9210526 2.9210526-2.9210526 1.6552631 0 2.9210526 1.2657895 2.9210526 2.9210526m16.5526316 0c0 1.6552632-1.2657895 2.9210526-2.9210526 2.9210526-1.6552632 0-2.9210527-1.2657894-2.9210527-2.9210526 0-1.6552631 1.2657895-2.9210526 2.9210527-2.9210526 1.6552631 0 2.9210526 1.2657895 2.9210526 2.9210526"/><path d="m115.797368 141.184211c0-.097369-.097368-.097369-.097368-.194737 0 0 0-.097369-.097368-.097369l-33.6894741-38.460526c-1.7526316-1.752632-4.0894737-2.8236843-6.5236842-2.8236843s-4.7710526.9736843-6.6210526 2.8236843l-22.6868422 26.581579c-.3894736.389474-.2921052 1.071053.0973685 1.363158s1.0710526.292105 1.3631579-.097369l22.6868421-26.48421c1.3631579-1.460526 3.2131579-2.239474 5.1605263-2.239474s3.7973684.778948 5.1605263 2.142105l8.9578947 10.126316-2.6289473 2.044737-3.2131579-2.43421c-.2921053-.292106-.7789474-.292106-1.1684211 0l-3.8947368 2.531578-3.0184211-2.43421c-.3894737-.292105-.8763158-.292105-1.168421 0l-3.2131579 2.43421-3.2131579-2.43421c-.3894737-.292105-1.0710526-.194737-1.3631579.194737-.2921053.389473-.1947369 1.071052.1947368 1.363158l3.7973685 2.921052c.3894736.292106.9736842.292106 1.2657894 0l3.1157895-2.43421 2.9210526 2.43421c.2921053.292106.8763158.292106 1.2657895 0l3.7973684-2.531579 3.2131579 2.434211c.1947369.097368.3894737.194737.5842105.194737.2921053 0 .4868422-.097369.681579-.292106l3.3105263-2.531578 22.1026318 25.121052h-34.9552634-.0973684c-.4868421-2.239474-2.4342105-3.894737-4.7710526-3.894737-2.7263158 0-4.8684211 2.142106-4.8684211 4.868421 0 2.726316 2.1421053 4.868421 4.8684211 4.868421 2.3368421 0 4.2842105-1.655263 4.7710526-3.894736h.0973684 37.0000004c.097368 0 .194736 0 .389473-.097369.097369 0 .097369-.097368.097369-.097368.097368 0 .097368-.097369.194737-.097369.097368-.097368.097368-.097368.097368-.194737 0 0 .097368-.097368.097368-.097368 0-.097368 0-.097368 0-.194737 0-.097368 0-.097368 0-.194737v-.097368c.097369.097368.097369 0 0-.097368m-42.7447364 3.310526c-1.6552632 0-2.9210527-1.26579-2.9210527-2.921053s1.2657895-2.921052 2.9210527-2.921052c1.6552631 0 2.9210526 1.265789 2.9210526 2.921052s-1.2657895 2.921053-2.9210526 2.921053"/><path d="m180.352632 36.1236842c.292105.7789474.973684 1.2657895 1.85 1.3631579.097368 0 .292105.0973684.389473.0973684.876316 0 1.655263-.4868421 2.044737-1.168421l3.602632-6.0368421 5.55 5.55c.876315.8763158 2.43421.8763158 3.310526 0l2.142105-2.1421053c.486842-.4868421.681579-1.0710526.681579-1.6552632 0-.5842105-.292105-1.168421-.681579-1.6552631l-5.55-5.55 5.939474-3.5052632c.778947-.3894737 1.168421-1.2657894 1.168421-2.2394737-.097368-.8763157-.584211-1.6552631-1.363158-1.9473684l-2.531579-1.0710526c.097369-.2921053.097369-.5842105.097369-.9736842 0-3.2131579-2.628948-5.74473686-5.744737-5.74473686-3.11579 0-5.744737 2.62894736-5.744737 5.74473686s2.628947 5.7447368 5.744737 5.7447368c2.142105 0 4.089473-1.168421 5.063158-3.018421l2.43421 1.0710526c.097369.0973684.194737.1947368.194737.2921053 0 .1947368-.097368.3894737-.194737.3894737l-7.010526 4.1868421c-.292105.1947368-.389474.3894736-.486842.6815789 0 .2921053.097368.5842105.292105.7789474l6.426316 6.4263158c.097368.0973684.097368.1947368.097368.2921052s0 .1947369-.097368.2921053l-2.142105 2.1421053c-.097369.0973684-.389474.0973684-.584211 0l-6.426316-6.4263158c-.194737-.1947369-.486842-.2921053-.778947-.2921053s-.584211.1947368-.681579.4868421l-4.284211 7.1078947c-.097368.0973685-.097368.1947369-.194736.1947369-.194737 0-.389474 0-.486843-.2921053l-11.976315-27.45789472c-.097369-.09736842 0-.29210526.097368-.4868421.097368-.09736842.292105-.09736842.486842-.09736842l10.028948 4.28421054c.486842.1947368 1.071052 0 1.265789-.4868421s0-1.07105265-.486842-1.26578949l-10.028947-4.28421053c-.876316-.38947369-1.947369-.19473684-2.531579.4868421-.681579.68157895-.876316 1.65526316-.486843 2.62894737zm10.807894-16.9421053c-2.142105 0-3.992105-1.7526315-3.992105-3.9921052s1.752632-3.9921053 3.992105-3.9921053c2.239474 0 3.992106 1.7526316 3.992106 3.9921053s-1.85 3.9921052-3.992106 3.9921052"/><path d="m183.078947 146.052632c-.389473.097368-.681579.486842-.681579.973684.097369 1.168421.292106 2.336842.778948 3.505263.194737.389474.58421.681579 1.071052.58421l1.655264-.292105c.292105.389474.486842.681579.876315 1.071053l-.681579 1.557895c-.194736.389473 0 .876315.292106 1.168421.973684.681579 2.044737 1.265789 3.213158 1.557894.389473.097369.876315-.097368 1.071052-.486842l.876316-1.460526h1.363158l.876316 1.460526c.194737.292106.486842.486842.876315.486842h.292106c1.168421-.292105 2.239473-.876315 3.213158-1.557894.389473-.292106.486842-.778948.292105-1.168421l-.681579-1.557895c.292105-.292105.58421-.681579.876316-1.071053l1.655263.292105c.486842.097369.876316-.194736 1.071053-.58421.486842-1.071053.778947-2.239474.778947-3.505263 0-.486842-.292105-.876316-.681579-.973684l-1.655263-.486843c-.097369-.486842-.194737-.876315-.292105-1.265789l1.265789-1.168421c.292105-.292105.389474-.778947.194737-1.168421-.584211-1.071053-1.26579-1.947369-2.239474-2.823684-.292105-.292106-.778947-.292106-1.168421-.097369l-1.460526.973684c-.389474-.194736-.778948-.389473-1.168421-.58421l-.097369-1.752632c0-.486842-.389473-.778947-.778947-.876315-1.168421-.194737-2.336842-.194737-3.505263 0-.389474.097368-.778948.486842-.778948.876315l-.097368 1.752632c-.389474.194737-.778947.389474-1.168421.58421l-1.460526-.973684c-.389474-.292105-.876316-.194737-1.168421.097369-.876316.778947-1.655264 1.752631-2.239474 2.823684-.194737.389474-.097369.876316.194737 1.168421l1.265789 1.168421c-.097368.389474-.194737.876316-.292105 1.265789zm2.823685 1.168421c.389473-.097369.681579-.486842.681579-.876316 0-.681579.194736-1.363158.486842-1.947369.194736-.389473.097368-.778947-.194737-1.071052l-1.168421-1.071053c.292105-.389474.58421-.778947.876316-1.071052l1.265789.876315c.292105.194737.778947.194737 1.168421 0 .584211-.389473 1.168421-.681579 1.85-.876315.389474-.097369.681579-.486843.681579-.876316l.097368-1.557895h1.363158l.097369 1.557895c0 .389473.292105.778947.681579.876316.681579.194736 1.265789.486842 1.85.876315.292105.194737.778947.292106 1.168421 0l1.265789-.876315c.292105.292105.584211.681578.876316 1.071052l-1.168421 1.071053c-.292105.292105-.389474.681579-.194737 1.071052.292105.584211.389474 1.26579.486842 1.947369 0 .389474.292105.778947.681579.876316l1.557895.486842c-.097369.486842-.194737.876316-.292105 1.363158l-1.557895-.194737c-.389474-.097369-.778947.097368-.973684.486842-.292106.58421-.778948 1.168421-1.26579 1.557895-.292105.292105-.389473.681579-.292105 1.071052l.58421 1.460527c-.389473.194736-.778947.389473-1.265789.58421l-.778947-1.363158c-.194737-.292105-.486842-.486842-.876316-.486842-.097369 0-.097369 0-.194737 0-.681579.097369-1.363158.097369-2.044737 0-.389474-.097368-.778947.097369-.973684.486842l-.778947 1.363158c-.389474-.194737-.876316-.389474-1.26579-.58421l.584211-1.460527c.194736-.389473 0-.778947-.292106-1.071052-.486842-.486842-.973684-.973685-1.265789-1.557895-.194737-.389474-.584211-.584211-.973684-.486842l-1.557895.194737c-.097368-.389474-.194737-.876316-.292105-1.363158z"/><path d="m192.231579 150.239474c2.044737 0 3.602632-1.655263 3.602632-3.602632 0-1.947368-1.655264-3.602631-3.602632-3.602631s-3.602632 1.655263-3.602632 3.602631c0 1.947369 1.557895 3.602632 3.602632 3.602632m0-5.355263c.973684 0 1.655263.778947 1.655263 1.655263 0 .876315-.778947 1.655263-1.655263 1.655263s-1.655263-.778948-1.655263-1.655263c0-.876316.681579-1.655263 1.655263-1.655263"/><path d="m177.821053 82.0815789c.292105.0973685.58421.0973685.778947 0 .292105-.0973684.486842-.2921052.486842-.5842105l2.921053-9.7368421c.097368-.3894737 0-.7789474-.389474-1.0710526-.973684-.7789474-1.557895-1.9473684-1.557895-3.1157895 0-2.1421053 1.752632-3.8947368 3.894737-3.8947368s3.894737 1.7526315 3.894737 3.8947368c0 1.1684211-.584211 2.3368421-1.557895 3.1157895-.292105.2921052-.486842.6815789-.389473 1.0710526l2.921052 9.7368421c.097369.2921053.292105.4868421.486842.5842105.097369.0973685.292106.0973685.389474.0973685s.292105 0 .389474-.0973685c5.55-2.4342105 9.347368-8.2763157 9.347368-14.5078947 0-8.8605263-7.302631-16.5526316-15.578947-16.5526316s-15.578948 7.6921053-15.578948 16.5526316c.194737 6.231579 3.992106 12.0736842 9.542106 14.5078947m6.231579-29.1131578c7.302631 0 13.631579 6.8157894 13.631579 14.6052631 0 5.0631579-2.823685 9.8342105-7.205264 12.2684211l-2.43421-7.9842106c1.168421-1.0710526 1.85-2.6289473 1.85-4.1868421 0-3.2131579-2.628948-5.8421052-5.842105-5.8421052-3.213158 0-5.842106 2.6289473-5.842106 5.8421052 0 1.5578948.681579 3.1157895 1.85 4.1868421l-2.43421 8.081579c-4.381579-2.3368421-7.205263-7.1078948-7.205263-12.2684211 0-7.8868421 6.328947-14.7026315 13.631579-14.7026315"/></g></svg>