<svg height="481" viewBox="0 0 272 481" width="272" xmlns="http://www.w3.org/2000/svg"><g><path d="m5.84210526 355.005263c2.72631579 0 4.86842104-2.142105 4.86842104-4.868421 0-2.336842-1.65526314-4.28421-3.89473683-4.771053v-.097368-4.868421c0-2.726316 2.14210527-4.868421 4.86842103-4.868421h11.781579c-1.2657895 1.265789-2.0447369 3.018421-2.0447369 4.868421v4.868421.097368c-2.2394737.486843-3.8947368 2.434211-3.8947368 4.771053 0 2.726316 2.1421053 4.868421 4.868421 4.868421 2.7263158 0 4.8684211-2.142105 4.8684211-4.868421 0-2.336842-1.6552632-4.28421-3.8947368-4.771053v-.097368-4.868421c0-2.726316 2.1421052-4.868421 4.868421-4.868421h5.9394737c.4868421 2.239474 2.4342105 3.894737 4.7710526 3.894737 2.7263158 0 4.8684211-2.142105 4.8684211-4.868421s-2.1421053-4.868421-4.8684211-4.868421c-2.3368421 0-4.2842105 1.655263-4.7710526 3.894737h-22.4921053c-3.79736839 0-6.81578945 3.115789-6.81578945 6.815789v4.868421.097368c-2.23947368.486843-3.89473684 2.434211-3.89473684 4.771053 0 2.726316 2.14210526 4.868421 4.86842105 4.868421m19.47368424-4.868421c0 1.655263-1.2657895 2.921053-2.9210527 2.921053-1.6552631 0-2.9210526-1.26579-2.9210526-2.921053s1.2657895-2.921053 2.9210526-2.921053c1.6552632 0 2.9210527 1.26579 2.9210527 2.921053m13.6315789-18.5c1.6552632 0 2.9210527 1.26579 2.9210527 2.921053s-1.2657895 2.921052-2.9210527 2.921052c-1.6552631 0-2.9210526-1.265789-2.9210526-2.921052s1.2657895-2.921053 2.9210526-2.921053m-33.10526314 15.578947c1.65526316 0 2.92105263 1.26579 2.92105263 2.921053s-1.26578947 2.921053-2.92105263 2.921053c-1.65526315 0-2.92105263-1.26579-2.92105263-2.921053s1.26578948-2.921053 2.92105263-2.921053"/><path d="m5.84210526 428.031579v-7.886842c3.31052632-.486842 5.84210524-3.310526 5.84210524-6.718421 0-3.797369-3.01842103-6.81579-6.81578945-6.81579-1.46052631 0-2.82368421.486842-3.89473684 1.26579v2.726316c.87631579-1.168421 2.33684211-1.947369 3.89473684-1.947369 2.72631579 0 4.86842106 2.142105 4.86842106 4.868421s-2.14210527 4.868421-4.86842106 4.868421c-1.55789473 0-3.01842105-.778947-3.89473684-1.947368v2.628947c.87631579.584211 1.85.973684 2.92105263 1.168421v6.913158h-2.92105263v1.947369h3.89473684c.58421053-.097369.97368421-.486843.97368421-1.071053"/><path d="m89.5789474 376.426316c2.3368421 0 4.2842105-1.655263 4.7710526-3.894737h34.857895c1.363158 0 2.726316-.292105 3.894737-.778947 1.168421-.486843 2.239473-1.26579 3.213157-2.142106.876316-.876315 1.655264-2.044737 2.142106-3.213158.486842-1.265789.778947-2.628947.778947-3.992105 0-1.460526-.292105-2.726316-.778947-3.992105-.486842-1.26579-1.26579-2.336842-2.142106-3.213158-.876315-.876316-1.947368-1.655263-3.213157-2.239474-1.26579-.58421-2.531579-.778947-3.894737-.778947-.194737 0-.389474 0-.486842 0-.097369 0-.097369 0-.194737 0-.097369 0-.097369 0-.194737 0-.389474-.973684-.778947-1.947368-1.363158-2.726316-.681579-.973684-1.557895-1.947368-2.43421-2.726316-.973685-.778947-2.044737-1.363158-3.11579-1.752631-2.531579-.973684-5.647368-.778948-8.081579.292105-1.363158.584211-2.531579 1.460526-3.602631 2.531579-.876316.973684-1.655264 2.142105-2.239474 3.310526-.097369 0-.194737 0-.292105 0-2.726316 0-4.868421 2.142106-4.868421 4.868421 0 .778948.194736 1.460527.486842 2.044737-.778948.389474-1.460527.876316-2.142106 1.460527-1.5578944 1.460526-2.2394733 3.213157-2.2394733 5.257894 0 .584211.3894737.973684.9736842.973684s.9736841-.389473.9736841-.973684c0-1.557894.584211-2.726316 1.655263-3.797368.486842-.486842 1.071053-.876316 1.655263-1.071053.097369 0 .194737-.097368.292106-.194737.876315.778948 1.947368 1.26579 3.213158 1.26579 2.726315 0 4.868421-2.142105 4.868421-4.868421 0-1.85-1.071053-3.505263-2.628948-4.284211.486842-.973684 1.071053-1.752631 1.752632-2.531579.876316-.876315 1.85-1.557894 3.018421-2.142105 2.044737-.973684 4.478947-1.071053 6.621053-.292105.973684.389473 1.85.876316 2.628947 1.460526.778947.584211 1.460526 1.363158 2.044737 2.239474.389473.58421.778947 1.363158.973684 2.044737-3.11579.876315-5.257895 3.213158-6.134211 6.426315-2.43421.292106-4.28421 2.336843-4.28421 4.771053 0 2.726316 2.142105 4.868421 4.868421 4.868421s4.868421-2.142105 4.868421-4.868421c0-2.239474-1.460526-4.089474-3.505263-4.673684.876316-2.726316 2.823684-4.478948 5.647368-4.96579h.097369c.194737 0 .389473-.097368.681579-.097368h.681579c1.168421 0 2.142105.194737 3.115789.681579.973684.389474 1.85 1.071053 2.531579 1.752631.778947.778948 1.363158 1.655264 1.752632 2.628948.389473.973684.681579 2.044737.681579 3.213158s-.194737 2.239473-.681579 3.213158c-.389474.973684-.973685 1.947368-1.752632 2.628947-.681579.778947-1.557895 1.363158-2.531579 1.752632-.973684.389473-2.044737.681579-3.115789.681579h-35.052632c-.4868421-2.239474-2.4342105-3.894737-4.7710526-3.894737-2.7263158 0-4.8684211 2.142105-4.8684211 4.868421s2.1421053 4.868421 4.8684211 4.868421m20.4473686-20.447369c0 1.655264-1.26579 2.921053-2.921053 2.921053s-2.921052-1.265789-2.921052-2.921053c0-1.655263 1.265789-2.921052 2.921052-2.921052s2.921053 1.265789 2.921053 2.921052m13.631579 7.789474c0 1.655263-1.26579 2.921053-2.921053 2.921053s-2.921053-1.26579-2.921053-2.921053 1.26579-2.921053 2.921053-2.921053 2.921053 1.26579 2.921053 2.921053m-34.0789476 4.868421c1.6552631 0 2.9210526 1.26579 2.9210526 2.921053s-1.2657895 2.921052-2.9210526 2.921052c-1.6552632 0-2.9210527-1.265789-2.9210527-2.921052s1.2657895-2.921053 2.9210527-2.921053"/><path d="m107.105263 475.742105h76.044737c.486842 2.239474 2.434211 3.894737 4.771053 3.894737 2.726315 0 4.868421-2.142105 4.868421-4.868421s-2.142106-4.868421-4.868421-4.868421c-2.336842 0-4.284211 1.655263-4.771053 3.894737h-75.071053v-21.518421c2.239474-.486842 3.894737-2.434211 3.894737-4.771053 0-.292105 0-.681579-.097368-.973684 1.265789-.876316 4.478947-3.7 13.923684-13.242105l17.331579 14.994737c.194737.194736.389474.194736.681579.194736s.486842-.097368.681579-.292105l7.886842-8.665789c.486842.194736.973684.292105 1.557895.292105 2.726315 0 4.868421-2.142105 4.868421-4.868421s-2.142106-4.868421-4.868421-4.868421c-2.726316 0-4.868421 2.142105-4.868421 4.868421 0 1.460526.681579 2.726316 1.655263 3.602631l-7.010527 7.692106-17.23421-14.994737c-.389474-.292105-.973684-.292105-1.363158.097368-5.647368 5.744737-12.073684 12.073684-13.923684 13.534211-.681579-.973684-1.752632-1.752632-3.018421-2.044737v-28.334211c0-.58421-.389474-.973684-.973684-.973684-.584211 0-.973685.389474-.973685.973684v28.334211c-2.239473.486842-3.894736 2.43421-3.894736 4.771053 0 2.336842 1.655263 4.28421 3.894736 4.771052v22.492105c-.097368.486843.292106.876316.876316.876316m80.81579-3.894737c1.655263 0 2.921052 1.26579 2.921052 2.921053s-1.265789 2.921053-2.921052 2.921053c-1.655264 0-2.921053-1.26579-2.921053-2.921053s1.265789-2.921053 2.921053-2.921053m-34.078948-39.921052c1.655263 0 2.921053 1.265789 2.921053 2.921052 0 1.655264-1.26579 2.921053-2.921053 2.921053s-2.921052-1.265789-2.921052-2.921053c0-1.655263 1.265789-2.921052 2.921052-2.921052m-49.657894 15.578947c0-1.655263 1.265789-2.921052 2.921052-2.921052s2.921053 1.265789 2.921053 2.921052-1.26579 2.921053-2.921053 2.921053-2.921052-1.26579-2.921052-2.921053"/><path d="m73.0263158 466.005263c2.7263158 0 4.868421-2.142105 4.868421-4.868421s-2.1421052-4.868421-4.868421-4.868421c-2.3368421 0-4.2842105 1.655263-4.7710526 3.894737h-67.28157899v1.947368h67.28157899c.4868421 2.239474 2.4342105 3.894737 4.7710526 3.894737m0-7.789474c1.6552631 0 2.9210526 1.26579 2.9210526 2.921053s-1.2657895 2.921053-2.9210526 2.921053c-1.6552632 0-2.9210526-1.26579-2.9210526-2.921053s1.2657894-2.921053 2.9210526-2.921053"/><path d="m29.3078947 475.742105c.4868421 2.239474 2.4342106 3.894737 4.7710527 3.894737 2.7263158 0 4.868421-2.142105 4.868421-4.868421s-2.1421052-4.868421-4.868421-4.868421c-2.3368421 0-4.2842106 1.655263-4.7710527 3.894737h-.0973684-28.23684209v1.947368h28.33421049c-.0973684 0 0 0 0 0m4.7710527-3.894737c1.6552631 0 2.9210526 1.26579 2.9210526 2.921053s-1.2657895 2.921053-2.9210526 2.921053c-1.6552632 0-2.9210527-1.26579-2.9210527-2.921053s1.2657895-2.921053 2.9210527-2.921053"/><path d="m197.365789 426.181579.778948-14.021053c2.823684-2.336842 5.160526-4.478947 7.205263-6.523684 9.25-9.25 12.852632-17.915789 12.852632-30.865789 0-1.168421-.973685-2.239474-2.239474-2.239474-10.51579 0-17.331579 1.947368-24.147369 7.010526-1.071052-.681579-2.336842-1.168421-3.797368-1.168421-3.797368 0-6.815789 3.018421-6.815789 6.81579 0 3.797368 3.018421 6.815789 6.815789 6.815789s6.81579-3.018421 6.81579-6.815789c0-1.655263-.584211-3.11579-1.557895-4.284211 6.328947-4.576316 12.755263-6.426316 22.686842-6.426316.194737 0 .292105.097369.292105.292106 0 6.523684-.973684 11.878947-3.115789 16.844736l-3.407895-2.726315c.486842-.778948.778947-1.655263.778947-2.628948 0-2.726315-2.142105-4.868421-4.868421-4.868421s-4.868421 2.142106-4.868421 4.868421c0 2.726316 2.142105 4.868421 4.868421 4.868421.973684 0 1.947369-.292105 2.726316-.876315l3.992105 3.115789c-1.947368 3.7-4.673684 7.302632-8.276315 10.905263-2.044737 2.044737-4.478948 4.186842-7.4 6.718421-.194737.194737-.292106.389474-.389474.681579l-.778948 14.410527c0 .097368-.097368.194736-.097368.292105l-14.702632 8.568421s0 0-.097368 0-.194737-.097369-.194737-.097369l-2.43421-2.43421c-.097369-.097369-.097369-.194737-.097369-.292105l3.213158-10.51579c.097369-.389474 0-.681579-.194737-.973684l-10.710526-10.710526c-.292105-.292106-.584211-.389474-.973684-.194737l-10.613158 3.213158c-.097369 0-.194737 0-.194737-.097369l-2.43421-2.43421c-.097369-.097369-.097369-.292106-.097369-.389474l8.568421-14.605263c.097369-.097369.194737-.194737.194737-.194737l14.507895-.778947c.58421 0 .973684-.486842.876316-1.071053 0-.58421-.486843-.973684-1.071053-.876316l-14.507895.778948c-.681579.097368-1.363158.486842-1.752631 1.071052l-8.568421 14.702632c-.486843.778947-.389474 1.947368.389473 2.628947l2.434211 2.434211c.389473.389473.973684.58421 1.557894.58421.194737 0 .389474 0 .584211-.097368l9.931579-3.11579 9.931579 9.931579-3.11579 10.028948c-.194736.778947 0 1.557894.584211 2.142105l2.531579 2.531579c.486842.389474.973684.58421 1.557895.58421.389473 0 .778947-.097368 1.071052-.292105l14.702632-8.568421c.58421-.292105.973684-.973684 1.071052-1.655263m-9.444736-36.123684c-2.726316 0-4.868421-2.142106-4.868421-4.868421 0-2.726316 2.142105-4.868421 4.868421-4.868421 2.726315 0 4.868421 2.142105 4.868421 4.868421 0 2.726315-2.142106 4.868421-4.868421 4.868421m17.526315-.973684c-1.655263 0-2.921052-1.26579-2.921052-2.921053s1.265789-2.921053 2.921052-2.921053c1.655264 0 2.921053 1.26579 2.921053 2.921053s-1.265789 2.921053-2.921053 2.921053"/><path d="m231.152632 386.65c.58421 0 .973684.194737 1.460526.389474.389474.194737.681579.292105.973684-.194737l.292105-.584211c.194737-.389473.194737-.681579-.194736-.973684-.389474-.292105-1.363158-.681579-2.434211-.681579-1.85 0-3.213158 1.071053-3.213158 2.726316 0 2.823684 3.992105 2.628947 3.992105 3.894737 0 .389473-.292105.58421-.973684.58421-.778947 0-1.363158-.389473-1.655263-.58421-.389474-.194737-.681579-.194737-.973684.194737l-.389474.58421c-.292105.486842-.097368.778948.097369.973684.486842.389474 1.655263.876316 2.921052.876316 2.044737 0 3.213158-1.265789 3.213158-2.823684 0-2.823684-3.992105-2.531579-3.992105-3.894737-.097369-.194737.194737-.486842.876316-.486842"/><path d="m236.021053 385.481579v7.692105c0 .486842.194736.681579.681579.681579h.778947c.486842 0 .681579-.194737.681579-.681579v-2.726316h2.044737c.486842 0 .681579-.194736.681579-.681579v-.486842c0-.486842-.194737-.681579-.681579-.681579h-2.044737v-1.947368h2.628947c.486842 0 .681579-.194737.681579-.681579v-.486842c0-.486842-.194737-.681579-.681579-.681579h-4.186842c-.389474 0-.58421.194737-.58421.681579"/><path d="m87.6315789 440.786842-11.1973684-40.213158c1.6552632-.486842 2.9210527-1.752631 3.3105263-3.407895l38.0710522 3.602632h.097369c.194737 0 .486842-.097368.681579-.292105s.292105-.486842.292105-.681579v-15.578948c0-.58421-.389474-.973684-.973684-.973684h-50.7289475-.0973684c-.3894737-3.018421-2.8236842-5.355263-5.7447368-5.744737v-.097368-6.815789h5.8421052.0973684c.4868422 2.239473 2.4342106 3.894736 4.7710527 3.894736 2.7263158 0 4.868421-2.142105 4.868421-4.868421 0-2.239473-1.5578947-4.186842-3.6026315-4.673684l3.6026315-38.071053c0-.292105-.0973684-.58421-.2921052-.778947-.1947369-.194737-.4868421-.292105-.681579-.292105h-15.5789473c-.5842106 0-.9736843.389474-.9736843.973684v34.955263l-8.2763157-3.7c-.2921053-.097368-.5842106-.097368-.8763158 0l-8.8605264 4.868421c-.4868421.292106-.6815789.876316-.3894736 1.363158.1947368.292105.4868421.486842.8763158.486842.1947368 0 .2921052 0 .4868421-.097368l8.3736842-4.673684 8.2763158 3.7c.0973684.097368.2921052.097368.3894736.097368v13.631579.097368c-3.018421.389474-5.3552631 2.823685-5.7447368 5.744737h-.0973684-6.8157895v-5.842105-.097368c2.2394737-.486843 3.8947368-2.434211 3.8947368-4.771053 0-2.726316-2.1421052-4.868421-4.868421-4.868421-2.2394737 0-4.1868421 1.557895-4.6736842 3.602631l-38.07105265-3.602631c-.29210526 0-.58421052.097368-.77894737.292105-.19473684.194737-.29210526.486842-.29210526.681579v15.578947c0 .584211.38947369.973685.97368421.973685h50.63157897.0973684c.3894737 3.018421 2.8236842 5.355263 5.7447368 5.744737v.097368 6.815789h-5.8421052-.0973684c-.4868421-2.239473-2.4342106-3.894736-4.7710527-3.894736-2.7263158 0-4.868421 2.142105-4.868421 4.868421 0 2.239473 1.5578947 4.186842 3.6026316 4.673684l-3.6026316 38.071052c0 .292106.0973684.584211.2921052.778948.1947369.194737.4868421.292105.681579.292105h15.5789474c.5842105 0 .9736842-.389474.9736842-.973684v-50.631579-.097368c3.018421-.389474 5.3552631-2.823685 5.7447368-5.744737h.0973684 6.8157895v5.842105.097368c-2.2394737.486842-3.8947368 2.434211-3.8947368 4.771053 0 2.531579 1.9473684 4.576316 4.3815789 4.771053v.292105l11.0026316 39.43421-27.9447369 9.931579-32.9105263-9.25c.3894737-.681579.681579-1.557894.681579-2.43421 0-1.947369-1.1684211-3.602632-2.7263158-4.381579l11.4894737-41.96579c.0973684-.486842-.1947369-1.071052-.681579-1.168421-.4868421-.097368-1.0710526.194737-1.168421.681579l-11.4894737 42.160527c-.0973684 0-.1947369 0-.1947369 0-2.7263157 0-4.868421 2.142105-4.868421 4.868421 0 2.726315 2.1421053 4.868421 4.868421 4.868421.9736843 0 1.9473685-.292106 2.7263158-.876316l34.0789474 9.542105h.2921053c.0973684 0 .1947368 0 .2921052-.097368l29.1131579-10.321053c.3894737-.194737.681579-.681579.5842105-1.168421m-12.6578947-71.176316c0 1.655263-1.2657895 2.921053-2.9210526 2.921053-1.6552632 0-2.9210527-1.26579-2.9210527-2.921053s1.2657895-2.921052 2.9210527-2.921052c1.6552631 0 2.9210526 1.265789 2.9210526 2.921052m-13.6315789-10.710526h4.868421c.5842105 0 .9736842-.389474.9736842-.973684 0-.584211-.3894737-.973684-.9736842-.973684h-4.868421v-7.789474h4.868421c.5842105 0 .9736842-.389474.9736842-.973684 0-.584211-.3894737-.973685-.9736842-.973685h-4.868421v-7.789473h4.868421c.5842105 0 .9736842-.389474.9736842-.973684 0-.584211-.3894737-.973685-.9736842-.973685h-4.868421v-9.736842h13.5342105l-3.5052632 37.097369c-2.0447368.292105-3.6026315 1.85-4.0894737 3.797368h-.0973684-5.8421052zm-16.5526316 18.5v5.842105h-9.7368421v-4.868421c0-.58421-.3894737-.973684-.9736842-.973684-.5842106 0-.9736842.389474-.9736842.973684v4.868421h-7.7894737v-4.868421c0-.58421-.3894737-.973684-.9736842-.973684-.5842106 0-.9736842.389474-.9736842.973684v4.868421h-7.7894737v-4.868421c0-.58421-.3894737-.973684-.9736842-.973684-.5842106 0-.9736843.389474-.9736843.973684v4.868421h-9.73684206v-13.53421l37.09736846 3.505263c.2921052 2.044737 1.85 3.7 3.7973684 4.186842m-1.9473684-4.868421c0-1.655263 1.2657894-2.921053 2.9210526-2.921053s2.9210526 1.26579 2.9210526 2.921053-1.2657894 2.921053-2.9210526 2.921053-2.9210526-1.26579-2.9210526-2.921053m2.9210526 26.289474c0-1.655264 1.2657895-2.921053 2.9210526-2.921053 1.6552632 0 2.9210527 1.265789 2.9210527 2.921053 0 1.655263-1.2657895 2.921052-2.9210527 2.921052-1.6552631 0-2.9210526-1.265789-2.9210526-2.921052m13.6315789 10.710526h-4.868421c-.5842105 0-.9736842.389474-.9736842.973684 0 .584211.3894737.973684.9736842.973684h4.868421v7.789474h-4.868421c-.5842105 0-.9736842.389474-.9736842.973684 0 .584211.3894737.973684.9736842.973684h4.868421v7.789474h-4.868421c-.5842105 0-.9736842.389474-.9736842.973684 0 .584211.3894737.973685.9736842.973685h4.868421v9.736842h-13.5342105l3.5052632-37.097369c2.0447368-.292105 3.6026316-1.85 4.0894737-3.797368h.0973684 5.8421052zm.9736843-20.447368c-2.7263158 0-4.8684211-2.142106-4.8684211-4.868422 0-2.726315 2.1421053-4.868421 4.8684211-4.868421 2.7263157 0 4.868421 2.142106 4.868421 4.868421 0 2.726316-2.1421053 4.868422-4.868421 4.868422m15.5789473 1.947368v-5.842105h9.7368421v4.868421c0 .58421.3894737.973684.9736842.973684.5842106 0 .9736842-.389474.9736842-.973684v-4.868421h7.7894737v4.868421c0 .58421.3894737.973684.9736842.973684.5842106 0 .9736843-.389474.9736843-.973684v-4.868421h7.7894739v4.868421c0 .58421.389473.973684.973684.973684.58421 0 .973684-.389474.973684-.973684v-4.868421h9.736842v13.53421l-37.0973682-3.505263c-.2921052-2.044737-1.85-3.7-3.7973684-4.186842m-3.8947368 4.868421c0-1.655263 1.2657895-2.921053 2.9210526-2.921053 1.6552632 0 2.9210526 1.26579 2.9210526 2.921053s-1.2657894 2.921053-2.9210526 2.921053c-1.6552631 0-2.9210526-1.26579-2.9210526-2.921053m-51.6052632 45.763158c-1.6552631 0-2.9210526-1.26579-2.9210526-2.921053s1.2657895-2.921052 2.9210526-2.921052c1.6552632 0 2.9210527 1.265789 2.9210527 2.921052s-1.2657895 2.921053-2.9210527 2.921053"/><path d="m87.5342105 334.557895-2.2394737-3.797369c-.1947368-.292105-.4868421-.486842-.8763157-.486842h-.9736843c-.4868421 0-.6815789.194737-.6815789.681579v7.692105c0 .486843.1947368.681579.6815789.681579h.7789474c.4868421 0 .681579-.194736.681579-.681579v-3.505263c0-.58421-.0973685-1.557894-.0973685-1.557894s.3894737.973684.7789474 1.557894l2.2394737 3.7c.1947368.292106.4868421.486842.7789474.486842h.9736842c.4868421 0 .6815789-.194736.6815789-.681579v-7.594736c0-.486843-.1947368-.681579-.6815789-.681579h-.7789474c-.4868421 0-.6815789.194736-.6815789.681579v3.505263c0 .58421.0973684 1.557894.0973684 1.557894.0973684 0-.3894737-.876315-.681579-1.557894"/><path d="m94.1552632 330.371053h-.7789474c-.4868421 0-.681579.194736-.681579.681579v7.692105c0 .486842.1947369.681579.681579.681579h4.4789474c.4868421 0 .6815789-.194737.6815789-.681579v-.486842c0-.486842-.1947368-.681579-.6815789-.681579h-3.0184211v-6.523684c0-.389474-.1947368-.681579-.6815789-.681579"/><path d="m99.9973684 331.052632v7.692105c0 .486842.1947366.681579.6815786.681579h2.531579c2.823685 0 4.673685-1.655263 4.673685-4.576316s-1.85-4.478947-4.673685-4.478947h-2.531579c-.486842 0-.6815786.292105-.6815786.681579m2.2394736 1.265789h.876316c1.460526 0 2.43421.876316 2.43421 2.628947 0 1.752632-.973684 2.628948-2.43421 2.628948h-.876316z"/><path d="m222.973684 326.768421c-.58421 0-.973684.389474-.973684.973684v3.894737h-3.894737c-.58421 0-.973684.389474-.973684.973684 0 .584211.389474.973685.973684.973685h3.894737v3.894736c0 .584211.389474.973685.973684.973685.584211 0 .973684-.389474.973684-.973685v-3.894736h3.894737c.584211 0 .973684-.389474.973684-.973685 0-.58421-.389473-.973684-.973684-.973684h-3.894737v-3.894737c0-.58421-.389473-.973684-.973684-.973684"/><path d="m203.5 360.847368c0 2.726316 2.142105 4.868421 4.868421 4.868421s4.868421-2.142105 4.868421-4.868421c0-2.336842-1.655263-4.28421-3.894737-4.771052v-.681579-.097369c0-2.531579 2.044737-4.673684 4.673684-4.673684h3.602632.194737c3.310526-.292105 5.939474-3.115789 5.939474-6.523684 0-.584211-.389474-.973684-.973685-.973684-.58421 0-.973684.389473-.973684.973684 0 2.531579-2.044737 4.673684-4.673684 4.673684h-3.11579c-1.85 0-3.505263.778948-4.673684 1.947369v-16.260527c2.239474-.486842 3.894737-2.43421 3.894737-4.771052 0-2.726316-2.142105-4.868421-4.868421-4.868421s-4.868421 2.142105-4.868421 4.868421c0 2.336842 1.655263 4.28421 3.894737 4.771052v21.61579c-2.239474.486842-3.894737 2.43421-3.894737 4.771052m1.947368-31.157894c0-1.655263 1.26579-2.921053 2.921053-2.921053s2.921053 1.26579 2.921053 2.921053-1.26579 2.921052-2.921053 2.921052-2.921053-1.265789-2.921053-2.921052m2.921053 28.236842c1.655263 0 2.921053 1.265789 2.921053 2.921052 0 1.655264-1.26579 2.921053-2.921053 2.921053s-2.921053-1.265789-2.921053-2.921053c0-1.655263 1.26579-2.921052 2.921053-2.921052"/><path d="m136.315789 393.952632c.584211 0 .973685-.389474.973685-.973685v-2.921052h2.921052c.584211 0 .973685-.389474.973685-.973684 0-.584211-.389474-.973685-.973685-.973685h-2.921052v-2.921052c0-.584211-.389474-.973685-.973685-.973685-.58421 0-.973684.389474-.973684.973685v2.921052h-2.921052c-.584211 0-.973685.389474-.973685.973685 0 .58421.389474.973684.973685.973684h2.921052v2.921052c0 .584211.389474.973685.973684.973685"/><path d="m145.078947 395.9c.584211 0 .973685-.389474.973685-.973684v-13.631579c0-.389474-.194737-.778948-.584211-.876316-.389474-.194737-.778947-.097368-1.071053.194737l-2.921052 2.823684c-.389474.389474-.389474.973684 0 1.363158.389473.389474.973684.389474 1.363158 0l1.265789-1.265789v11.294736c0 .681579.389474 1.071053.973684 1.071053"/><path d="m271.657895 442.344737c0-3.11579-2.531579-5.55-5.55-5.55h-26.678948c-.486842-2.239474-2.43421-3.894737-4.771052-3.894737-2.726316 0-4.868421 2.142105-4.868421 4.868421s2.142105 4.868421 4.868421 4.868421c2.336842 0 4.28421-1.655263 4.771052-3.894737h26.678948c2.044737 0 3.602631 1.655263 3.602631 3.602632v6.328947c0 2.044737-1.655263 3.602632-3.602631 3.602632h-49.171053c-2.044737 0-3.602631-1.655263-3.602631-3.602632v-6.328947c0-2.044737 1.655263-3.602632 3.602631-3.602632h8.957895c.58421 0 .973684-.389473.973684-.973684 0-.58421-.389474-.973684-.973684-.973684h-8.957895c-3.115789 0-5.55 2.531579-5.55 5.55v6.328947c0 3.11579 2.531579 5.55 5.55 5.55h49.171053c3.115789 0 5.55-2.531579 5.55-5.55zm-37-1.655263c-1.655263 0-2.921053-1.26579-2.921053-2.921053s1.26579-2.921053 2.921053-2.921053 2.921052 1.26579 2.921052 2.921053-1.265789 2.921053-2.921052 2.921053"/><path d="m219.078947 445.557895c0 .58421.389474.973684.973685.973684h34.176315c.486842 2.239474 2.434211 3.894737 4.771053 3.894737 2.726316 0 4.868421-2.142105 4.868421-4.868421s-2.142105-4.868421-4.868421-4.868421c-2.336842 0-4.284211 1.655263-4.771053 3.894737h-34.176315c-.584211 0-.973685.389473-.973685.973684m39.921053-2.921053c1.655263 0 2.921053 1.26579 2.921053 2.921053s-1.26579 2.921052-2.921053 2.921052-2.921053-1.265789-2.921053-2.921052 1.26579-2.921053 2.921053-2.921053"/><path d="m234.657895 480.610526c2.336842 0 4.28421-1.655263 4.771052-3.894737h26.678948c3.115789 0 5.55-2.531578 5.55-5.55v-6.328947c0-3.115789-2.531579-5.55-5.55-5.55h-49.171053c-3.115789 0-5.55 2.531579-5.55 5.55v6.328947c0 3.11579 2.531579 5.55 5.55 5.55h8.957895c.58421 0 .973684-.389473.973684-.973684 0-.58421-.389474-.973684-.973684-.973684h-8.957895c-2.044737 0-3.602631-1.655263-3.602631-3.602632v-6.328947c0-2.044737 1.655263-3.602631 3.602631-3.602631h49.171053c2.044737 0 3.602631 1.655263 3.602631 3.602631v6.328947c0 2.044737-1.655263 3.602632-3.602631 3.602632h-26.678948c-.486842-2.239474-2.43421-3.894737-4.771052-3.894737-2.726316 0-4.868421 2.142105-4.868421 4.868421s2.142105 4.868421 4.868421 4.868421m0-7.789473c1.655263 0 2.921052 1.265789 2.921052 2.921052s-1.265789 2.921053-2.921052 2.921053-2.921053-1.26579-2.921053-2.921053 1.26579-2.921052 2.921053-2.921052"/><path d="m259 472.821053c2.726316 0 4.868421-2.142106 4.868421-4.868421 0-2.726316-2.142105-4.868421-4.868421-4.868421-2.336842 0-4.284211 1.655263-4.771053 3.894736h-34.176315c-.584211 0-.973685.389474-.973685.973685 0 .58421.389474.973684.973685.973684h34.176315c.486842 2.239473 2.434211 3.894737 4.771053 3.894737m0-7.789474c1.655263 0 2.921053 1.265789 2.921053 2.921053 0 1.655263-1.26579 2.921052-2.921053 2.921052s-2.921053-1.265789-2.921053-2.921052c0-1.655264 1.26579-2.921053 2.921053-2.921053"/><path d="m149.071053 356.271053 18.792105 14.118421c.194737.097368.389474.194737.58421.194737.194737 0 .389474-.097369.584211-.194737l18.889474-14.118421c.876315-.681579 1.168421-1.752632.876315-2.823685l-6.523684-20.642105c-.194737-.681579-.876316-1.168421-1.655263-1.168421s-1.363158.486842-1.655263 1.071053l-3.7 8.763158c-.194737.486842 0 1.071052.486842 1.265789s1.071053 0 1.265789-.486842l3.505264-8.276316 6.328947 20.057895c.097368.194737 0 .486842-.194737.681579l-18.207895 13.728947-18.207894-13.631579c-.194737-.097368-.292106-.389473-.194737-.681579l.097368-.194736c.292106.097368.584211.097368.876316.097368 2.726316 0 4.868421-2.142105 4.868421-4.868421 0-2.044737-1.265789-3.797369-3.018421-4.478947l3.407895-10.51579 4.089473 13.047368c.097369.389474.486843.681579.973685.681579h18.597368c.584211 0 .973684-.389473.973684-.973684 0-.58421-.389473-.973684-.973684-.973684h-17.915789l-4.089474-13.047368c-.194737-.681579-.876316-1.168421-1.655263-1.168421-.778948 0-1.363158.486842-1.655263 1.168421l-3.7 11.489473c-2.628948 0-4.771053 2.239474-4.771053 4.868421 0 1.655263.876316 3.213158 2.239474 4.089474l-.097369.292105c-.486842.876316-.097368 2.044737.778948 2.628948m-1.071053-7.107895c0-1.655263 1.265789-2.921053 2.921053-2.921053 1.655263 0 2.921052 1.26579 2.921052 2.921053s-1.265789 2.921053-2.921052 2.921053c-1.655264 0-2.921053-1.26579-2.921053-2.921053"/><path d="m180.521053 460.942105c.486842.097369.876315-.194737 1.071052-.58421.486842-1.071053.778948-2.239474.778948-3.505263 0-.486843-.292106-.876316-.681579-.973685l-1.655263-.486842c-.097369-.486842-.194737-.876316-.292106-1.265789l1.26579-1.168421c.292105-.292106.389473-.778948.194737-1.168421-.584211-1.071053-1.26579-1.947369-2.239474-2.823685-.292105-.292105-.778947-.292105-1.168421-.097368l-1.460526.973684c-.389474-.194737-.778948-.389473-1.168422-.58421l-.097368-1.752632c0-.486842-.389474-.778947-.778947-.876316-1.168421-.194736-2.336842-.194736-3.505263 0-.389474.097369-.778948.486842-.778948.876316l-.097368 1.752632c-.389474.194737-.778948.389473-1.168421.58421l-1.460527-.973684c-.389473-.292105-.876315-.194737-1.168421.097368-.876315.778948-1.655263 1.752632-2.239473 2.823685-.194737.389473-.097369.876315.194736 1.168421l1.26579 1.168421c-.097368.389473-.194737.876316-.292105 1.265789l-1.655263.486842c-.389474.097369-.681579.486842-.681579.973685.097368 1.168421.292105 2.336842.778947 3.505263.194737.389473.58421.681579 1.071053.58421l1.655263-.292105c.292105.389474.486842.681579.876316 1.071053l-.681579 1.557894c-.194737.389474 0 .876316.292105 1.168421.973684.681579 2.044737 1.26579 3.213158 1.557895.389473.097369.876316-.097368 1.071052-.486842l.876316-1.460526h1.363158l.876316 1.460526c.194737.292105.486842.486842.876316.486842h.292105c1.168421-.292105 2.239474-.876316 3.213158-1.557895.389473-.292105.486842-.778947.292105-1.168421l-.681579-1.557894c.292105-.292106.584211-.681579.876316-1.071053zm-3.018421-1.85c-.292106.584211-.778948 1.168421-1.26579 1.557895-.292105.292105-.389474.681579-.292105 1.071053l.58421 1.460526c-.389473.194737-.778947.389474-1.265789.58421l-.778947-1.363157c-.194737-.292106-.486843-.486843-.876316-.486843-.097369 0-.097369 0-.194737 0-.681579.097369-1.363158.097369-2.044737 0-.389474-.097368-.778947.097369-.973684.486843l-.778948 1.363157c-.389473-.194736-.876315-.389473-1.265789-.58421l.584211-1.460526c.194736-.389474 0-.778948-.292106-1.071053-.486842-.486842-.973684-.973684-1.265789-1.557895-.194737-.389473-.584211-.58421-.973684-.486842l-1.557895.194737c-.097369-.389474-.194737-.876316-.292105-1.363158l1.557894-.486842c.389474-.097368.681579-.486842.681579-.876316 0-.681579.194737-1.363158.486842-1.947368.194737-.389474.097369-.778948-.194736-1.071053l-1.168422-1.071052c.292106-.389474.584211-.778948.876316-1.071053l1.26579.876316c.292105.194737.778947.194737 1.168421 0 .58421-.389474 1.168421-.681579 1.85-.876316.389473-.097369.681579-.486842.681579-.876316l.097368-1.557895h1.363158l.097368 1.557895c0 .389474.292106.778947.681579.876316.681579.194737 1.26579.486842 1.85.876316.292106.194737.778948.292105 1.168421 0l1.26579-.876316c.292105.292105.58421.681579.876316 1.071053l-1.168421 1.071052c-.292106.292105-.389474.681579-.194737 1.071053.292105.58421.389474 1.265789.486842 1.947368 0 .389474.292105.778948.681579.876316l1.557895.486842c-.097369.486842-.194737.876316-.292106 1.363158l-1.557894-.194737c-.584211-.097368-.973685.194737-1.168421.486842"/><path d="m172.536842 452.763158c-2.044737 0-3.602631 1.655263-3.602631 3.602631 0 1.947369 1.655263 3.602632 3.602631 3.602632 1.947369 0 3.602632-1.655263 3.602632-3.602632 0-1.947368-1.655263-3.602631-3.602632-3.602631m0 5.355263c-.973684 0-1.655263-.778947-1.655263-1.655263s.778947-1.655263 1.655263-1.655263 1.655263.778947 1.655263 1.655263-.778947 1.655263-1.655263 1.655263"/><path d="m202.428947 168.642105v.389474c0 3.115789 2.531579 5.647368 5.647369 5.647368h12.852631v14.605264h-19.473684c-.58421 0-.973684.389473-.973684.973684v15.578947.097369c-2.239474.486842-3.894737 2.43421-3.894737 4.771052 0 2.726316 2.142105 4.868421 4.868421 4.868421s4.868421-2.142105 4.868421-4.868421c0-2.336842-1.655263-4.28421-3.894737-4.771052v-.097369-14.605263h18.5v14.702632c-2.239473.486842-3.894736 2.43421-3.894736 4.771052 0 2.726316 2.142105 4.868421 4.868421 4.868421 2.726315 0 4.868421-2.142105 4.868421-4.868421 0-2.336842-1.655264-4.28421-3.894737-4.771052v-14.702632h18.5v14.605263.097369c-2.239474.486842-3.894737 2.43421-3.894737 4.771052 0 2.726316 2.142105 4.868421 4.868421 4.868421s4.868421-2.142105 4.868421-4.868421c0-2.336842-1.655263-4.28421-3.894737-4.771052v-.097369-15.578947c0-.584211-.389473-.973684-.973684-.973684h-19.473684v-14.605264h12.852631c3.11579 0 5.647369-2.531579 5.647369-5.647368v-.389474c0-3.115789-2.531579-5.647368-5.647369-5.647368h-27.652631c-3.11579 0-5.647369 2.531579-5.647369 5.647368m1.947369 42.063158c0 1.655263-1.26579 2.921053-2.921053 2.921053s-2.921052-1.26579-2.921052-2.921053 1.265789-2.921052 2.921052-2.921052 2.921053 1.265789 2.921053 2.921052m40.894737 0c0 1.655263-1.26579 2.921053-2.921053 2.921053s-2.921053-1.26579-2.921053-2.921053 1.26579-2.921052 2.921053-2.921052 2.921053 1.265789 2.921053 2.921052m-20.447369 0c0 1.655263-1.265789 2.921053-2.921052 2.921053-1.655264 0-2.921053-1.26579-2.921053-2.921053s1.265789-2.921052 2.921053-2.921052c1.655263 0 2.921052 1.265789 2.921052 2.921052m-20.447368-42.063158c0-2.044737 1.655263-3.7 3.7-3.7h27.652631c2.044737 0 3.7 1.655263 3.7 3.7v.389474c0 2.044737-1.655263 3.7-3.7 3.7h-27.652631c-2.044737 0-3.7-1.655263-3.7-3.7z"/><path d="m152.771053 191.231579c-2.336842 0-4.284211 1.655263-4.771053 3.894737h-42.744737c-1.168421 0-2.142105-.973684-2.142105-2.044737v-18.207895c0-1.168421.973684-2.044737 2.142105-2.044737h5.842105c.389474 0 .778948.097369 1.168421.389474l.486843.389474c2.43421 2.239473 3.797368 3.310526 6.523684 3.310526h11.002631c1.168421 0 2.142106.973684 2.142106 2.044737v11.68421c0 .584211.389473.973685.973684.973685.58421 0 .973684-.389474.973684-.973685v-11.68421c0-2.239474-1.85-3.992105-4.089474-3.992105h-11.002631c-1.947369 0-2.921053-.584211-5.160527-2.823685 0 0-.097368 0-.097368-.097368l-.58421-.389474c-.681579-.486842-1.460527-.778947-2.336843-.778947h-5.842105c-2.239474 0-4.089474 1.85-4.089474 3.992105v18.207895c0 2.142105 1.655264 3.797368 3.7 3.992105h.194737 42.939474c.486842 2.239474 2.434211 3.894737 4.771053 3.894737 2.726315 0 4.868421-2.142105 4.868421-4.868421s-2.142106-4.868421-4.868421-4.868421m0 7.789474c-1.655264 0-2.921053-1.26579-2.921053-2.921053s1.265789-2.921053 2.921053-2.921053c1.655263 0 2.921052 1.26579 2.921052 2.921053s-1.265789 2.921053-2.921052 2.921053"/><path d="m135.828947 274.189474c-1.363158-1.363158-3.115789-2.142106-5.063158-2.142106-1.947368 0-3.7.778948-5.063157 2.142106l-25.218421 28.33421s0 .097369-.097369.097369c0 .097368-.097368.097368-.097368.194736v.194737.097369.194737.194736c0 .097369.097368.097369.097368.097369 0 .097368.097369.097368.097369.194737 0 0 .097368.097368.194736.097368 0 0 .097369.097369.097369.097369.097368 0 .194737.097368.389473.097368h27.263158.097369c.486842 2.239474 2.43421 3.894737 4.771052 3.894737 2.726316 0 4.868421-2.142105 4.868421-4.868421s-2.142105-4.868421-4.868421-4.868421c-2.336842 0-4.28421 1.655263-4.771052 3.894737h-.097369-25.121052l15.773684-17.721053 2.823684 1.947368c.292105.194737.876316.194737 1.168421 0l2.336842-1.557894 2.823685 1.655263c.292105.194737.778947.194737 1.168421-.097369l2.044736-1.557894 2.239474 1.557894c.194737.097369.389474.194737.584211.194737.194736 0 .389473-.097368.58421-.194737l2.823684-1.947368c.486842-.292105.584211-.876316.292106-1.363158-.292106-.486842-.876316-.584211-1.363158-.292105l-2.336842 1.557894-2.336842-1.557894c-.292106-.194737-.778948-.194737-1.071053 0l-2.142105 1.557894-2.823685-1.655263c-.292105-.194737-.681579-.194737-1.071052 0l-2.336842 1.557895-2.142106-1.460526 6.621053-7.497369c.973684-.973684 2.336842-1.557894 3.7-1.557894s2.726316.58421 3.602632 1.460526l23.465789 27.165789c.389474.389474.973684.486842 1.363158.097369.389474-.389474.486842-.973684.097368-1.363158zm-2.531579 26.094737c1.655264 0 2.921053 1.265789 2.921053 2.921052s-1.265789 2.921053-2.921053 2.921053c-1.655263 0-2.921052-1.26579-2.921052-2.921053s1.363158-2.921052 2.921052-2.921052"/><path d="m34.9552632 198.144737v-8.860526c0-.584211-.3894737-.973685-.9736843-.973685h-11.6842105v-7.789473h6.8157895c2.1421053 0 3.8947368-1.752632 3.8947368-3.894737s-1.7526315-3.894737-3.8947368-3.894737h-15.5789474c-2.1421052 0-3.89473682 1.752632-3.89473682 3.894737s1.75263162 3.894737 3.89473682 3.894737h6.8157895v7.789473h-11.68421053c-.58421052 0-.97368421.389474-.97368421.973685v8.860526c-2.23947368.486842-3.89473684 2.43421-3.89473684 4.771052 0 2.726316 2.14210526 4.868422 4.86842105 4.868422 2.72631583 0 4.86842103-2.142106 4.86842103-4.868422 0-2.336842-1.6552631-4.28421-3.89473682-4.771052v-7.886842h10.71052632v7.886842c-2.2394737.486842-3.8947368 2.43421-3.8947368 4.771052 0 2.726316 2.1421052 4.868422 4.868421 4.868422s4.8684211-2.142106 4.8684211-4.868422c0-2.336842-1.6552632-4.28421-3.8947369-4.771052v-7.886842h10.7105263v7.886842c-2.2394736.486842-3.8947368 2.43421-3.8947368 4.771052 0 2.726316 2.1421053 4.868422 4.868421 4.868422 2.7263158 0 4.8684211-2.142106 4.8684211-4.868422 0-2.336842-1.6552632-4.28421-3.8947368-4.771052m-23.3684211 4.771052c0 1.655264-1.2657895 2.921053-2.92105263 2.921053-1.65526315 0-2.92105263-1.265789-2.92105263-2.921053 0-1.655263 1.26578948-2.921052 2.92105263-2.921052 1.65526313 0 2.92105263 1.265789 2.92105263 2.921052m12.6578947 0c0 1.655264-1.2657894 2.921053-2.9210526 2.921053-1.6552631 0-2.9210526-1.265789-2.9210526-2.921053 0-1.655263 1.2657895-2.921052 2.9210526-2.921052 1.6552632 0 2.9210526 1.265789 2.9210526 2.921052m-10.7105263-24.342105c-1.0710526 0-1.9473684-.876316-1.9473684-1.947368 0-1.071053.8763158-1.947369 1.9473684-1.947369h15.5789474c1.0710526 0 1.9473684.876316 1.9473684 1.947369 0 1.071052-.8763158 1.947368-1.9473684 1.947368zm20.4473684 27.263158c-1.6552631 0-2.9210526-1.265789-2.9210526-2.921053 0-1.655263 1.2657895-2.921052 2.9210526-2.921052 1.6552632 0 2.9210527 1.265789 2.9210527 2.921052 0 1.655264-1.2657895 2.921053-2.9210527 2.921053"/><path d="m68.0605263 253.547368v-15.676315c2.2394737-.486842 3.8947369-2.434211 3.8947369-4.771053s-1.6552632-4.284211-3.8947369-4.771053v-60.368421l3.7-1.947368 4.0894737 2.044737v21.323684c-2.2394737.486842-3.8947368 2.43421-3.8947368 4.771053 0 2.336842 1.6552631 4.28421 3.8947368 4.771052v54.623684c0 .584211.3894737.973685.9736842.973685h83.7368418c.584211 0 .973685-.389474.973685-.973685 0-.58421-.389474-.973684-.973685-.973684h-.973684c-18.792105 0-35.539474-7.789473-49.95-23.076316.778947-.876315 1.26579-1.947368 1.26579-3.213157 0-2.726316-2.142106-4.868422-4.868421-4.868422-.681579 0-1.363158.097369-1.947369.389474-18.3052631-23.173684-25.8026315-52.092105-26.2894736-54.039474v-.292105c0-.389473-.1947368-.681579-.5842105-.876316l-5.0631579-2.43421c-.2921053-.097369-.5842105-.097369-.8763158 0l-4.6736842 2.43421c-.2921053.194737-.4868421.486843-.4868421.876316v.292105c-.4868421 2.044737-7.9842105 30.86579-26.2894737 54.039474-.5842105-.292105-1.2657895-.389474-1.9473684-.389474-2.7263158 0-4.8684211 2.142106-4.8684211 4.868422 0 .973684.2921053 1.947368.7789474 2.726315-9.7368421 10.613158-20.7394737 17.721053-32.81315789 21.128948v2.044737c2.23947368-.584211 4.57631579-1.363158 6.71842105-2.239474v2.628947h-6.71842105v1.947369h66.11315789c.5842105 0 .9736842-.389474.9736842-.973685m68.1578947-3.310526c2.434211.876316 4.868421 1.655263 7.302632 2.336842h-7.302632zm-9.736842-4.576316c2.531579 1.460527 5.160526 2.823685 7.789474 3.894737v.097369 2.921052h-7.789474zm-9.736842-6.815789c2.531579 2.044737 5.160526 3.992105 7.886842 5.647368 0 .097369-.097368.194737-.097368.292106v7.789473h-7.789474zm-1.947369-1.655263v15.38421h-7.789473v-21.518421c.389473-.097368.681579-.194737 1.071052-.389474 2.239474 2.336843 4.478948 4.576316 6.718421 6.523685m-8.763157-13.826316c1.655263 0 2.921052 1.265789 2.921052 2.921053 0 1.557894-1.265789 2.921052-2.921052 2.921052-1.655264 0 0 0 0 0-1.557895 0-2.921053-1.363158-2.921053-2.921052 0-1.557895 1.363158-2.921053 2.921053-2.921053m-8.7631584-7.594737c1.6552632 2.434211 3.4078944 4.868421 5.2578944 7.205263-.876315.876316-1.363158 2.044737-1.363158 3.310527 0 2.336842 1.655264 4.28421 3.894737 4.771052v21.518421h-7.7894734zm-9.7368421-16.942105c2.2394737 4.576316 4.8684211 9.25 7.7894737 13.923684v39.823684h-7.7894737zm-9.7368421-24.147369c1.5578948 4.868421 4.0894737 12.073685 7.8868421 20.155264 0 .097368-.0973684.194736-.0973684.292105v57.447368h-7.7894737v-53.65c2.2394737-.486842 3.8947369-2.43421 3.8947369-4.771052 0-2.336843-1.6552632-4.284211-3.8947369-4.771053zm1.9473684 19.473685c0 1.655263-1.2657894 2.921052-2.9210526 2.921052-1.6552631 0-2.9210526-1.265789-2.9210526-2.921052 0-1.655264 1.2657895-2.921053 2.9210526-2.921053 1.6552632 0 2.9210526 1.265789 2.9210526 2.921053m-12.6578947 36.026315c1.6552632 0 2.9210526 1.26579 2.9210526 2.921053s-1.2657894 2.921053-2.9210526 2.921053-2.9210526-1.26579-2.9210526-2.921053 1.3631579-2.921053 2.9210526-2.921053m-49.6578947 22.394737h-7.78947372v-3.505263c2.62894742-1.168421 5.25789472-2.531579 7.78947372-3.992105zm9.7368421 0h-7.7894737v-8.763158c2.6289474-1.752631 5.2578947-3.602631 7.7894737-5.744737zm9.7368421-21.421052v21.421052h-7.7894737v-16.260526c2.0447368-1.85 4.0894737-3.894737 6.1342105-6.036842.4868421.389473 1.0710527.681579 1.6552632.876316m-1.9473684-4.868421c0-1.655264 1.2657894-2.921053 2.9210526-2.921053 1.6552631 0 2.9210526 1.265789 2.9210526 2.921053 0 1.655263-1.2657895 2.921052-2.9210526 2.921052-1.6552632 0-2.9210526-1.265789-2.9210526-2.921052m11.6842105 26.289473h-7.7894737v-21.421052-.097369c2.2394737-.486842 3.8947368-2.43421 3.8947368-4.771052 0-1.26579-.4868421-2.434211-1.3631579-3.310527 1.85-2.336842 3.6026316-4.771052 5.2578948-7.205263zm9.7368421 0h-7.7894737v-39.823684c2.9210526-4.673684 5.55-9.444737 7.7894737-13.923684zm9.7368421 0h-7.7894737v-57.447368c0-.097369 0-.194737-.0973684-.292105 3.7-8.081579 6.3289474-15.286843 7.8868421-20.155264v53.65c-2.2394737.486842-3.8947368 2.434211-3.8947368 4.771053s1.6552631 4.284211 3.8947368 4.771053z"/><path d="m66.1131579 282.757895c0 .58421.3894737.973684.9736842.973684h2.9210526.0973685c.4868421 3.310526 3.3105263 5.842105 6.718421 5.842105 3.7973684 0 6.8157895-3.018421 6.8157895-6.815789 0-3.797369-3.0184211-6.81579-6.8157895-6.81579-3.4078947 0-6.2315789 2.531579-6.718421 5.842106h-.0973685-1.9473684v-18.5c0-.584211-.3894737-.973685-.9736842-.973685h-66.11315789v1.947369h65.13947369zm10.7105263-4.868421c2.7263158 0 4.8684211 2.142105 4.8684211 4.868421s-2.1421053 4.868421-4.8684211 4.868421-4.868421-2.142105-4.868421-4.868421 2.2394736-4.868421 4.868421-4.868421"/><path d="m156.763158 264.257895c.486842 2.239473 2.43421 3.894737 4.771053 3.894737 2.726315 0 4.868421-2.142106 4.868421-4.868421 0-2.726316-2.142106-4.868422-4.868421-4.868422-2.336843 0-4.284211 1.655264-4.771053 3.894737h-.097369-79.8421048c-.5842105 0-.9736842.389474-.9736842.973685v5.842105c0 .58421.3894737.973684.9736842.973684s.9736842-.389474.9736842-.973684v-4.868421zm4.771053-3.894737c1.655263 0 2.921052 1.265789 2.921052 2.921053 0 1.655263-1.265789 2.921052-2.921052 2.921052-1.655264 0-2.921053-1.265789-2.921053-2.921052 0-1.655264 1.363158-2.921053 2.921053-2.921053"/><path d="m8.08157895 222.876316h-4.18684211c-.4868421 0-.68157895.194737-.68157895.681579v7.692105c0 .486842.19473685.681579.68157895.681579h.77894737c.48684211 0 .68157895-.194737.68157895-.681579v-2.628947h2.04473684c.48684211 0 .68157895-.194737.68157895-.681579v-.486842c0-.486843-.19473684-.681579-.68157895-.681579h-1.94736842v-1.947369h2.62894737c.4868421 0 .68157894-.194737.68157894-.681579v-.486842c0-.486842-.19473684-.778947-.68157894-.778947"/><path d="m14.5078947 222.778947c-2.8236842 0-4.77105259 2.044737-4.77105259 4.576316 0 2.628948 1.94736839 4.771053 4.77105259 4.771053s4.7710527-2.044737 4.7710527-4.771053c0-2.531579-1.9473685-4.576316-4.7710527-4.576316m0 7.302632c-1.4605263 0-2.4342105-1.168421-2.4342105-2.726316 0-1.460526.9736842-2.628947 2.4342105-2.628947 1.4605264 0 2.4342106 1.071052 2.4342106 2.628947.0973684 1.557895-.9736842 2.726316-2.4342106 2.726316"/><path d="m138.165789 222.389474h-2.921052v-2.921053c0-.58421-.389474-.973684-.973684-.973684-.584211 0-.973685.389474-.973685.973684v2.921053h-2.921052c-.584211 0-.973684.389473-.973684.973684 0 .58421.389473.973684.973684.973684h2.921052v2.921053c0 .58421.389474.973684.973685.973684.58421 0 .973684-.389474.973684-.973684v-2.921053h2.921052c.584211 0 .973685-.389474.973685-.973684 0-.584211-.389474-.973684-.973685-.973684"/><path d="m143.423684 214.697368c-.389473-.194736-.778947-.097368-1.071052.194737l-2.921053 2.823684c-.389474.389474-.389474.973685 0 1.363158.389474.389474.973684.389474 1.363158 0l1.265789-1.265789v11.294737c0 .58421.389474.973684.973685.973684.58421 0 .973684-.389474.973684-.973684v-13.631579c0-.292105-.194737-.681579-.584211-.778948"/><path d="m54.4289474 304.178947c2.3368421 0 4.2842105-1.655263 4.7710526-3.894736h.6815789.0973685c2.5315789 0 4.6736842 2.044736 4.6736842 4.673684v3.213158.194736.194737.097369c.1947368 3.407894 3.018421 6.036842 6.4263158 6.13421.3894737 2.336842 2.3368421 3.992106 4.7710526 3.992106 2.7263158 0 4.8684211-2.142106 4.8684211-4.868422 0-2.726315-2.1421053-4.868421-4.8684211-4.868421-2.3368421 0-4.1868421 1.557895-4.7710526 3.797369-2.531579 0-4.5763158-2.044737-4.5763158-4.576316v-3.310526c0-1.85-.7789474-3.505263-1.9473684-4.673684h16.2605263c.4868421 2.239473 2.4342105 3.894736 4.7710526 3.894736 2.7263158 0 4.8684211-2.142105 4.8684211-4.868421 0-2.726315-2.1421053-4.868421-4.8684211-4.868421-2.3368421 0-4.2842105 1.655263-4.7710526 3.894737h-21.6157895c-.4868421-2.239474-2.4342105-3.894737-4.7710526-3.894737-2.7263158 0-4.8684211 2.142106-4.8684211 4.868421 0 2.726316 2.2394737 4.868421 4.8684211 4.868421m21.4210526 6.81579c1.6552632 0 2.9210526 1.265789 2.9210526 2.921052 0 1.655264-1.2657894 2.921053-2.9210526 2.921053s-2.9210526-1.265789-2.9210526-2.921053c0-1.655263 1.3631579-2.921052 2.9210526-2.921052m9.7368421-14.605263c1.6552632 0 2.9210526 1.265789 2.9210526 2.921052s-1.2657894 2.921053-2.9210526 2.921053-2.9210526-1.26579-2.9210526-2.921053 1.3631579-2.921052 2.9210526-2.921052m-31.1578947 0c1.6552631 0 2.9210526 1.265789 2.9210526 2.921052s-1.2657895 2.921053-2.9210526 2.921053c-1.6552632 0-2.9210527-1.26579-2.9210527-2.921053s1.3631579-2.921052 2.9210527-2.921052"/><path d="m38.85 286.944737v-6.328948c0-3.115789-2.5315789-5.55-5.55-5.55h-26.67894737c-.4868421-2.239473-2.43421052-3.894736-4.77105263-3.894736-.29210526 0-.58421053 0-.87631579.097368v2.044737c.29210526-.097369.58421053-.194737.87631579-.194737 1.65526316 0 2.92105263 1.26579 2.92105263 2.921053s-1.26578947 2.921052-2.92105263 2.921052c-.29210526 0-.58421053-.097368-.87631579-.194737v2.044737c.29210526.097369.58421053.097369.87631579.097369 2.33684211 0 4.28421053-1.655263 4.77105263-3.894737h26.67894737c2.0447368 0 3.6026316 1.655263 3.6026316 3.602631v6.328948c0 2.044737-1.6552632 3.602631-3.6026316 3.602631h-32.32631579v1.947369h32.32631579c3.1157895 0 5.55-2.531579 5.55-5.55"/><path d="m26.1921053 288.6c2.7263158 0 4.868421-2.142105 4.868421-4.868421s-2.1421052-4.868421-4.868421-4.868421c-2.3368421 0-4.2842106 1.655263-4.7710527 3.894737h-20.44736839v1.947368h20.44736839c.4868421 2.239474 2.4342106 3.894737 4.7710527 3.894737m0-7.789474c1.6552631 0 2.9210526 1.26579 2.9210526 2.921053s-1.2657895 2.921053-2.9210526 2.921053c-1.6552632 0-2.9210527-1.26579-2.9210527-2.921053s1.3631579-2.921053 2.9210527-2.921053"/><path d="m6.62105263 314.889474h26.67894737c3.1157895 0 5.55-2.531579 5.55-5.55v-6.328948c0-3.115789-2.5315789-5.55-5.55-5.55h-32.32631579v1.947369h32.32631579c2.0447368 0 3.6026316 1.655263 3.6026316 3.602631v6.328948c0 2.044737-1.6552632 3.602631-3.6026316 3.602631h-26.67894737c-.4868421-2.239473-2.43421052-3.894737-4.77105263-3.894737-.29210526 0-.58421053 0-.87631579.097369v2.044737c.29210526-.097369.58421053-.194737.87631579-.194737 1.65526316 0 2.92105263 1.265789 2.92105263 2.921052 0 1.655264-1.26578947 2.921053-2.92105263 2.921053-.29210526 0-.58421053-.097368-.87631579-.194737v2.044737c.29210526.097369.58421053.097369.87631579.097369 2.43421053 0 4.38157895-1.655264 4.77105263-3.894737"/><path d="m26.1921053 310.994737c2.7263158 0 4.868421-2.142105 4.868421-4.868421s-2.1421052-4.868421-4.868421-4.868421c-2.3368421 0-4.2842106 1.655263-4.7710527 3.894737h-20.44736839v1.947368h20.44736839c.4868421 2.239474 2.4342106 3.894737 4.7710527 3.894737m0-7.789474c1.6552631 0 2.9210526 1.26579 2.9210526 2.921053s-1.2657895 2.921052-2.9210526 2.921052c-1.6552632 0-2.9210527-1.265789-2.9210527-2.921052s1.3631579-2.921053 2.9210527-2.921053"/><path d="m165.428947 225.310526c0 2.726316 2.142106 4.868421 4.868421 4.868421 2.726316 0 4.868421-2.142105 4.868421-4.868421 0-2.336842-1.655263-4.28421-3.894736-4.771052v-.097369-16.747368l5.647368 4.576316c-1.557895.778947-2.726316 2.43421-2.726316 4.381579 0 2.336842 1.655263 4.28421 3.894737 4.771052v32.228948.097368c-2.239474.486842-3.894737 2.434211-3.894737 4.771053 0 2.726315 2.142106 4.868421 4.868421 4.868421 2.726316 0 4.868421-2.142106 4.868421-4.868421 0-2.336842-1.655263-4.284211-3.894736-4.771053v-.097368-32.228948c2.239473-.486842 3.894736-2.43421 3.894736-4.771052 0-2.628948-2.044736-4.673685-4.576315-4.868421l-8.081579-6.621053v-17.721053-.097368c2.239473-.486842 3.894736-2.434211 3.894736-4.771053 0-2.726316-2.142105-4.868421-4.868421-4.868421-2.726315 0-4.868421 2.142105-4.868421 4.868421 0 2.336842 1.655264 4.284211 3.894737 4.771053v.097368 37 .097369c-2.142105.486842-3.894737 2.43421-3.894737 4.771052m16.552632 29.210527c0 1.655263-1.26579 2.921052-2.921053 2.921052s-2.921052-1.265789-2.921052-2.921052c0-1.655264 1.265789-2.921053 2.921052-2.921053s2.921053 1.265789 2.921053 2.921053m-2.921053-44.789474c1.655263 0 2.921053 1.265789 2.921053 2.921053 0 1.655263-1.26579 2.921052-2.921053 2.921052s-2.921052-1.265789-2.921052-2.921052c0-1.655264 1.363158-2.921053 2.921052-2.921053m-11.68421-31.157895c0-1.655263 1.265789-2.921052 2.921052-2.921052 1.655264 0 2.921053 1.265789 2.921053 2.921052s-1.265789 2.921053-2.921053 2.921053c-1.655263 0-2.921052-1.26579-2.921052-2.921053m2.921052 43.81579c1.655264 0 2.921053 1.265789 2.921053 2.921052s-1.265789 2.921053-2.921053 2.921053c-1.655263 0-2.921052-1.26579-2.921052-2.921053s1.363158-2.921052 2.921052-2.921052"/><path d="m204.376316 245.757895c0-2.726316-2.142105-4.868421-4.868421-4.868421s-4.868421 2.142105-4.868421 4.868421c0 2.336842 1.655263 4.28421 3.894737 4.771052v5.939474c0 .584211.389473.973684.973684.973684h32.131579c.58421 0 .973684-.389473.973684-.973684v-7.886842c3.310526-.486842 5.842105-3.310526 5.842105-6.718421 0-3.797369-3.018421-6.81579-6.815789-6.81579-3.602632 0-6.621053 2.921053-6.81579 6.426316l-5.842105 5.744737v-19.960526c0-.584211-.389474-.973684-.973684-.973684-.584211 0-.973684.389473-.973684.973684v20.155263l-5.647369-5.647369c-.389474-.389473-.973684-.389473-1.363158 0-.389473.389474-.389473.973685 0 1.363158l7.205263 7.205264c.194737.194736.486842.292105.681579.292105.292106 0 .486842-.097369.681579-.292105l6.523684-6.426316c.778948 2.43421 2.921053 4.28421 5.55 4.673684v6.913158h-30.18421v-4.96579c2.239474-.486842 3.894737-2.43421 3.894737-4.771052m22.394737-3.894737c0-2.726316 2.142105-4.868421 4.868421-4.868421 2.726315 0 4.868421 2.142105 4.868421 4.868421s-2.142106 4.868421-4.868421 4.868421c-2.628948 0-4.868421-2.142105-4.868421-4.868421m-27.263158 6.815789c-1.655263 0-2.921053-1.265789-2.921053-2.921052s1.26579-2.921053 2.921053-2.921053 2.921052 1.26579 2.921052 2.921053-1.265789 2.921052-2.921052 2.921052"/><path d="m107.202632 4.28421053h-22.4921057c-3.7973684 0-6.8157895 3.11578947-6.8157895 6.81578947v4.8684211.0973684c-2.2394736.4868421-3.8947368 2.4342105-3.8947368 4.7710526 0 2.7263158 2.1421053 4.8684211 4.8684211 4.8684211 2.7263157 0 4.868421-2.1421053 4.868421-4.8684211 0-2.3368421-1.6552632-4.2842105-3.8947368-4.7710526v-.0973684-4.8684211c0-2.72631579 2.1421052-4.86842105 4.868421-4.86842105h11.781579c-1.2657895 1.26578947-2.0447369 3.01842105-2.0447369 4.86842105v4.8684211.0973684c-2.2394737.4868421-3.8947368 2.4342105-3.8947368 4.7710526 0 2.7263158 2.1421052 4.8684211 4.868421 4.8684211s4.8684214-2.1421053 4.8684214-4.8684211c0-2.3368421-1.6552635-4.2842105-3.8947372-4.7710526v-.0973684-4.8684211c0-2.72631579 2.1421053-4.86842105 4.8684212-4.86842105h5.939474c.486842 2.23947368 2.43421 3.89473685 4.771052 3.89473685 2.726316 0 4.868421-2.14210527 4.868421-4.86842106s-2.142105-4.86842106-4.868421-4.86842106c-2.336842 0-4.28421 1.65526316-4.771052 3.89473685m-25.4131583 16.55263157c0 1.6552632-1.2657895 2.9210526-2.9210526 2.9210526-1.6552632 0-2.9210527-1.2657894-2.9210527-2.9210526s1.2657895-2.9210526 2.9210527-2.9210526c1.6552631 0 2.9210526 1.2657894 2.9210526 2.9210526m16.5526316 0c0 1.6552632-1.2657895 2.9210526-2.9210527 2.9210526-1.6552631 0-2.9210526-1.2657894-2.9210526-2.9210526s1.2657895-2.9210526 2.9210526-2.9210526c1.6552632 0 2.9210527 1.2657894 2.9210527 2.9210526m13.6315787-18.49999999c1.655263 0 2.921053 1.26578947 2.921053 2.92105263 0 1.65526315-1.26579 2.92105263-2.921053 2.92105263s-2.921052-1.26578948-2.921052-2.92105263c0-1.65526316 1.265789-2.92105263 2.921052-2.92105263"/><path d="m83.7368421 57.7394737v5.9394737c0 .5842105.3894737.9736842.9736842.9736842h32.1315787c.584211 0 .973684-.3894737.973684-.9736842v-7.8868421c3.310527-.4868421 5.842106-3.3105264 5.842106-6.7184211 0-3.7973684-3.018421-6.8157895-6.81579-6.8157895-3.602631 0-6.621052 2.9210527-6.815789 6.4263158l-5.842105 5.7447369v-19.9605263c0-.5842106-.389474-.9736843-.973685-.9736843-.58421 0-.973684.3894737-.973684.9736843v20.1552631l-5.6473683-5.6473684c-.3894737-.3894737-.9736842-.3894737-1.3631579 0s-.3894737.9736842 0 1.3631579l7.2052632 7.2052631c.194737.1947369.486842.2921053.681579.2921053.292105 0 .486842-.0973684.681579-.2921053l6.523684-6.4263157c.778947 2.4342105 2.921053 4.2842105 5.55 4.6736842v6.9131579h-30.1842105v-4.9657895c2.2394737-.4868421 3.8947369-2.4342105 3.8947369-4.7710526 0-2.7263158-2.1421053-4.8684211-4.8684211-4.8684211s-4.868421 2.1421053-4.868421 4.8684211c0 2.3368421 1.6552631 4.2842105 3.8947368 4.7710526m28.2368419-8.6657895c0-2.7263158 2.142105-4.868421 4.868421-4.868421s4.868421 2.1421052 4.868421 4.868421-2.142105 4.8684211-4.868421 4.8684211-4.868421-2.1421053-4.868421-4.8684211m-27.2631577.9736842c1.6552632 0 2.9210526 1.2657895 2.9210526 2.9210527 0 1.6552631-1.2657894 2.9210526-2.9210526 2.9210526-1.6552631 0-2.9210526-1.2657895-2.9210526-2.9210526 0-1.6552632 1.2657895-2.9210527 2.9210526-2.9210527"/><path d="m213.236842 117.231579c0 2.726316 2.142105 4.868421 4.868421 4.868421s4.868421-2.142105 4.868421-4.868421c0-2.336842-1.655263-4.284211-3.894737-4.771053v-.681579-.097368c0-2.531579 2.044737-4.673684 4.673685-4.673684h3.213157.194737.194737.097369c3.407894-.194737 6.036842-3.018421 6.13421-6.426316 2.336842-.389474 3.992105-2.3368422 3.992105-4.7710527 0-2.7263158-2.142105-4.868421-4.868421-4.868421-2.726315 0-4.868421 2.1421052-4.868421 4.868421 0 2.3368421 1.557895 4.1868421 3.797369 4.7710527 0 2.531579-2.044737 4.576316-4.576316 4.576316h-3.310526c-1.85 0-3.505264.778947-4.673685 1.947368v-16.2605262c2.239474-.4868421 3.894737-2.4342105 3.894737-4.7710526 0-2.7263158-2.142105-4.868421-4.868421-4.868421s-4.868421 2.1421052-4.868421 4.868421c0 2.3368421 1.655263 4.2842105 3.894737 4.7710526v21.6157892c-2.239474.486842-3.894737 2.434211-3.894737 4.771053m16.552632-21.4210527c0-1.6552631 1.265789-2.9210526 2.921052-2.9210526s2.921053 1.2657895 2.921053 2.9210526c0 1.6552632-1.26579 2.9210526-2.921053 2.9210526s-2.921052-1.2657894-2.921052-2.9210526m-14.605263-9.7368421c0-1.6552631 1.265789-2.9210526 2.921052-2.9210526s2.921053 1.2657895 2.921053 2.9210526c0 1.6552632-1.26579 2.9210526-2.921053 2.9210526s-2.921052-1.2657894-2.921052-2.9210526m2.921052 28.2368418c1.655263 0 2.921053 1.26579 2.921053 2.921053s-1.26579 2.921053-2.921053 2.921053-2.921052-1.26579-2.921052-2.921053 1.265789-2.921053 2.921052-2.921053"/><path d="m158.223684 7.49736842c-5.744737 0-9.639473.97368421-13.339473 3.40789478-.876316-.8763158-2.142106-1.46052636-3.407895-1.46052636-2.726316 0-4.868421 2.14210526-4.868421 4.86842106s2.142105 4.868421 4.868421 4.868421 4.868421-2.1421052 4.868421-4.868421c0-.681579-.097369-1.2657895-.389474-1.85 3.310526-2.1421053 6.81579-3.01842106 12.073684-3.01842106 0 3.50526316-.486842 6.42631576-1.655263 9.05526316l-2.142105-1.7526316c-.389474-.3894737-1.071053-.2921052-1.363158.0973684-.389474.3894737-.292105 1.0710527.097368 1.3631579l2.531579 2.1421053c-1.168421 2.1421053-2.628947 4.0894737-4.673684 6.1342105-1.168421 1.1684211-2.628947 2.531579-4.381579 3.8947369-.194737.1947368-.292105.3894737-.389473.6815789l-.486843 8.4710526-8.471052 4.9657895-1.168421-1.168421 1.85-6.1342106c.097368-.3894736 0-.6815789-.194737-.9736842l-6.328947-6.3289473c-.292106-.2921053-.584211-.3894737-.973685-.1947369l-6.13421 1.85-1.168421-1.168421 4.965789-8.4710527 8.471053-.4868421c.58421 0 .973684-.4868421.876316-1.0710526 0-.5842105-.486842-.9736842-1.071053-.8763158l-8.568421.4868421c-.584211.0973684-1.071053.3894737-1.363158.7789474l-5.063158 8.7631579c-.389473.6815789-.292105 1.4605263.194737 2.0447368l1.460526 1.4605263c.292106.2921053.778948.4868421 1.168421.4868421.097369 0 .292106 0 .486843-.0973684l5.647368-1.7526316 5.55 5.55-1.752632 5.7447369c-.194736.5842105 0 1.168421.389474 1.6552631l1.460526 1.4605264c.389474.2921052.778948.4868421 1.168421.4868421.292106 0 .584211-.0973685.876316-.1947369l8.66579-5.0631579c.486842-.2921052.778947-.7789473.876315-1.3631579l.389474-8.1789473c1.655263-1.3631579 3.018421-2.6289474 4.186842-3.7973685 5.55-5.6473684 7.789474-10.8078947 7.789474-18.59736838.194737-1.07105263-.584211-1.85-1.557895-1.85m-16.747368 9.73684208c-1.655263 0-2.921053-1.2657894-2.921053-2.9210526s1.26579-2.9210526 2.921053-2.9210526c.973684 0 1.85.4868421 2.43421 1.2657894v.0973685c.292106.4868421.486842.9736842.486842 1.5578947 0 1.6552632-1.265789 2.9210526-2.921052 2.9210526"/><path d="m110.026316 116.257895v-35.0526318c0-.5842106.389473-.9736843.973684-.9736843h8.957895c.58421 0 .973684-.3894736.973684-.9736842 0-.5842105-.389474-.9736842-.973684-.9736842h-8.957895c-1.655263 0-2.921053 1.2657895-2.921053 2.9210527v35.0526318c0 1.655263 1.26579 2.921052 2.921053 2.921052h35.052632c1.655263 0 2.921052-1.265789 2.921052-2.921052v-35.0526318c0-1.6552632-1.265789-2.9210527-2.921052-2.9210527h-3.992106c-.486842-3.3105263-3.310526-5.8421052-6.718421-5.8421052-3.797368 0-6.815789 3.018421-6.815789 6.8157894 0 3.7973685 3.018421 6.8157895 6.815789 6.8157895 3.407895 0 6.231579-2.5315789 6.718421-5.8421053h3.992106c.58421 0 .973684.3894737.973684.9736843v35.0526318c0 .58421-.389474.973684-.973684.973684h-35.052632c-.584211 0-.973684-.486842-.973684-.973684m25.315789-32.1315792c-2.726316 0-4.868421-2.1421053-4.868421-4.8684211s2.142105-4.868421 4.868421-4.868421 4.868421 2.1421052 4.868421 4.868421-2.142105 4.8684211-4.868421 4.8684211"/><path d="m119.471053 90.2605263c-.389474-.3894737-.973685-.3894737-1.363158 0-.389474.3894737-.389474.9736842 0 1.3631579l7.497368 7.5947369-7.497368 7.5947369c-.389474.389474-.389474.973684 0 1.363158.194737.194737.389473.292105.681579.292105.292105 0 .486842-.097368.681579-.292105l8.178947-8.276316c.389474-.3894737.389474-.9736842 0-1.3631579z"/><path d="m139.236842 108.371053c.486842 0 .876316-.389474.876316-.876316s-.389474-.876316-.876316-.876316h-7.692105c-.486842 0-.876316.389474-.876316.876316s.389474.876316.876316.876316z"/><path d="m5.84210526 156.178947c2.72631579 0 4.86842104-2.142105 4.86842104-4.868421 0-2.336842-1.65526314-4.28421-3.89473683-4.771052v-.097369-32.228947c2.23947369-.486842 3.89473683-2.434211 3.89473683-4.771053 0-1.947368-1.16842104-3.602631-2.72631577-4.381579l5.64736837-4.576315v16.747368.097368c-2.2394736.486842-3.89473679 2.434211-3.89473679 4.771053 0 2.726316 2.14210529 4.868421 4.86842109 4.868421 2.7263157 0 4.868421-2.142105 4.868421-4.868421 0-2.336842-1.6552631-4.284211-3.8947368-4.771053v-.097368-37.0000001-.0973684c2.2394737-.4868421 3.8947368-2.4342105 3.8947368-4.7710526 0-2.7263158-2.1421053-4.8684211-4.868421-4.8684211-2.7263158 0-4.86842109 2.1421053-4.86842109 4.8684211 0 2.3368421 1.65526319 4.2842105 3.89473679 4.7710526v.0973684 17.7210527l-8.17894732 6.6210524c-2.53157895.194737-4.47894737 2.239474-4.47894737 4.868421 0 2.336842 1.65526316 4.284211 3.89473684 4.771053v32.228947.097369c-2.23947368.486842-3.89473684 2.43421-3.89473684 4.771052 0 2.726316 2.14210526 4.868421 4.86842105 4.868421m5.84210524-80.8157891c0-1.6552632 1.2657895-2.9210526 2.9210527-2.9210526 1.6552631 0 2.9210526 1.2657894 2.9210526 2.9210526s-1.2657895 2.9210526-2.9210526 2.9210526c-1.6552632 0-2.9210527-1.2657894-2.9210527-2.9210526m2.9210527 43.8157891c1.6552631 0 2.9210526 1.26579 2.9210526 2.921053s-1.2657895 2.921053-2.9210526 2.921053c-1.6552632 0-2.9210527-1.26579-2.9210527-2.921053s1.2657895-2.921053 2.9210527-2.921053m-11.68421057-9.736842c0-1.655263 1.26578948-2.921052 2.92105263-2.921052 1.65526316 0 2.92105263 1.265789 2.92105263 2.921052s-1.26578947 2.921053-2.92105263 2.921053c-1.65526315 0-2.92105263-1.26579-2.92105263-2.921053m2.92105263 38.947369c1.65526316 0 2.92105263 1.265789 2.92105263 2.921052s-1.26578947 2.921053-2.92105263 2.921053c-1.65526315 0-2.92105263-1.26579-2.92105263-2.921053s1.26578948-2.921052 2.92105263-2.921052"/><path d="m145.760526 56.1815789c-.58421 0-.973684.3894737-.973684.9736843v2.9210526h-2.921053c-.58421 0-.973684.3894737-.973684.9736842s.389474.9736842.973684.9736842h2.921053v2.9210526c0 .5842106.389474.9736843.973684.9736843.584211 0 .973685-.3894737.973685-.9736843v-2.9210526h2.921052c.584211 0 .973684-.3894737.973684-.9736842s-.389473-.9736842-.973684-.9736842h-2.921052v-2.9210526c0-.4868421-.486843-.9736843-.973685-.9736843"/><path d="m154.523684 67.8657895c.584211 0 .973684-.3894737.973684-.9736842v-13.631579c0-.3894737-.194736-.7789474-.58421-.8763158-.389474-.1947368-.778947-.0973684-1.071053.1947369l-2.921052 2.8236842c-.389474.3894737-.389474.9736842 0 1.3631579.389473.3894737.973684.3894737 1.363158 0l1.265789-1.2657895v11.2947368c0 .681579.389474 1.0710527.973684 1.0710527"/><path d="m1.94736842 57.5447368h2.92105263v2.9210527c0 .5842105.38947369.9736842.97368421.9736842.58421053 0 .97368421-.3894737.97368421-.9736842v-2.9210527h2.92105264c.58421049 0 .97368419-.3894736.97368419-.9736842 0-.5842105-.3894737-.9736842-.97368419-.9736842h-2.92105264v-2.9210526c0-.5842105-.38947368-.9736842-.97368421-.9736842-.58421052 0-.97368421.3894737-.97368421.9736842v2.9210526h-2.92105263c-.58421053 0-.97368421.3894737-.97368421.9736842 0 .5842106.38947368.9736842.97368421.9736842"/><path d="m14.9947368 47.9052632c-.3894736-.1947369-.7789473-.0973685-1.0710526.1947368l-2.9210526 2.8236842c-.3894737.3894737-.3894737.9736842 0 1.3631579s.9736842.3894737 1.3631579 0l1.2657894-1.2657895v11.2947369c0 .5842105.3894737.9736842.9736843.9736842.5842105 0 .9736842-.3894737.9736842-.9736842v-13.631579c0-.2921052-.1947369-.6815789-.5842106-.7789473"/><path d="m113.239474 141.281579c.194737.194737.486842.292105.681579.292105.194736 0 .486842-.097368.681579-.292105l3.213157-3.213158 3.213158 3.213158c.194737.194737.486842.292105.681579.292105s.486842-.097368.681579-.292105c.389474-.389474.389474-.973684 0-1.363158l-3.213158-3.213158 3.213158-3.213158c.389474-.389473.389474-.973684 0-1.363158-.389473-.389473-.973684-.389473-1.363158 0l-3.213158 3.213158-3.213157-3.213158c-.389474-.389473-.973685-.389473-1.363158 0-.389474.389474-.389474.973685 0 1.363158l3.213158 3.213158-3.213158 3.213158c-.389474.389474-.389474.973684 0 1.363158"/><path d="m108.078947 151.310526c0 2.726316 2.142106 4.868421 4.868421 4.868421 2.336843 0 4.284211-1.655263 4.771053-3.894736h21.61579c.486842 2.239473 2.43421 3.894736 4.771052 3.894736 2.726316 0 4.868421-2.142105 4.868421-4.868421 0-2.726315-2.142105-4.868421-4.868421-4.868421-2.336842 0-4.28421 1.655263-4.771052 3.894737h-.681579-.097369c-2.531579 0-4.673684-2.044737-4.673684-4.673684v-3.213158-.097368c0-.097369 0-.194737 0-.292106-.194737-3.407894-3.018421-6.231579-6.523684-6.231579-.584211 0-.973684.389474-.973684.973685 0 .58421.389473.973684.973684.973684 2.531579 0 4.478947 1.947368 4.576316 4.478947v3.407895c0 1.85.778947 3.505263 1.947368 4.673684h-16.260526c-.486842-2.239474-2.434211-3.894737-4.771053-3.894737-2.628947 0-4.771053 2.142106-4.771053 4.868421m36.026316-2.921052c1.655263 0 2.921053 1.265789 2.921053 2.921052s-1.26579 2.921053-2.921053 2.921053-2.921052-1.26579-2.921052-2.921053 1.265789-2.921052 2.921052-2.921052m-28.236842 2.921052c0 1.655263-1.265789 2.921053-2.921053 2.921053-1.655263 0-2.921052-1.26579-2.921052-2.921053s1.265789-2.921052 2.921052-2.921052c1.655264 0 2.921053 1.265789 2.921053 2.921052"/><path d="m176.236842 37.3894737c2.726316 0 4.868421-2.1421053 4.868421-4.8684211 0-2.3368421-1.557895-4.1868421-3.797368-4.7710526 0-2.5315789 2.044737-4.5763158 4.576316-4.5763158h3.310526c1.85 0 3.505263-.7789474 4.673684-1.9473684v16.2605263c-2.239474.4868421-3.894737 2.4342105-3.894737 4.7710526 0 2.7263158 2.142105 4.8684211 4.868421 4.8684211s4.868421-2.1421053 4.868421-4.8684211c0-2.3368421-1.655263-4.2842105-3.894737-4.7710526v-21.6157895c2.239474-.4868421 3.894737-2.4342105 3.894737-4.7710526 0-2.72631579-2.142105-4.86842105-4.868421-4.86842105s-4.868421 2.14210526-4.868421 4.86842105c0 2.3368421 1.655263 4.2842105 3.894737 4.7710526v.681579.0973684c0 2.5315789-2.044737 4.6736842-4.673684 4.6736842h-3.11579c-.097368 0-.097368 0-.194736 0h-.194737s0 0-.097369 0c-3.407894.1947369-6.036842 3.0184211-6.13421 6.4263158-2.336842.3894737-3.992106 2.3368421-3.992106 4.7710526-.097368 2.7263158 2.044737 4.8684211 4.771053 4.8684211m11.684211-26.2894737c0-1.65526316 1.265789-2.92105263 2.921052-2.92105263s2.921053 1.26578947 2.921053 2.92105263c0 1.6552632-1.26579 2.9210526-2.921053 2.9210526s-2.921052-1.2657894-2.921052-2.9210526m2.921052 28.2368421c1.655263 0 2.921053 1.2657895 2.921053 2.9210526 0 1.6552632-1.26579 2.9210527-2.921053 2.9210527s-2.921052-1.2657895-2.921052-2.9210527c0-1.6552631 1.265789-2.9210526 2.921052-2.9210526m-14.605263-9.7368421c1.655263 0 2.921053 1.2657895 2.921053 2.9210526 0 1.6552632-1.26579 2.9210527-2.921053 2.9210527s-2.921053-1.2657895-2.921053-2.9210527c0-1.6552631 1.26579-2.9210526 2.921053-2.9210526"/><path d="m86.95 107.494737h-26.6789474c-.4868421-2.239474-2.4342105-3.894737-4.7710526-3.894737-2.7263158 0-4.8684211 2.142105-4.8684211 4.868421s2.1421053 4.868421 4.8684211 4.868421c2.3368421 0 4.2842105-1.655263 4.7710526-3.894737h26.6789474c2.0447368 0 3.6026316 1.655263 3.6026316 3.602632v6.328947c0 2.044737-1.6552632 3.602632-3.6026316 3.602632h-49.2684211c-2.0447368 0-3.6026315-1.655263-3.6026315-3.602632v-6.328947c0-2.044737 1.6552631-3.602632 3.6026315-3.602632h8.9578948c.5842105 0 .9736842-.389473.9736842-.973684 0-.58421-.3894737-.973684-.9736842-.973684h-8.9578948c-3.1157894 0-5.55 2.531579-5.55 5.55v6.328947c0 3.11579 2.531579 5.55 5.55 5.55h49.1710527c3.1157895 0 5.55-2.531579 5.55-5.55v-6.328947c.0973684-3.018421-2.4342105-5.55-5.4526316-5.55m-31.45 3.894737c-1.6552632 0-2.9210526-1.26579-2.9210526-2.921053s1.2657894-2.921053 2.9210526-2.921053 2.9210526 1.26579 2.9210526 2.921053-1.2657894 2.921053-2.9210526 2.921053"/><path d="m39.9210526 116.257895c0 .58421.3894737.973684.9736842.973684h34.1763158c.4868421 2.239474 2.4342106 3.894737 4.7710527 3.894737 2.7263158 0 4.868421-2.142105 4.868421-4.868421s-2.1421052-4.868421-4.868421-4.868421c-2.3368421 0-4.2842106 1.655263-4.7710527 3.894737h-34.1763158c-.5842105 0-.9736842.389473-.9736842.973684m39.9210527-2.921053c1.6552631 0 2.9210526 1.26579 2.9210526 2.921053s-1.2657895 2.921052-2.9210526 2.921052c-1.6552632 0-2.9210527-1.265789-2.9210527-2.921052s1.2657895-2.921053 2.9210527-2.921053"/><path d="m86.95 129.889474h-49.2684211c-3.1157894 0-5.55 2.531579-5.55 5.55v6.328947c0 3.11579 2.531579 5.55 5.55 5.55h8.9578948c.5842105 0 .9736842-.389474.9736842-.973684 0-.584211-.3894737-.973684-.9736842-.973684h-8.9578948c-2.0447368 0-3.6026315-1.655264-3.6026315-3.602632v-6.328947c0-2.044737 1.6552631-3.602632 3.6026315-3.602632h49.1710527c2.0447368 0 3.6026316 1.655263 3.6026316 3.602632v6.328947c0 2.044737-1.6552632 3.602632-3.6026316 3.602632h-26.581579c-.4868421-2.239474-2.4342105-3.894737-4.7710526-3.894737-2.7263158 0-4.8684211 2.142105-4.8684211 4.868421s2.1421053 4.868421 4.8684211 4.868421c2.3368421 0 4.2842105-1.655263 4.7710526-3.894737h26.6789474c3.1157895 0 5.55-2.531579 5.55-5.55v-6.328947c0-3.018421-2.5315789-5.55-5.55-5.55m-31.45 19.473684c-1.6552632 0-2.9210526-1.26579-2.9210526-2.921053s1.2657894-2.921052 2.9210526-2.921052 2.9210526 1.265789 2.9210526 2.921052-1.2657894 2.921053-2.9210526 2.921053"/><path d="m79.8421053 143.521053c2.7263158 0 4.868421-2.142106 4.868421-4.868421 0-2.726316-2.1421052-4.868421-4.868421-4.868421-2.3368421 0-4.2842106 1.655263-4.7710527 3.894736h-34.1763158c-.5842105 0-.9736842.389474-.9736842.973685 0 .58421.3894737.973684.9736842.973684h34.1763158c.4868421 2.239473 2.4342106 3.894737 4.7710527 3.894737m0-7.789474c1.6552631 0 2.9210526 1.265789 2.9210526 2.921053 0 1.655263-1.2657895 2.921052-2.9210526 2.921052-1.6552632 0-2.9210527-1.265789-2.9210527-2.921052 0-1.655264 1.2657895-2.921053 2.9210527-2.921053"/><path d="m1.16842105 29.7947368c-.29210526.3894737-.29210526.9736843.09736842 1.3631579.38947369.3894737 1.07105264.2921053 1.3631579-.0973684l22.78421053-26.48421051c1.3631579-1.46052632 3.2131579-2.23947368 5.1605263-2.23947368s3.7973684.77894736 5.1605263 2.14210526l8.9578948 10.12631583-2.6289474 2.0447368-3.2131579-2.4342105c-.2921053-.2921053-.7789474-.2921053-1.1684211 0l-3.8947368 2.5315789-3.018421-2.4342105c-.3894737-.2921053-.8763158-.2921053-1.1684211 0l-3.2131579 2.4342105-3.2131579-2.4342105c-.3894737-.2921053-1.0710526-.1947368-1.3631579.1947368-.2921052.3894737-.1947368 1.0710527.1947369 1.3631579l3.7973684 2.9210527c.3894737.2921052.9736842.2921052 1.2657895 0l3.1157894-2.4342106 2.9210527 2.4342106c.2921052.2921052.8763157.2921052 1.2657894 0l3.7973685-2.531579 3.2131578 2.4342105c.1947369.0973685.3894737.1947369.5842106.1947369.2921052 0 .4868421-.0973684.6815789-.2921053l3.3105263-2.5315789 22.1026316 25.1210526h-34.9552631-.0973685c-.4868421-2.2394737-2.4342105-3.8947368-4.7710526-3.8947368-2.7263158 0-4.868421 2.1421052-4.868421 4.868421s2.1421052 4.8684211 4.868421 4.8684211c2.3368421 0 4.2842105-1.6552632 4.7710526-3.8947369h.0973685 37c.0973684 0 .1947368 0 .3894736-.0973684.0973685 0 .0973685-.0973684.0973685-.0973684.0973684 0 .0973684-.0973684.1947368-.0973684.0973684-.0973685.0973684-.0973685.0973684-.1947369 0 0 .0973684-.0973684.0973684-.0973684 0-.0973684 0-.0973684 0-.1947368 0-.0973685 0-.0973685 0-.1947369v-.0973684c0-.0973684 0-.0973684 0-.1947368 0-.0973685-.0973684-.0973685-.0973684-.1947369 0 0 0-.0973684-.0973684-.0973684l-33.6894737-38.36315791c-1.7526316-1.75263157-4.0894737-2.82368421-6.5236842-2.82368421s-4.7710526.97368421-6.6210526 2.82368421zm27.06842105 15.3842106c-1.6552632 0-2.9210526-1.2657895-2.9210526-2.9210527 0-1.6552631 1.2657894-2.9210526 2.9210526-2.9210526s2.9210526 1.2657895 2.9210526 2.9210526c0 1.6552632-1.2657894 2.9210527-2.9210526 2.9210527"/><path d="m189.673684 86.8526316c.097369-1.7526316.584211-2.2394737 1.752632-3.6026316l.389473-.3894737c.778948-.8763158 1.752632-1.9473684 3.018422-3.7.778947-.9736842 1.363157-2.1421052 1.655263-3.3105263.389473-1.1684211.58421-2.4342105.58421-3.7 0-3.2131579-1.265789-6.1342105-3.505263-8.3736842-1.168421-1.0710526-2.43421-1.9473684-3.894737-2.531579-2.921052-1.168421-6.231579-1.168421-9.055263 0-1.460526.5842106-2.726316 1.4605264-3.894737 2.531579-1.071052 1.0710526-1.947368 2.4342105-2.531579 3.8947368-.58421 1.4605263-.876316 2.9210527-.876316 4.5763158 0 1.2657895.194737 2.531579.584211 3.7.194737.4868421.389474.9736842.584211 1.4605263-.681579.681579-1.168422 1.6552632-1.168422 2.7263158 0 2.1421053 1.752632 3.8947369 3.894737 3.8947369 2.142106 0 3.894737-1.7526316 3.894737-3.8947369 0-2.1421052-1.752631-3.8947368-3.894737-3.8947368-.389473 0-.778947.0973684-1.071052.1947368-.194737-.3894737-.292106-.6815789-.486842-1.0710526-.292106-.9736842-.486843-2.0447368-.486843-3.1157895 0-1.3631579.292106-2.6289473.778948-3.7973684s1.265789-2.2394737 2.142105-3.2131579c.973684-.9736842 2.044737-1.6552632 3.213158-2.1421053 2.336842-.9736842 5.160526-.9736842 7.594737 0 1.168421.4868421 2.239474 1.2657895 3.213158 2.1421053 1.85 1.85 2.921052 4.381579 2.921052 7.0105263 0 1.0710527-.194736 2.0447369-.486842 3.1157895-.292105.9736842-.778947 1.9473684-1.460526 2.7263158-1.168421 1.6552631-2.142105 2.7263158-2.921053 3.6026316l-.389473.3894736c-1.168421 1.2657895-1.947369 2.1421053-2.239474 3.8947369h-5.842105c-.584211 0-.973685.3894737-.973685.9736842s.389474.9736842.973685.9736842h6.718421c.778947-.0973684 1.265789-.4868421 1.265789-1.0710526m-12.268421-8.7631579c1.071053 0 1.947369.8763158 1.947369 1.9473684s-.876316 1.9473684-1.947369 1.9473684c-1.071052 0-1.947368-.8763158-1.947368-1.9473684s.876316-1.9473684 1.947368-1.9473684"/><path d="m184.221053 94.6421053c-.584211 0-.973685.3894736-.973685.9736842 0 .5842105.389474.9736842.973685.9736842h1.947368c.584211 0 .973684-.3894737.973684-.9736842 0-.5842106-.389473-.9736842-.973684-.9736842z"/><path d="m188.115789 92.6947368c0-.5842105-.389473-.9736842-.973684-.9736842h-3.894737c-.58421 0-.973684.3894737-.973684.9736842 0 .5842106.389474.9736843.973684.9736843h3.894737c.486842 0 .973684-.4868422.973684-.9736843"/><path d="m189.089474 89.7736842c0-.5842105-.389474-.9736842-.973685-.9736842h-5.842105c-.58421 0-.973684.3894737-.973684.9736842s.389474.9736842.973684.9736842h5.842105c.486843 0 .973685-.4868421.973685-.9736842"/><path d="m186.168421 56.6684211v-3.8947369c0-.5842105-.389474-.9736842-.973684-.9736842-.584211 0-.973684.3894737-.973684.9736842v3.8947369c0 .5842105.389473.9736842.973684.9736842.58421 0 .973684-.4868421.973684-.9736842"/><path d="m173.218421 60.6605263c.194737.1947369.486842.2921053.681579.2921053s.486842-.0973684.681579-.2921053c.389474-.3894737.389474-.9736842 0-1.3631579l-2.726316-2.7263158c-.389474-.3894737-.973684-.3894737-1.363158 0-.389473.3894737-.389473.9736842 0 1.3631579z"/><path d="m164.747368 72.2473684h3.894737c.584211 0 .973684-.3894737.973684-.9736842s-.389473-.9736842-.973684-.9736842h-3.894737c-.58421 0-.973684.3894737-.973684.9736842s.389474.9736842.973684.9736842"/><path d="m194.736842 60.6605263c.194737.1947369.486842.2921053.681579.2921053s.486842-.0973684.681579-.2921053l2.726316-2.7263158c.389473-.3894737.389473-.9736842 0-1.3631579-.389474-.3894737-.973684-.3894737-1.363158 0l-2.726316 2.7263158c-.292105.3894737-.292105.9736842 0 1.3631579"/><path d="m201.747368 72.2473684h3.894737c.584211 0 .973684-.3894737.973684-.9736842s-.389473-.9736842-.973684-.9736842h-3.894737c-.58421 0-.973684.3894737-.973684.9736842s.389474.9736842.973684.9736842"/><path d="m190.355263 128.915789c-.58421-3.310526-3.407895-5.842105-6.815789-5.842105-3.407895 0-6.231579 2.531579-6.718421 5.842105 0 0 0 0-.097369 0h-7.789473c-.584211 0-.973685.389474-.973685.973685 0 .58421.389474.973684.973685.973684h7.789473.097369c.486842 3.310526 3.310526 5.842105 6.718421 5.842105 3.407894 0 6.231579-2.531579 6.718421-5.842105h.097368 7.789474c.58421 0 .973684-.389474.973684-.973684 0-.584211-.389474-.973685-.973684-.973685zm-6.815789 5.842106c-2.726316 0-4.868421-2.142106-4.868421-4.868421 0-2.726316 2.142105-4.868421 4.868421-4.868421 2.726315 0 4.868421 2.142105 4.868421 4.868421 0 2.726315-2.142106 4.868421-4.868421 4.868421"/><path d="m183.539474 152.284211c12.365789 0 22.394737-10.028948 22.394737-22.394737 0-2.921053-.584211-5.744737-1.655264-8.373685-.194736-.486842-.778947-.778947-1.265789-.58421s-.778947.778947-.584211 1.265789c.973685 2.434211 1.460527 5.063158 1.460527 7.692106 0 11.294737-9.152632 20.447368-20.447369 20.447368s-20.447368-9.152631-20.447368-20.447368 9.152631-20.447369 20.447368-20.447369c4.186842 0 8.081579 1.26579 11.489474 3.505263-.486842.681579-.778947 1.460527-.778947 2.336843 0 1.071052.389473 2.044736 1.168421 2.726315.778947.778948 1.752631 1.168421 2.726315 1.168421.973685 0 2.044737-.389473 2.726316-1.168421.778948-.778947 1.168421-1.752631 1.168421-2.726315 0-.973685-.389473-2.044737-1.168421-2.726316-1.071052-1.071053-2.823684-1.363158-4.28421-.778948-3.797369-2.726315-8.373685-4.186842-13.047369-4.186842-12.365789 0-22.394737 10.028948-22.394737 22.394737 0 12.36579 10.126316 22.297369 22.492106 22.297369m13.242105-38.363158c.389474-.389474.876316-.584211 1.363158-.584211s.973684.194737 1.363158.584211c.389473.389473.58421.876315.58421 1.363158 0 .486842-.194737.973684-.58421 1.363157-.778948.778948-2.044737.778948-2.726316 0-.389474-.389473-.584211-.876315-.584211-1.363157 0-.486843.194737-.973685.584211-1.363158"/><path d="m35.2473684 88.9947368h2.8236842c.3894737 2.3368421 2.3368421 4.0894737 4.7710527 4.0894737 2.7263158 0 4.868421-2.1421052 4.868421-4.868421s-2.1421052-4.8684211-4.868421-4.8684211c-2.3368421 0-4.1868421 1.5578948-4.7710527 3.7h-2.9210526c-.0973684 0-.1947368-.0973684-.1947368-.1947368v-17.1368421c0-.0973684.0973684-.1947369.1947368-.1947369h2.5315789.1947369 15.5789474.1947368 2.5315789c.0973685 0 .1947369.0973685.1947369.1947369v17.1368421c0 .0973684-.0973684.1947368-.1947369.1947368h-3.2131578c-.4868422 0-.9736843.3894737-.9736843.9736842 0 .5842106.3894737.9736842.9736843.9736842h3.2131578c1.1684211 0 2.1421053-.9736842 2.1421053-2.1421052v-17.1368421c0-1.1684211-.9736842-2.1421053-2.1421053-2.1421053h-1.6552631v-4.3815789c0-2.9210527-2.4342105-5.3552632-5.3552632-5.3552632h-6.8157894c-2.9210527 0-5.3552632 2.4342105-5.3552632 5.3552632v4.3815789h-1.7526316c-1.168421 0-2.1421052.9736842-2.1421052 2.1421053v17.1368421c0 1.168421.9736842 2.1421052 2.1421052 2.1421052m7.5947369-3.7c1.6552631 0 2.9210526 1.2657895 2.9210526 2.9210527 0 1.6552631-1.2657895 2.9210526-2.9210526 2.9210526-1.6552632 0-2.9210527-1.2657895-2.9210527-2.9210526 0-1.6552632 1.3631579-2.9210527 2.9210527-2.9210527m-3.8947369-22.1026315c0-1.85 1.5578948-3.4078948 3.4078948-3.4078948h6.8157894c1.85 0 3.4078948 1.5578948 3.4078948 3.4078948v4.3815789h-13.631579z"/><path d="m48.8789474 72.7342105-4.6736842 5.1605263-1.6552632-1.4605263c-.3894737-.3894737-.9736842-.2921052-1.3631579.0973684-.3894737.3894737-.2921053.9736843.0973684 1.3631579l2.3368421 2.1421053c.0973685.0973684.0973685.0973684.1947369.0973684 0 0 .0973684 0 .0973684.0973684.0973684 0 .1947368.0973685.3894737.0973685.0973684 0 .2921052 0 .3894737-.0973685 0 0 .0973684-.0973684.0973684-.0973684.0973684 0 .1947368-.0973684.1947368-.1947368l5.4526316-5.8421053c.3894737-.3894737.3894737-.9736842-.0973684-1.3631579-.3894737-.3894737-1.0710526-.3894737-1.4605263 0"/><path d="m71.9552632 89.7736842 1.6552631-.2921053c.2921053.3894737.4868421.681579.8763158 1.0710527l-.6815789 1.5578947c-.1947369.3894737 0 .8763158.2921052 1.1684211.9736842.6815789 2.0447369 1.2657894 3.2131579 1.5578947.3894737.0973684.8763158-.0973684 1.0710526-.4868421l.8763158-1.4605263h1.3631579l.8763158 1.4605263c.1947369.2921053.4868421.4868421.8763158.4868421h.2921053c1.168421-.2921053 2.2394737-.8763158 3.2131579-1.5578947.3894737-.2921053.4868421-.7789474.2921052-1.1684211l-.6815789-1.5578947c.2921052-.2921053.5842105-.681579.8763158-1.0710527l1.6552631.2921053c.4868421.0973684.8763158-.1947368 1.0710527-.5842105.4868421-1.0710526.7789473-2.2394737.7789473-3.5052632 0-.4868421-.2921052-.8763158-.6815789-.9736842l-1.6552632-.4868421c-.0973684-.4868421-.1947368-.8763158-.2921052-1.2657895l1.2657894-1.168421c.2921053-.2921053.3894737-.7789474.1947369-1.1684211-.5842105-1.0710526-1.2657895-1.9473684-2.2394737-2.8236842-.2921053-.2921052-.7789474-.2921052-1.1684211-.0973684l-1.4605263.9736842c-.3894737-.1947368-.7789473-.3894737-1.168421-.5842105l-.0973684-1.7526316c0-.4868421-.3894737-.7789474-.7789474-.8763158-1.1684211-.1947368-2.3368421-.1947368-3.5052632 0-.3894737.0973684-.7789473.4868421-.7789473.8763158l-.0973685 1.7526316c-.3894736.1947368-.7789473.3894737-1.168421.5842105l-1.4605263-.9736842c-.3894737-.2921053-.8763158-.1947368-1.1684211.0973684-.8763158.7789474-1.6552631 1.7526316-2.2394737 2.8236842-.1947368.3894737-.0973684.8763158.1947369 1.1684211l1.2657894 1.168421c-.0973684.3894737-.1947368.8763158-.2921052 1.2657895l-1.7526316.4868421c-.3894737.0973684-.6815789.4868421-.6815789.9736842.0973684 1.1684211.2921052 2.3368421.7789473 3.5052632.1947369.3894737.5842106.5842105 1.0710527.5842105m1.6552631-3.8947368c.3894737-.0973685.681579-.4868421.681579-.8763158 0-.681579.1947368-1.3631579.4868421-1.9473684.1947368-.3894737.0973684-.7789474-.1947369-1.0710527l-1.168421-1.168421c.2921052-.3894737.5842105-.7789474.8763158-1.0710527l1.2657894.8763158c.2921053.1947369.7789474.1947369 1.1684211 0 .5842105-.3894737 1.168421-.6815789 1.85-.8763158.3894737-.0973684.6815789-.4868421.6815789-.8763157l.0973685-1.5578948h1.3631579l.0973684 1.5578948c0 .3894736.2921052.7789473.6815789.8763157.681579.1947369 1.2657895.4868421 1.85.8763158.2921053.1947369.7789474.2921053 1.1684211 0l1.2657894-.8763158c.2921053.2921053.5842106.681579.8763158 1.0710527l-1.168421 1.0710526c-.2921053.2921053-.3894737.681579-.1947369 1.0710526.2921053.5842106.3894737 1.2657895.4868421 1.9473685 0 .3894736.2921053.7789473.681579.8763157l1.5578947.4868422c-.0973684.4868421-.1947368.8763157-.2921052 1.3631578l-1.5578948-.1947368c-.3894737-.0973684-.7789473.0973684-.9736842.4868421-.4868421.5842105-.9736842 1.1684211-1.4605263 1.6552632-.2921053.2921052-.3894737.6815789-.2921053 1.0710526l.5842106 1.4605263c-.3894737.1947369-.7789474.3894737-1.2657895.5842105l-.7789474-1.3631579c-.1947368-.2921052-.4868421-.4868421-.8763158-.4868421-.0973684 0-.0973684 0-.1947368 0-.681579.0973685-1.3631579.0973685-2.0447368 0-.3894737-.0973684-.7789474.0973685-.9736843.4868421l-.7789473 1.3631579c-.3894737-.1947368-.8763158-.3894736-1.2657895-.5842105l.5842105-1.4605263c.1947369-.3894737 0-.7789474-.2921052-1.0710526-.4868421-.4868421-.9736842-.9736842-1.2657895-1.5578948-.1947369-.3894737-.5842105-.5842105-.9736842-.4868421l-1.5578948.1947369c-.0973684-.3894737-.1947368-.8763158-.2921052-1.3631579z"/><path d="m80.0368421 88.8973684c2.0447368 0 3.6026316-1.6552631 3.6026316-3.6026316 0-1.9473684-1.6552632-3.6026315-3.6026316-3.6026315s-3.6026316 1.6552631-3.6026316 3.6026315c0 1.9473685 1.5578948 3.6026316 3.6026316 3.6026316m0-5.3552631c.9736842 0 1.6552632.7789473 1.6552632 1.6552631s-.7789474 1.6552632-1.6552632 1.6552632-1.6552632-.7789474-1.6552632-1.6552632.681579-1.6552631 1.6552632-1.6552631"/></g></svg>